<svg id="iconfinder_24_171492_1_" data-name="iconfinder_24_171492 (1)" xmlns="http://www.w3.org/2000/svg" width="9.518" height="13.47" viewBox="0 0 9.518 13.47">
  <path id="Tracé_821" data-name="Tracé 821" d="M30.284,11.893H20.791V13.47h9.493Zm-.157-6.307a.623.623,0,0,0-.881,0L26.153,8.678V.624a.624.624,0,1,0-1.247,0V8.678l-3.05-3.05a.624.624,0,1,0-.882.882l4.115,4.115a.6.6,0,0,0,.046.042l.022.017.027.02.027.017.025.015.028.014.027.013.028.01.03.01.028.007.031.007.033.005.027,0a.634.634,0,0,0,.123,0l.027,0,.033-.005.031-.007.028-.007.03-.01.028-.01.027-.013.028-.014.025-.015.027-.017.027-.02.022-.017a.664.664,0,0,0,.066-.064l.022-.019,4.115-4.115a.624.624,0,0,0,0-.882" transform="translate(-20.791 0)" fill="#fff"/>
</svg>
