<svg xmlns="http://www.w3.org/2000/svg" width="16.83" height="15.347" viewBox="0 0 16.83 15.347">
  <g id="filter" transform="translate(-1 -2)" fill="rgba(0,0,0,0)" stroke-linecap="round" stroke-linejoin="round">
    <path d="M 11.39811325073242 17.15617370605469 L 10.67450332641602 16.79437446594238 L 7.708463191986084 15.31136417388916 L 7.432073593139648 15.17317390441895 L 7.432073593139648 14.86415386199951 L 7.432073593139648 10.19773864746094 L 1.618223428726196 3.322864055633545 L 0.9223534464836121 2.500004053115845 L 2.000003337860107 2.500004053115845 L 16.8301830291748 2.500004053115845 L 17.90783309936523 2.500004053115845 L 17.21196365356445 3.322864055633545 L 11.39811325073242 10.19773864746094 L 11.39811325073242 16.34716415405273 L 11.39811325073242 17.15617370605469 Z" stroke="none"/>
    <path d="M 2.000003814697266 3.000003814697266 L 7.932073593139648 10.01467418670654 L 7.932073593139648 14.86414337158203 L 10.89811325073242 16.34716415405273 L 10.89811325073242 10.01467418670654 L 16.8301830291748 3.000003814697266 L 2.000003814697266 3.000003814697266 M 2.000003814697266 2.000003814697266 L 16.8301830291748 2.000003814697266 C 17.21951293945312 2.000003814697266 17.57344436645508 2.225963592529297 17.73730278015137 2.579124450683594 C 17.90116310119629 2.932294845581055 17.84515380859375 3.348453521728516 17.59375381469727 3.645733833312988 L 11.89811325073242 10.38082599639893 L 11.89811325073242 16.34716415405273 C 11.89811325073242 16.69374465942383 11.71866321563721 17.01560401916504 11.42384338378906 17.19781494140625 C 11.1290225982666 17.38002395629883 10.76088237762451 17.39658355712891 10.45090389251709 17.2415943145752 L 7.48486328125 15.75857353210449 C 7.146073341369629 15.58918380737305 6.932073593139648 15.2429141998291 6.932073593139648 14.86414337158203 L 6.932073593139648 10.38082599639893 L 1.236433029174805 3.645733833312988 C 0.9850330352783203 3.348453521728516 0.9290237426757812 2.932294845581055 1.092884063720703 2.579124450683594 C 1.256742477416992 2.225963592529297 1.610673904418945 2.000003814697266 2.000003814697266 2.000003814697266 Z" stroke="none" fill="#36445d"/>
  </g>
</svg>
