<?xml version="1.0" standalone="no"?>
<!DOCTYPE svg PUBLIC "-//W3C//DTD SVG 1.1//EN" "http://www.w3.org/Graphics/SVG/1.1/DTD/svg11.dtd" >
<svg xmlns="http://www.w3.org/2000/svg" xmlns:xlink="http://www.w3.org/1999/xlink" version="1.1">
<metadata>
Created by FontForge 20170731 at Tue Mar 31 14:31:14 2015
 By Aleksey,,,
Copyright (c) 2012 by Fontfabric LLC. All rights reserved.
</metadata>
<defs>
<font id="NexaHeavy" horiz-adv-x="616" >
  <font-face 
    font-family="NexaHeavy"
    font-weight="400"
    font-stretch="normal"
    units-per-em="1000"
    panose-1="2 0 0 0 0 0 0 0 0 0"
    ascent="705"
    descent="-295"
    x-height="493"
    cap-height="700"
    bbox="-171 -298 1160 983.787"
    underline-thickness="50"
    underline-position="-150"
    unicode-range="U+0020-FB02"
  />
<missing-glyph horiz-adv-x="665" 
d="M242 142q0 -32 19.5 -48.5t42.5 -16.5t42.5 16.5t19.5 48.5q0 33 -19.5 50t-42.5 17t-42.5 -17t-19.5 -50zM250 443q-1 12 4.5 23t15.5 19.5t23 13t27 4.5q13 0 26 -2.5t23.5 -9t17.5 -17.5t7 -28q0 -14 -6.5 -22t-18 -13.5t-25.5 -10.5t-27 -13q-8 -8 -18.5 -16
t-20 -22.5t-16 -37.5t-6.5 -60l107 -1q0 12 2.5 27t4.5 22q13 12 36 21.5t45 24t38 38t15 63.5q0 40 -15 69t-40.5 48t-59 28t-69.5 9q-37 0 -69.5 -10t-56.5 -29.5t-38 -49t-14 -68.5h108zM52 700h538v-700h-538v700z" />
    <glyph glyph-name=".notdef" horiz-adv-x="665" 
d="M242 142q0 -32 19.5 -48.5t42.5 -16.5t42.5 16.5t19.5 48.5q0 33 -19.5 50t-42.5 17t-42.5 -17t-19.5 -50zM250 443q-1 12 4.5 23t15.5 19.5t23 13t27 4.5q13 0 26 -2.5t23.5 -9t17.5 -17.5t7 -28q0 -14 -6.5 -22t-18 -13.5t-25.5 -10.5t-27 -13q-8 -8 -18.5 -16
t-20 -22.5t-16 -37.5t-6.5 -60l107 -1q0 12 2.5 27t4.5 22q13 12 36 21.5t45 24t38 38t15 63.5q0 40 -15 69t-40.5 48t-59 28t-69.5 9q-37 0 -69.5 -10t-56.5 -29.5t-38 -49t-14 -68.5h108zM52 700h538v-700h-538v700z" />
    <glyph glyph-name=".null" horiz-adv-x="0" 
 />
    <glyph glyph-name="nonmarkingreturn" horiz-adv-x="322" 
 />
    <glyph glyph-name="space" unicode=" " horiz-adv-x="237" 
 />
    <glyph glyph-name="exclam" unicode="!" horiz-adv-x="299" 
d="M227 701l-4 -488h-148q0 124 -1.5 243.5t-1.5 244.5h155zM62 83q0 44 27.5 66t60.5 22t60.5 -22t27.5 -66q0 -29 -13 -48.5t-32.5 -29t-42.5 -9.5t-42.5 9.5t-32.5 29t-13 48.5z" />
    <glyph glyph-name="quotedbl" unicode="&#x22;" horiz-adv-x="459" 
d="M195 699v-271h-131v271h131zM395 699v-271h-133v271h133z" />
    <glyph glyph-name="numbersign" unicode="#" horiz-adv-x="700" 
d="M386 700l-37 -150h109l38 150h133l-37 -150h72v-116h-101l-47 -182h79v-117h-106l-33 -135h-134l33 135h-110l-33 -135h-133l33 135h-76v117h106l46 183h-83v115h110l37 150h134zM314 443l-50 -198h126l50 198h-126z" />
    <glyph glyph-name="dollar" unicode="$" horiz-adv-x="715" 
d="M647 581q-17 36 -40 61t-50 42t-57.5 26t-63.5 13v83h-132v-83q-46 -4 -89 -18t-76 -39.5t-53 -62.5t-20 -86q0 -66 24.5 -106.5t65 -64t93 -33.5t107.5 -15q33 -3 62.5 -9.5t52.5 -17.5t36.5 -28t13.5 -41q0 -29 -12 -47t-33.5 -28t-51 -13t-63.5 -3q-31 0 -61.5 8
t-57.5 22.5t-48 34.5t-32 44l-130 -63q16 -38 43 -69.5t62.5 -55t77 -38t85.5 -18.5v-94h137v95q118 12 179.5 69.5t61.5 155.5q0 67 -27.5 110t-71.5 69t-99.5 38.5t-111.5 18.5q-28 2 -54.5 6.5t-47.5 13t-33.5 22.5t-12.5 37q0 22 12.5 38.5t32 27t44.5 15.5t52 5
q29 0 55.5 -6.5t48 -18t37 -25.5t22.5 -29z" />
    <glyph glyph-name="percent" unicode="%" horiz-adv-x="815" 
d="M200 704q42 0 73 -14t51.5 -36.5t31 -51t10.5 -58.5t-10.5 -59t-31 -51.5t-51.5 -36.5t-73 -14t-73 14t-52 36.5t-31 51.5t-10 59t10 58.5t31 51t52 36.5t73 14zM715 699l-458 -700h-159l460 700h157zM615 314q42 0 73 -14t51.5 -36.5t31 -51t10.5 -58.5t-10.5 -59
t-31 -51.5t-51.5 -36.5t-73 -14t-73 14t-51.5 36.5t-31 51.5t-10.5 59t10.5 58.5t31 51t51.5 36.5t73 14zM615 210q-27 0 -41.5 -17.5t-14.5 -39.5t14.5 -39t41.5 -17q28 0 41.5 17t13.5 39t-13.5 39.5t-41.5 17.5zM200 602q-29 0 -43 -18t-14 -40t14 -39.5t43 -17.5
t42.5 17.5t13.5 39.5t-13.5 40t-42.5 18z" />
    <glyph glyph-name="ampersand" unicode="&#x26;" horiz-adv-x="717" 
d="M465 300v-73q0 -29 -15.5 -48t-36.5 -30.5t-43.5 -16.5t-36.5 -5q-20 0 -43 3.5t-42.5 13.5t-33 28.5t-13.5 47.5q0 15 7.5 29t23 25.5t38.5 18.5t55 7h140zM603 300h56v119h-326q-18 0 -37.5 3t-36 11.5t-27 24t-10.5 40.5q0 21 9 37t25 27.5t36 17.5t43 6q21 0 42 -4.5
t38.5 -14t30 -24.5t15.5 -35h143q-4 57 -27.5 96.5t-59.5 63.5t-82.5 34.5t-95.5 10.5q-43 0 -91 -10.5t-88 -35t-66.5 -66t-26.5 -103.5q0 -17 6 -38t18 -41t29.5 -36t40.5 -23q-54 -24 -84 -64.5t-30 -94.5q0 -63 24 -104t62 -65t85.5 -33.5t94.5 -9.5q29 0 58 5t55 16.5
t48 30t37 45.5q14 -51 48.5 -72.5t79.5 -21.5q17 0 34 3v154q-10 -2 -14 -2q-14 0 -24 6t-17.5 15.5t-11 20.5t-3.5 21v90z" />
    <glyph glyph-name="quotesingle" unicode="'" horiz-adv-x="258" 
d="M194 697v-271h-130v271h130z" />
    <glyph glyph-name="parenleft" unicode="(" horiz-adv-x="361" 
d="M346 674q-41 -34 -71.5 -76.5t-51 -90.5t-30 -100t-9.5 -103q0 -114 38 -212t119 -164l-72 -97q-118 78 -176 197.5t-58 275.5q0 78 17.5 146.5t49 128t75.5 108t97 86.5z" />
    <glyph glyph-name="parenright" unicode=")" horiz-adv-x="361" 
d="M87 773q53 -38 97 -86.5t75.5 -108t49 -128t17.5 -146.5q0 -156 -58 -275.5t-176 -197.5l-72 97q81 66 119 164t38 212q0 51 -10 103t-30 100t-50.5 90.5t-71.5 76.5z" />
    <glyph glyph-name="asterisk" unicode="*" horiz-adv-x="410" 
d="M264 406l-57 85l-56 -87l-81 60l62 73l-90 21l28 90l89 -33l-5 93h103l-11 -93l94 35l27 -92l-91 -19l66 -75z" />
    <glyph glyph-name="plus" unicode="+" horiz-adv-x="497" 
d="M181 391v144h132v-144h141v-126h-141v-144h-132v144h-138v126h138z" />
    <glyph glyph-name="comma" unicode="," horiz-adv-x="263" 
d="M211 64q0 -38 -15.5 -79t-29.5 -86h-77l15 104q-24 4 -39 18.5t-15 40.5q0 39 25 57.5t55.5 18.5t55.5 -19t25 -55z" />
    <glyph glyph-name="hyphen" unicode="-" horiz-adv-x="493" 
d="M59 355h375v-125h-375v125z" />
    <glyph glyph-name="period" unicode="." horiz-adv-x="264" 
d="M50 73q0 40 25.5 60.5t56.5 20.5t56.5 -20.5t25.5 -60.5q0 -41 -25.5 -61t-56.5 -20t-56.5 20t-25.5 61z" />
    <glyph glyph-name="slash" unicode="/" horiz-adv-x="509" 
d="M485 768l-322 -850h-140l321 850h141z" />
    <glyph glyph-name="zero" unicode="0" horiz-adv-x="723" 
d="M205 300q0 -47 11.5 -81t32.5 -56.5t49.5 -33.5t62.5 -11t62.5 11t49.5 33.5t33 56.5t12 81v101q0 89 -43.5 134t-110.5 45q-33 0 -62 -10.5t-50.5 -32.5t-34 -56t-12.5 -80v-101zM50 402q0 82 25 142.5t68 100t100 58.5t121 19t120 -20t98 -60t66 -100t24 -140v-101
q0 -80 -25 -140.5t-67 -100.5t-97.5 -60t-116.5 -20q-62 0 -119 19t-100.5 58.5t-70 99.5t-26.5 143v102z" />
    <glyph glyph-name="one" unicode="1" horiz-adv-x="453" 
d="M52 128h118v378l-112 -35v136l259 93v-572h110v-128h-375v128z" />
    <glyph glyph-name="two" unicode="2" horiz-adv-x="675" 
d="M59 492q3 61 28.5 102.5t64.5 67t88.5 36.5t100.5 11q56 0 107 -13t89.5 -40t61.5 -68.5t23 -98.5q0 -65 -21 -108t-58.5 -68.5t-89 -36t-111.5 -10.5q-23 0 -48 -2.5t-46.5 -12t-35.5 -28.5t-14 -52v-27h419v-144h-566v172q0 70 26 115t67.5 70.5t93.5 35t104 9.5
q19 0 41.5 3.5t41.5 12.5t31.5 25.5t12.5 42.5q0 45 -34 67.5t-94 22.5q-24 0 -47 -5t-41.5 -15.5t-30.5 -26.5t-13 -37h-150z" />
    <glyph glyph-name="three" unicode="3" horiz-adv-x="681" 
d="M235 295v127h97q19 0 41.5 1.5t41.5 8.5t32 21t13 38q0 11 -5 25t-18.5 26t-37.5 20t-63 8q-21 0 -42 -2.5t-39 -10t-30.5 -20.5t-16.5 -35h-155q5 59 31 99t66 65t88.5 35.5t98.5 10.5q44 0 89.5 -9.5t84.5 -30.5t66.5 -55.5t35.5 -84.5q10 -60 -14 -106t-75 -68
q63 -26 89.5 -77t17.5 -114q-9 -57 -40 -92.5t-74 -55t-92 -26.5t-94 -7q-51 0 -101 12.5t-90.5 39.5t-67 70t-30.5 105h157q3 -25 15 -41.5t30 -27t41 -15t47 -4.5q16 0 39.5 3t45 12t36.5 25.5t15 44.5q0 10 -3 24.5t-15 28t-37.5 23t-70.5 9.5h-107z" />
    <glyph glyph-name="four" unicode="4" horiz-adv-x="684" 
d="M563 699v-438h80v-135h-80v-127h-153v127h-373l-13 160l384 413h155zM410 261v249l-226 -249h226z" />
    <glyph glyph-name="five" unicode="5" horiz-adv-x="658" 
d="M578 559h-368v-108h123q56 0 107.5 -10t90.5 -36t62.5 -70t23.5 -112q0 -65 -26 -109t-66.5 -71.5t-90 -39.5t-97.5 -12q-61 0 -113 12t-90.5 38.5t-60.5 69.5t-22 105h154q0 -24 12 -40.5t31 -27t42 -15t45 -4.5q14 0 36 3.5t42.5 13.5t35 28.5t14.5 48.5
q0 29 -13.5 47.5t-33.5 29t-42.5 14t-40.5 3.5h-268v382h513v-140z" />
    <glyph glyph-name="six" unicode="6" horiz-adv-x="695" 
d="M211 396q33 36 71 50t93 14q56 0 106 -14.5t88 -44t60 -73.5t22 -103q0 -64 -25 -109t-66.5 -73.5t-94.5 -41.5t-109 -13q-55 0 -108 13.5t-95 42t-68 74t-26 109.5v247q0 61 25 106.5t65.5 75t93 44t108.5 14.5q58 0 109 -11t89.5 -36t62 -66t26.5 -100h-146
q-5 22 -18.5 37t-33 24.5t-43 14t-47.5 4.5q-27 0 -52 -7.5t-44.5 -21.5t-31 -33.5t-11.5 -44.5v-78zM356 126q29 0 54.5 6.5t44.5 19.5t30 31.5t11 41.5q0 49 -38 76t-101 27q-32 0 -58.5 -7t-46 -20t-30 -32t-9.5 -44q2 -48 41 -73.5t102 -25.5z" />
    <glyph glyph-name="seven" unicode="7" horiz-adv-x="560" 
d="M84 0l261 558h-314v142h515l5 -77l-292 -623h-175z" />
    <glyph glyph-name="eight" unicode="8" horiz-adv-x="709" 
d="M354 300q-63 0 -103 -22.5t-41 -64.5q0 -14 6 -30t22 -29.5t44 -23t72 -9.5q43 0 71 9t44.5 23t22.5 30t5 30q-1 39 -37.5 63t-105.5 24zM46 221q0 15 6.5 35.5t20 41t34 38t49.5 27.5q-51 27 -72 71.5t-14 98.5q6 45 30 79t61.5 57t86 35t104.5 12q60 0 110.5 -12
t88.5 -35.5t61.5 -59t29.5 -82.5q6 -51 -17.5 -93t-71.5 -63q32 -12 53 -31t33.5 -40t17.5 -42t5 -37q1 -63 -24 -108.5t-68 -74.5t-99.5 -42t-118.5 -12q-60 0 -116 13.5t-98.5 42t-68 73.5t-23.5 108zM227 504q2 -35 34 -61t93 -26t92.5 26t33.5 61q1 14 -6 29.5t-22.5 28
t-40.5 21t-59 8.5q-39 0 -63.5 -10t-38.5 -24t-19 -28.5t-4 -24.5z" />
    <glyph glyph-name="nine" unicode="9" horiz-adv-x="700" 
d="M488 306q-33 -36 -71 -50t-93 -14q-56 0 -106 14.5t-88 43.5t-60 73.5t-22 103.5q0 64 25 109t66.5 73.5t94.5 41.5t109 13q55 0 108 -13.5t95 -42t68 -74t26 -109.5v-247q0 -66 -26 -112t-68.5 -74.5t-96.5 -41t-109 -12.5q-59 0 -110.5 11t-90.5 36t-63 66t-27 100h146
q4 -22 18 -36.5t34.5 -23.5t45 -13t48.5 -4q27 0 53.5 5.5t47 18t33.5 32t13 48.5v78zM343 576q-29 0 -54.5 -7t-44.5 -19.5t-30 -31t-11 -41.5q0 -49 38 -76t101 -27q32 0 58.5 6.5t45.5 19.5t29.5 32.5t10.5 44.5q-2 48 -41 73.5t-102 25.5z" />
    <glyph glyph-name="colon" unicode=":" horiz-adv-x="279" 
d="M59 73q0 40 25 59.5t55.5 19.5t55.5 -19.5t25 -59.5q0 -39 -25 -59t-55.5 -20t-55.5 20t-25 59zM59 360q0 40 25 59.5t55.5 19.5t55.5 -19.5t25 -59.5q0 -39 -25 -59t-55.5 -20t-55.5 20t-25 59z" />
    <glyph glyph-name="semicolon" unicode=";" horiz-adv-x="287" 
d="M65 360q0 40 25 59.5t55.5 19.5t55.5 -19.5t25 -59.5q0 -39 -25 -59t-55.5 -20t-55.5 20t-25 59zM223 62q0 -37 -15 -79.5t-30 -83.5h-77l18 99q-24 4 -40.5 21t-16.5 43q0 39 25 58.5t55.5 20t55.5 -19t25 -59.5z" />
    <glyph glyph-name="less" unicode="&#x3c;" horiz-adv-x="418" 
d="M360 168l-93 -99l-235 241v7l235 241l94 -99l-148 -146z" />
    <glyph glyph-name="equal" unicode="=" horiz-adv-x="570" 
d="M64 256h442v-128h-442v128zM64 492h442v-129h-442v129z" />
    <glyph glyph-name="greater" unicode="&#x3e;" horiz-adv-x="420" 
d="M206 313l-148 154l94 91l236 -241v-7l-236 -241l-93 91z" />
    <glyph glyph-name="question" unicode="?" horiz-adv-x="598" 
d="M196 82q0 30 13.5 50.5t34 30.5t44.5 10.5t44.5 -10t34 -31t13.5 -50.5t-13.5 -50.5t-34 -30.5t-44.5 -10t-44.5 10t-34 30.5t-13.5 50.5zM32 489q0 55 20 97t54.5 71t83 44t105.5 15q52 0 96.5 -10t79 -30.5t57 -51.5t31.5 -73q10 -52 -1 -85.5t-32.5 -57t-49.5 -41
t-53 -37t-42 -44.5t-17 -64h-155q1 58 16.5 95t38 60.5t48 37.5t46.5 27.5t33 30.5t8 45q-5 31 -33.5 47t-70.5 16q-45 0 -75 -25t-32 -67h-156z" />
    <glyph glyph-name="at" unicode="@" horiz-adv-x="928" 
d="M465 561q-65 0 -123 -23t-102 -64.5t-69.5 -100t-25.5 -130.5q0 -82 26.5 -140t70.5 -94.5t101 -53.5t118 -17q29 0 68 8t79 31l41 -81q-54 -32 -101 -41.5t-90 -9.5q-76 0 -150 23.5t-132.5 72.5t-95 124t-36.5 178q0 98 35.5 174t94.5 128t135 79t156 27
q89 0 167 -24.5t136 -74.5t91.5 -125t33.5 -176q0 -60 -13.5 -108t-38.5 -82t-60.5 -52.5t-79.5 -18.5q-14 0 -30 3.5t-31 12.5t-26 24t-15 38q-12 -17 -30 -30t-37.5 -22t-38 -14t-32.5 -5q-54 0 -101 18t-81.5 50.5t-54 78t-19.5 99.5q0 49 16.5 92t45 75t68 53t85.5 27
q22 2 46.5 0t47.5 -10t43.5 -21.5t34.5 -33.5l7 43l93 -15v-338q0 -17 9 -22t15 -5q35 2 56 41.5t21 118.5q0 156 -86.5 234.5t-241.5 78.5zM458 378q-33 0 -57.5 -11.5t-40.5 -30.5t-23.5 -43t-7.5 -49t7.5 -49t23.5 -42.5t40.5 -29.5t58.5 -11q32 0 56.5 11t40.5 29.5
t24 43.5t8 53q0 27 -8 50.5t-24 41t-40.5 27.5t-57.5 10z" />
    <glyph glyph-name="A" unicode="A" horiz-adv-x="790" 
d="M574 120h-359l-51 -120h-168l314 700h170l314 -700h-169zM395 542l-121 -284h241z" />
    <glyph glyph-name="B" unicode="B" horiz-adv-x="727" 
d="M231 136h192q54 0 78.5 21.5t24.5 58.5t-26.5 59.5t-78.5 22.5h-190v-162zM231 428h190q46 0 68.5 17.5t22.5 48.5t-22 51t-67 20h-192v-137zM423 700q49 0 93.5 -11.5t77.5 -35t52.5 -59t19.5 -84.5q0 -45 -21 -82.5t-72 -60.5q33 -12 56.5 -34t38 -49.5t18.5 -58.5
t-2 -61q-16 -85 -82.5 -124.5t-172.5 -39.5h-351v700h345z" />
    <glyph glyph-name="C" unicode="C" horiz-adv-x="696" 
d="M681 86q-54 -54 -122.5 -78.5t-146.5 -24.5q-100 0 -171 30t-116 80t-66 115.5t-21 137.5q0 68 22 134.5t68 119t116.5 85t167.5 32.5q72 0 137.5 -27t119.5 -81l-98 -97q-32 31 -74.5 44.5t-84.5 13.5q-60 0 -102 -21t-68 -53.5t-38 -72.5t-12 -78t11.5 -77t37.5 -70.5
t68 -51t103 -19.5q21 0 44.5 4.5t46.5 13t44 21t37 28.5z" />
    <glyph glyph-name="D" unicode="D" horiz-adv-x="753" 
d="M365 700q90 0 156 -28t108.5 -75.5t63 -110t20.5 -131.5t-20 -133t-62 -113.5t-108 -79t-158 -29.5h-287v700h287zM232 144h133q57 0 94.5 19t59.5 49.5t31 68.5t9 76q0 37 -10 73.5t-32.5 65t-59.5 46t-92 17.5h-133v-415z" />
    <glyph glyph-name="E" unicode="E" horiz-adv-x="656" 
d="M611 0h-533v700h519v-143h-366v-135h345v-137h-345v-141h380v-144z" />
    <glyph glyph-name="F" unicode="F" horiz-adv-x="626" 
d="M78 0v699h510v-143h-354v-166h332v-139h-332v-251h-156z" />
    <glyph glyph-name="G" unicode="G" horiz-adv-x="742" 
d="M575 513q-32 31 -77 46.5t-87 15.5q-100 0 -160 -57t-60 -172q0 -36 11 -75t37 -71.5t68 -53.5t104 -21q37 0 72 9t77 40v108h-167v130h302v-301q-91 -130 -285 -130q-101 0 -172 32t-115.5 83.5t-64.5 117t-20 132.5q0 74 22 141.5t68 118.5t116.5 81.5t166.5 30.5
q72 0 136.5 -23t124.5 -85z" />
    <glyph glyph-name="H" unicode="H" horiz-adv-x="779" 
d="M547 -1v277h-313v-277h-156v700h156v-280h313v280h154v-700h-154z" />
    <glyph glyph-name="I" unicode="I" horiz-adv-x="311" 
d="M78 0v700h155v-700h-155z" />
    <glyph glyph-name="J" unicode="J" horiz-adv-x="716" 
d="M169 291q4 -86 48 -122t111 -36q78 0 120.5 43.5t42.5 124.5v257h-194v142h350v-400q0 -69 -20.5 -126.5t-60.5 -99.5t-99 -65.5t-137 -23.5q-148 0 -229 73.5t-83 232.5h151z" />
    <glyph glyph-name="K" unicode="K" horiz-adv-x="673" 
d="M656 696l-284 -336l309 -351v-9h-188l-259 299v-299h-156v700h156v-289l233 289h189v-4z" />
    <glyph glyph-name="L" unicode="L" horiz-adv-x="600" 
d="M234 700v-557h350v-143h-506v700h156z" />
    <glyph glyph-name="M" unicode="M" horiz-adv-x="921" 
d="M687 486l-216 -272h-28l-209 274v-489h-156v700h179l204 -269l205 269h177v-700h-156v487z" />
    <glyph glyph-name="N" unicode="N" horiz-adv-x="790" 
d="M565 245l-10 220v235h157v-700h-134l-348 448l6 -230v-218h-158v700h134z" />
    <glyph glyph-name="O" unicode="O" horiz-adv-x="832" 
d="M794 350q0 -86 -27.5 -154t-77.5 -115t-119.5 -72.5t-153.5 -25.5t-153.5 25.5t-119.5 72.5t-77.5 115t-27.5 154q0 85 27.5 153.5t77.5 115.5t119.5 72.5t153.5 25.5t153.5 -25.5t119.5 -72.5t77.5 -115.5t27.5 -153.5zM641 350q0 48 -16 89.5t-45.5 72t-71 48
t-92.5 17.5q-50 0 -91.5 -17.5t-71 -48.5t-46 -72t-16.5 -89q0 -49 16.5 -90.5t46 -71.5t71 -47t91.5 -17q51 0 92.5 17t71 47t45.5 71.5t16 90.5z" />
    <glyph glyph-name="P" unicode="P" horiz-adv-x="699" 
d="M234 341h174q56 0 84 31.5t28 73.5t-28 74t-84 32h-174v-211zM234 198v-198h-156v700h330q67 0 117.5 -20t84 -54.5t50 -80t16.5 -96.5q0 -53 -17 -98.5t-50.5 -79t-83.5 -53t-117 -20.5h-174z" />
    <glyph glyph-name="Q" unicode="Q" horiz-adv-x="832" 
d="M792 350q0 -66 -16 -119.5t-45 -98.5l81 -82l-109 -108l-85 87q-86 -46 -202 -46q-84 0 -153.5 25t-119.5 72t-77.5 115t-27.5 155t27.5 155t77.5 115t119.5 72t153.5 25t153 -25t118.5 -72t77 -115t27.5 -155zM639 350q0 49 -15.5 90.5t-45 71.5t-70.5 46.5t-92 16.5
q-50 0 -91.5 -17t-71 -47t-46 -71t-16.5 -90q0 -50 16.5 -91.5t46 -71t71 -46t91.5 -16.5q51 0 93 17.5t71.5 48t45 71.5t13.5 88z" />
    <glyph glyph-name="R" unicode="R" horiz-adv-x="725" 
d="M699 0h-173l-179 230h-113v-230h-156v700h332q63 0 111.5 -19.5t81.5 -52.5t49.5 -75.5t16.5 -88.5q0 -34 -6.5 -66t-24.5 -60t-49.5 -52t-81.5 -42l192 -232v-12zM234 566v-204h178q27 0 46.5 9t32 23.5t18.5 31.5t6 34q0 18 -6.5 37t-19 34t-32.5 25t-47 10h-176z" />
    <glyph glyph-name="S" unicode="S" horiz-adv-x="654" 
d="M491 529q-31 29 -75 43.5t-87 14.5q-25 0 -47.5 -5.5t-39.5 -15t-27 -23.5t-10 -32q0 -24 11 -39t31 -24t47.5 -13.5t60.5 -7.5q52 -5 100.5 -18t86 -38.5t60 -66.5t22.5 -102q0 -58 -25 -100t-66 -69t-94 -39.5t-110 -12.5q-44 -1 -89 7t-86 26t-74.5 45t-55.5 63l93 96
q19 -26 45.5 -44.5t55 -30.5t57.5 -17.5t55 -5.5q63 0 101.5 22t38.5 60q1 45 -34 66t-107 27q-55 5 -105.5 16t-89 35t-61 63.5t-21.5 100.5q0 52 23 91.5t61.5 65.5t88.5 39t103 13q81 0 144 -21.5t117 -83.5z" />
    <glyph glyph-name="T" unicode="T" horiz-adv-x="615" 
d="M230 561h-213v139h581v-139h-213v-561h-155v561z" />
    <glyph glyph-name="U" unicode="U" horiz-adv-x="774" 
d="M706 699v-391q0 -80 -22 -140.5t-63 -101.5t-98.5 -62t-129.5 -21q-66 0 -125.5 19.5t-103.5 59.5t-70 101.5t-26 144.5v391h155v-391q0 -91 45.5 -138t126.5 -47q43 0 73 14t48.5 38.5t26.5 58.5t8 74v391h155z" />
    <glyph glyph-name="V" unicode="V" horiz-adv-x="738" 
d="M450 -3h-161l-292 703h175l197 -517l197 517h175z" />
    <glyph glyph-name="W" unicode="W" horiz-adv-x="1073" 
d="M814 1h-128l-150 391l-145 -391h-128l-261 699h175l87 -239l63 -226l157 465h102l164 -465l60 225l83 240h175z" />
    <glyph glyph-name="X" unicode="X" horiz-adv-x="689" 
d="M508 700h171v-7l-236 -341l240 -347v-5h-173l-165 246l-165 -246h-173v5l238 347l-235 341v7h171l164 -249z" />
    <glyph glyph-name="Y" unicode="Y" horiz-adv-x="704" 
d="M352 422l177 278h179v-8l-280 -414v-278h-156v278l-268 414v8h180z" />
    <glyph glyph-name="Z" unicode="Z" horiz-adv-x="628" 
d="M48 700h535v-68l-336 -486h344v-146h-560v81l342 485h-325v134z" />
    <glyph glyph-name="bracketleft" unicode="[" horiz-adv-x="363" 
d="M72 -178v882h256v-123h-114v-635h114v-124h-256z" />
    <glyph glyph-name="backslash" unicode="\" horiz-adv-x="511" 
d="M167 768l321 -850h-142l-322 850h143z" />
    <glyph glyph-name="bracketright" unicode="]" horiz-adv-x="363" 
d="M35 -178v124h114v635h-114v123h256v-882h-256z" />
    <glyph glyph-name="asciicircum" unicode="^" horiz-adv-x="649" 
d="M38 334l240 369h83l249 -367l1 -8h-153l-140 210l-134 -210h-147z" />
    <glyph glyph-name="underscore" unicode="_" horiz-adv-x="501" 
d="M14 4h473v-125h-473v125z" />
    <glyph glyph-name="grave" unicode="`" horiz-adv-x="264" 
d="M-3 698h168l74 -140v-7h-126l-116 141v6z" />
    <glyph glyph-name="a" unicode="a" horiz-adv-x="639" 
d="M443 494h135v-494h-130l-8 62q-12 -21 -30.5 -35.5t-39.5 -24t-42.5 -13.5t-39.5 -4q-56 0 -102.5 18t-80.5 52t-53 82.5t-19 109.5t20 109.5t55 82t82 50.5t102 16q48 0 87 -17.5t59 -50.5zM307 378q-27 0 -50.5 -9t-41.5 -26t-28 -41t-10 -55t10 -55t28 -40.5
t41.5 -25.5t50.5 -9q30 0 54.5 11t41.5 28.5t26 40t9 45.5q0 27 -8.5 51.5t-25 43t-41 30t-56.5 11.5z" />
    <glyph glyph-name="b" unicode="b" horiz-adv-x="640" 
d="M341 374q-25 0 -49 -8t-42.5 -24t-30 -40t-11.5 -55q0 -35 11.5 -59.5t30.5 -39.5t43 -21.5t48 -6.5q29 0 51.5 10t38 27t23.5 40t8 50q0 57 -32 92t-89 35zM206 699v-265q32 40 71 55.5t84 15.5q54 0 99.5 -18t78 -51t50.5 -81t18 -108q0 -58 -17.5 -106t-50 -82.5
t-77.5 -54t-99 -19.5q-48 0 -89 14.5t-75 63.5l-9 -63h-129v699h145z" />
    <glyph glyph-name="c" unicode="c" horiz-adv-x="508" 
d="M495 63q-45 -47 -95 -63t-98 -16q-54 0 -103 15.5t-86 47.5t-59 81t-22 116q0 62 22 110.5t58.5 82t85.5 51t103 17.5t97.5 -14t81.5 -56l-80 -91q-23 17 -46.5 23t-46.5 6q-27 0 -50.5 -8.5t-41.5 -25t-28 -40.5t-10 -55q0 -30 10.5 -53t28 -38.5t40.5 -24t48 -8.5
q24 0 53 9.5t47 27.5z" />
    <glyph glyph-name="d" unicode="d" horiz-adv-x="640" 
d="M299 374q-57 0 -89 -35t-32 -92q0 -27 8 -50t23.5 -40t38 -27t51.5 -10q24 0 48 6.5t43 21.5t30.5 39.5t11.5 59.5q0 31 -11.5 55t-30.5 40t-42.5 24t-48.5 8zM579 699v-699h-129l-9 63q-18 -24 -37 -39.5t-39.5 -23.5t-42.5 -11t-45 -3q-54 0 -99 19.5t-77.5 54
t-50 82.5t-17.5 105q0 60 18 107.5t50.5 81t78 51t99.5 17.5q45 0 84 -15.5t71 -54.5v265h145z" />
    <glyph glyph-name="e" unicode="e" horiz-adv-x="577" 
d="M179 197q5 -36 39 -62.5t95 -26.5q29 0 65.5 8t62.5 31l81 -90q-40 -39 -97.5 -56t-114.5 -17q-67 0 -118.5 19.5t-87 54.5t-53.5 83.5t-18 107.5q0 56 18.5 103t52.5 80.5t82.5 52.5t108.5 19q63 0 114 -19.5t84.5 -58t47 -96t1.5 -133.5h-363zM413 302q-1 20 -11 35
t-26.5 24.5t-37.5 14.5t-43 5q-45 0 -75 -21t-41 -58h234z" />
    <glyph glyph-name="f" unicode="f" horiz-adv-x="406" 
d="M110 0v367h-87v121h87v26q0 54 17.5 91.5t46 61.5t64.5 35t72 11q42 0 73.5 -11t63.5 -31l-49 -101q-17 11 -35.5 15.5t-35.5 4.5q-32 0 -52.5 -18.5t-20.5 -57.5v-26h137v-121h-137v-367h-144z" />
    <glyph glyph-name="g" unicode="g" horiz-adv-x="606" 
d="M174 -71q4 -57 38.5 -78.5t85.5 -21.5q24 0 46 5.5t39 17t27 28.5t10 40q0 36 -26.5 60.5t-93.5 24.5q-61 0 -110 17.5t-84 49.5t-54 78.5t-19 103.5q0 63 22.5 110t59.5 78.5t85 47.5t100 16q26 0 59 -5t57 -22l54 70l104 -80l-63 -75q26 -32 39.5 -68.5t11.5 -73.5
q-2 -54 -27 -99.5t-79 -73.5q41 -18 63.5 -41t33 -46t12 -42.5t1.5 -29.5q0 -55 -23 -96t-60.5 -68t-85.5 -40.5t-99 -13.5q-130 0 -195 59.5t-63 167.5h134zM300 378q-55 0 -91.5 -32t-36.5 -92q0 -54 36.5 -86t91.5 -32q24 0 46.5 7.5t40 22t27.5 36.5t10 52
q0 26 -9.5 48.5t-26 39.5t-39 26.5t-49.5 9.5z" />
    <glyph glyph-name="h" unicode="h" horiz-adv-x="607" 
d="M206 700v-265q31 40 71.5 54.5t78.5 14.5q43 0 79.5 -12.5t62.5 -40t40.5 -73t14.5 -111.5v-267h-144v266q0 52 -25.5 79.5t-68.5 27.5q-45 0 -77.5 -30.5t-32.5 -90.5v-252h-144v700h145z" />
    <glyph glyph-name="i" unicode="i" horiz-adv-x="266" 
d="M205 495v-495h-144v495h144zM51 625q0 41 25.5 61t56.5 20t56.5 -20t25.5 -61t-25.5 -61t-56.5 -20t-56.5 20t-25.5 61z" />
    <glyph glyph-name="j" unicode="j" horiz-adv-x="265" 
d="M204 495v-519q0 -51 -12.5 -88t-34.5 -61t-51.5 -35.5t-63.5 -11.5q-29 0 -60.5 9t-60.5 26l41 105q31 -17 54 -17q20 0 32.5 16t12.5 53v523h143zM52 625q0 41 25.5 61t55.5 20q31 0 56.5 -20t25.5 -61t-25.5 -61t-56.5 -20q-30 0 -55.5 20t-25.5 61z" />
    <glyph glyph-name="k" unicode="k" horiz-adv-x="548" 
d="M205 699v-399l146 191h170v-9l-181 -221l209 -250v-11h-173l-171 217v-217h-144v699h144z" />
    <glyph glyph-name="l" unicode="l" horiz-adv-x="269" 
d="M206 699v-699h-143v699h143z" />
    <glyph glyph-name="m" unicode="m" horiz-adv-x="886" 
d="M386 0v265q0 49 -23.5 78.5t-68.5 29.5q-21 0 -38 -9t-28 -24.5t-17 -35t-6 -40.5v-264h-144v494h126l10 -56q24 40 60.5 53.5t69.5 13.5q40 0 80.5 -19.5t64.5 -72.5q33 51 70.5 71.5t92.5 20.5q39 0 74.5 -10.5t62.5 -37.5t43.5 -72.5t16.5 -114.5v-270h-145v267
q0 47 -15.5 75t-59.5 28q-43 0 -63.5 -31.5t-20.5 -73.5v-265h-142z" />
    <glyph glyph-name="n" unicode="n" 
d="M417 0v261q0 115 -102 115q-25 0 -45.5 -10t-35.5 -26.5t-23 -38.5t-8 -46v-255h-142v494h130l5 -63q33 43 74 59t86 15q42 0 79 -11t65.5 -38.5t45 -74.5t16.5 -119v-262h-145z" />
    <glyph glyph-name="o" unicode="o" horiz-adv-x="605" 
d="M302 -16q-63 0 -113 18.5t-85 53t-53.5 83t-18.5 107.5q0 56 19 103.5t54.5 82t85 54t111.5 19.5t112 -19.5t85.5 -54t54.5 -82t19 -103.5q0 -59 -18.5 -107.5t-54 -83t-85.5 -53t-113 -18.5zM302 112q33 0 56.5 11t39 29.5t22.5 43t7 50.5q0 23 -7.5 46.5t-22.5 42
t-38.5 30t-56.5 11.5q-32 0 -55.5 -11.5t-38.5 -30t-22.5 -42t-7.5 -46.5q0 -25 7 -49t22 -43t38.5 -30.5t56.5 -11.5z" />
    <glyph glyph-name="p" unicode="p" horiz-adv-x="640" 
d="M341 117q57 0 89 36t32 93q0 27 -8 50t-23.5 40t-38 27t-51.5 10q-24 0 -48 -6.5t-43 -21.5t-30.5 -39.5t-11.5 -59.5q0 -32 11.5 -56.5t30 -40.5t42.5 -24t49 -8zM61 -218v711h129l9 -63q34 44 75.5 59t88.5 15q54 0 99 -19t77.5 -53t50 -81.5t17.5 -104.5
q0 -61 -18 -109.5t-50.5 -82t-78 -51.5t-99.5 -18q-39 0 -81 13.5t-74 49.5v-266h-145z" />
    <glyph glyph-name="q" unicode="q" horiz-adv-x="640" 
d="M299 117q25 0 48.5 8.5t42.5 25t30.5 40.5t11.5 55q0 35 -11.5 59.5t-30.5 39.5t-43 22t-48 7q-29 0 -51.5 -10t-38 -27.5t-23.5 -41t-8 -49.5q0 -57 32 -93t89 -36zM434 -218v271q-32 -38 -74 -53t-81 -15q-54 0 -99.5 18.5t-78 52.5t-50.5 82t-18 108q0 57 17.5 104.5
t50 81.5t77.5 53t99 19q46 0 87.5 -14t76.5 -60l9 63h129v-711h-145z" />
    <glyph glyph-name="r" unicode="r" horiz-adv-x="454" 
d="M195 493l11 -54q25 35 57.5 50.5t74.5 15.5q70 0 121 -45l-60 -114q-34 25 -79 25q-23 0 -44 -7.5t-37 -22t-25 -35.5t-9 -49v-257h-144v493h134z" />
    <glyph glyph-name="s" unicode="s" horiz-adv-x="497" 
d="M372 353q-28 19 -55.5 27t-61.5 8q-35 0 -53 -11.5t-18 -28.5q0 -42 73 -43q36 -1 74 -7t69.5 -22.5t51.5 -47.5t20 -82q0 -29 -11.5 -58t-37.5 -52.5t-67 -38.5t-100 -15q-27 0 -55 3.5t-57 12.5t-59 25.5t-61 42.5l62 100q46 -36 89.5 -47.5t82.5 -12.5
q32 -1 53.5 10.5t20.5 29.5q0 17 -17 29.5t-67 14.5q-35 1 -71.5 9.5t-66.5 27t-49.5 48t-19.5 73.5q0 41 18 71t48 49.5t68 28.5t79 9q57 0 103.5 -15t85.5 -49z" />
    <glyph glyph-name="t" unicode="t" horiz-adv-x="419" 
d="M257 629v-138h125v-120h-126v-190q0 -39 18 -52.5t38 -13.5q13 0 30.5 3t29.5 9l33 -120q-27 -11 -51 -15.5t-53 -6.5q-40 -2 -74.5 7t-59.5 31.5t-39.5 61t-14.5 96.5v190h-88v120h88v122z" />
    <glyph glyph-name="u" unicode="u" 
d="M199 494v-267q0 -115 102 -115q25 0 45.5 10t35.5 26.5t23 38.5t8 46v261h142v-495h-130l-5 60q-33 -45 -74 -60.5t-86 -14.5q-42 0 -79 11t-65.5 38t-45 74t-16.5 119v268h145z" />
    <glyph glyph-name="v" unicode="v" horiz-adv-x="590" 
d="M295 150l58 163l71 181h162l-212 -497h-158l-212 497h162l71 -181z" />
    <glyph glyph-name="w" unicode="w" horiz-adv-x="845" 
d="M479 494l95 -315l32 112l69 203h161l-183 -497h-143l-88 247l-87 -247h-144l-182 497h161l69 -203l32 -112l95 315h113z" />
    <glyph glyph-name="x" unicode="x" horiz-adv-x="542" 
d="M353 493h172v-5l-157 -240l166 -245v-3h-172l-91 148l-90 -148h-173v3l167 245l-158 240v5h172l82 -147z" />
    <glyph glyph-name="y" unicode="y" horiz-adv-x="573" 
d="M568 494l-303 -716h-157l102 237l-207 479h162l123 -311l121 311h159z" />
    <glyph glyph-name="z" unicode="z" horiz-adv-x="479" 
d="M434 494v-70l-207 -291h217v-133h-417v61l217 308h-198v125h388z" />
    <glyph glyph-name="braceleft" unicode="{" horiz-adv-x="373" 
d="M334 -158q-57 -11 -101 -4t-74 28.5t-45.5 57t-15.5 81.5v149q0 12 -2 25.5t-9 24t-20.5 17.5t-36.5 7v106q23 0 36.5 7t20.5 17.5t9 24t2 25.5v142q0 98 59 146.5t177 26.5v-109q-45 9 -64 -7.5t-19 -64.5v-134v-42.5t-6 -35.5t-20.5 -28.5t-43.5 -21.5q29 -8 43.5 -20
t20.5 -28t6 -35.5v-42.5v-130q0 -24 3 -38.5t12 -22t25.5 -9t42.5 0.5v-113z" />
    <glyph glyph-name="bar" unicode="|" horiz-adv-x="282" 
d="M210 -74h-138v840h138v-840z" />
    <glyph glyph-name="braceright" unicode="}" horiz-adv-x="373" 
d="M39 -48q26 -2 42.5 0t25.5 9.5t12 22t3 38.5v130v42.5t6 35.5t20.5 28t43.5 20q-29 9 -43.5 21.5t-20.5 28t-6 35v43.5v134q0 48 -19 61t-64 7v113q118 22 177 -26.5t59 -146.5v-142q0 -12 2 -25.5t9 -24t20.5 -17.5t36.5 -7v-106q-23 0 -36.5 -7t-20.5 -17.5t-9 -24
t-2 -25.5v-149q0 -46 -15.5 -81.5t-45.5 -57t-74 -28.5t-101 4v112z" />
    <glyph glyph-name="asciitilde" unicode="~" horiz-adv-x="622" 
d="M570 356q-17 -71 -57.5 -107.5t-94.5 -38.5q-30 -1 -55 10.5t-48.5 25.5t-47 25.5t-50.5 10.5q-16 -1 -32.5 -12.5t-29.5 -42.5l-100 34q7 29 21 54t34 44t46.5 30.5t58.5 12.5q28 1 52 -8t45.5 -21t42 -24t43.5 -18q23 -3 37.5 12.5t25.5 43.5z" />
    <glyph glyph-name="exclamdown" unicode="&#xa1;" horiz-adv-x="281" 
d="M63 -181l4 488h148q0 -124 1.5 -243.5t1.5 -244.5h-155zM228 437q0 -44 -27.5 -66t-60.5 -22t-60.5 22t-27.5 66q0 29 13 48.5t32.5 29t42.5 9.5t42.5 -9.5t32.5 -29t13 -48.5z" />
    <glyph glyph-name="cent" unicode="&#xa2;" horiz-adv-x="549" 
d="M513 47q-29 -30 -61.5 -45.5t-74.5 -24.5v-76h-132v78q-43 12 -79.5 33.5t-63.5 53t-42 73t-15 94.5q0 97 54 162.5t146 91.5v77h132v-76q72 -17 126 -69l-82 -89q-22 23 -48.5 29.5t-54.5 6.5q-25 0 -48.5 -10t-41.5 -27.5t-29 -42t-11 -53.5q0 -30 11 -54t29 -41
t41.5 -26.5t48.5 -9.5q26 0 56 11.5t50 35.5z" />
    <glyph glyph-name="sterling" unicode="&#xa3;" horiz-adv-x="661" 
d="M259 472q0 -22 3.5 -41t8.5 -41h198v-125h-170q0 -12 -2.5 -31.5t-9.5 -39t-19 -34.5t-31 -19h377v-141h-561v142q28 1 45.5 11t28 27t14.5 39t5 46h-93v125h69q-14 42 -15 81q-2 52 14 96t48 76t80.5 50.5t110.5 18.5q55 0 100 -14.5t76.5 -42t48 -68.5t15.5 -95h-135
q0 24 -9 40.5t-23.5 26.5t-33.5 14t-39 4q-40 0 -70.5 -26.5t-30.5 -78.5z" />
    <glyph glyph-name="currency" unicode="&#xa4;" horiz-adv-x="621" 
d="M309 213q47 0 72 27t25 73t-25 73t-72 27q-43 0 -70.5 -27t-27.5 -73t27.5 -73t70.5 -27zM163 59l-109 108l57 56q-19 48 -16.5 90.5t22.5 86.5l-63 59l109 109l58 -58q22 7 45 10t45 3q43 0 87 -15l60 60l108 -109l-58 -57q36 -92 2 -179l56 -56l-106 -106l-59 57
q-24 -8 -47.5 -10.5t-44.5 -2.5q-46 0 -89 13z" />
    <glyph glyph-name="yen" unicode="&#xa5;" horiz-adv-x="760" 
d="M148 209h150v58h-150v107h94l-213 318v8h176l88 -142l82 -145l86 144l93 143h179v-8l-223 -318h92v-107h-151v-58h151v-107h-151v-102h-153v102h-150v107z" />
    <glyph glyph-name="brokenbar" unicode="&#xa6;" horiz-adv-x="292" 
d="M73 341v370h146v-370h-146zM219 279v-371h-146v371h146z" />
    <glyph glyph-name="section" unicode="&#xa7;" horiz-adv-x="615" 
d="M124 171q45 -44 88 -59t92 -14q23 0 45 2.5t39 8.5t27 15.5t10 23.5q0 21 -32.5 30t-84.5 8q-45 -1 -91 7t-83 26.5t-59 48.5t-19 74q1 25 18.5 54t57.5 43q-20 7 -33 20t-21 28t-11.5 31t-3.5 30q0 48 26.5 79t66 48.5t85.5 24.5t84 7q27 0 57.5 -4t61 -14t58 -25.5
t48.5 -39.5l-86 -71q-32 23 -65 32t-78 10q-23 0 -44.5 -2t-38.5 -7.5t-27.5 -15t-10.5 -22.5q0 -14 11 -22.5t27.5 -13t36.5 -6.5t38 -2q42 0 88 -5.5t83.5 -22.5t60 -48t18.5 -81q-3 -28 -22.5 -55t-52.5 -41q38 -17 56 -44.5t18 -59.5q0 -52 -28 -84.5t-68.5 -50.5
t-86 -24.5t-79.5 -6.5q-74 0 -140.5 24.5t-110.5 75.5zM427 347q0 13 -10 23t-26 16.5t-36.5 10t-41.5 3.5q-22 0 -43.5 -3t-39 -9.5t-28 -16.5t-10.5 -23t9 -22.5t24.5 -16t35.5 -10t42 -3.5q15 0 36 1.5t40.5 7.5t33.5 16t14 26z" />
    <glyph glyph-name="dieresis" unicode="&#xa8;" horiz-adv-x="526" 
d="M59 648q0 26 12 43.5t29.5 26.5t38 9t38 -9t29.5 -26.5t12 -43.5t-12 -43.5t-29.5 -26t-38 -8.5t-38 8.5t-29.5 26t-12 43.5zM319 648q0 26 12 43.5t29.5 26.5t38 9t38 -9t29.5 -26.5t12 -43.5t-12 -43.5t-29.5 -26t-38 -8.5t-38 8.5t-29.5 26t-12 43.5z" />
    <glyph glyph-name="copyright" unicode="&#xa9;" horiz-adv-x="827" 
d="M418 721q87 0 155 -27.5t114.5 -76.5t71 -116t24.5 -145q0 -79 -24.5 -146t-71 -115.5t-114.5 -76t-155 -27.5q-86 0 -155.5 27.5t-118 76t-74.5 115.5t-26 146q0 76 26 142.5t74.5 116t118 78t155.5 28.5zM230 352q3 48 19.5 84t43.5 61t62.5 37.5t74.5 12.5
q85 0 150 -63l-67 -66q-14 13 -35.5 21.5t-42.5 8.5q-39 0 -69 -23t-30 -73q0 -23 8.5 -39.5t22.5 -27.5t31.5 -16.5t36.5 -5.5q47 0 80 33l68 -68q-37 -36 -76 -50.5t-81 -14.5q-38 0 -73.5 12.5t-62.5 36.5t-43.5 59t-16.5 81zM154 356q0 -60 19 -109.5t53.5 -84.5
t83 -54.5t108.5 -19.5t107.5 19t80.5 54t50.5 84.5t17.5 110.5t-17.5 110t-50.5 84t-80.5 54t-107.5 19t-108.5 -20t-83 -55t-53.5 -84.5t-19 -107.5z" />
    <glyph glyph-name="ordfeminine" unicode="&#xaa;" horiz-adv-x="441" 
d="M297 700h101v-323h-104l-4 47q-14 -29 -43 -42.5t-57 -13.5q-35 0 -65.5 10.5t-53 31.5t-35 53t-12.5 76q0 43 13 75t36 53t54 31.5t67 10.5q32 0 58 -13t38 -35zM205 612q-29 0 -50 -19t-21 -54q0 -36 21 -54.5t50 -18.5q23 0 38.5 11t23.5 27t8 35t-8 35t-23.5 27
t-38.5 11zM38 321h364v-98h-364v98z" />
    <glyph glyph-name="guillemotleft" unicode="&#xab;" horiz-adv-x="563" 
d="M169 519h153v1l-139 -223q35 -57 68.5 -112.5t70.5 -110.5h-153l-139 223zM375 519h154v1l-139 -223l139 -223h-154l-139 223z" />
    <glyph glyph-name="logicalnot" unicode="&#xac;" horiz-adv-x="543" 
d="M473 144h-121v124h-288v120h409v-244z" />
    <glyph glyph-name="registered" unicode="&#xae;" horiz-adv-x="827" 
d="M588 170h-111l-60 108h-42v-108h-103v362h166q43 0 73 -15t47 -38t22 -51t-2 -54t-25.5 -46.5t-47.5 -28.5zM373 443v-81h70q19 0 28 12.5t9 28t-9.5 28t-28.5 12.5h-69zM418 721q87 0 155 -27.5t114.5 -76.5t71 -116t24.5 -145q0 -79 -24.5 -146t-71 -115.5t-114.5 -76
t-155 -27.5q-86 0 -155.5 27.5t-118 76t-74.5 115.5t-26 146q0 76 26 142.5t74.5 116t118 78t155.5 28.5zM154 356q0 -60 19 -109.5t53.5 -84.5t83 -54.5t108.5 -19.5t107.5 19t80.5 54t50.5 84.5t17.5 110.5t-17.5 110t-50.5 84t-80.5 54t-107.5 19t-108.5 -20t-83 -55
t-53.5 -84.5t-19 -107.5z" />
    <glyph glyph-name="macron" unicode="&#xaf;" horiz-adv-x="453" 
d="M50 702h359v-119h-359v119z" />
    <glyph glyph-name="degree" unicode="&#xb0;" horiz-adv-x="365" 
d="M182 633q-31 0 -46.5 -18.5t-15.5 -40t15 -40t46 -18.5t47 18.5t16 40t-15.5 40t-46.5 18.5zM182 710q47 0 78.5 -20t47 -50t16 -65t-15.5 -65t-48 -50t-80 -20q-47 0 -78.5 20t-47 50t-15.5 65t16 65t47.5 50t79.5 20z" />
    <glyph glyph-name="plusminus" unicode="&#xb1;" horiz-adv-x="546" 
d="M63 447h140v143h140v-143h140v-135h-140v-142h-140v142h-140v135zM61 137h424v-126h-424v126z" />
    <glyph glyph-name="twosuperior" unicode="&#xb2;" horiz-adv-x="376" 
d="M37 649q0 28 13 50t33.5 37t47 22.5t54.5 7.5q33 0 61.5 -7.5t49 -23t32.5 -38.5t12 -54q0 -37 -15.5 -59t-39 -34.5t-50.5 -19t-50.5 -12t-39 -13.5t-15.5 -23h207v-96h-302v96q0 36 15 57.5t37.5 33.5t49 18.5t49 12.5t37.5 14t15 25t-15 25.5t-33.5 9t-35 -7
t-19.5 -21.5h-98z" />
    <glyph glyph-name="threesuperior" unicode="&#xb3;" horiz-adv-x="385" 
d="M190 538h-58v75h54q30 0 43 10t13 25q0 16 -15.5 24t-40.5 9q-21 1 -39 -5.5t-21 -22.5h-89q0 30 13.5 51.5t35.5 35t49 20t53 6.5q27 0 54 -7t49.5 -22t36.5 -37.5t14 -52.5q0 -23 -11 -42t-37 -30q26 -8 42 -31t16 -50q0 -36 -15.5 -58.5t-39.5 -35.5t-52.5 -18
t-55.5 -5t-55 6.5t-51 21t-38 36.5t-15 53h105q2 -17 18 -22.5t35 -5.5q21 0 39 9t18 28q0 16 -14.5 25.5t-40.5 9.5z" />
    <glyph glyph-name="acute" unicode="&#xb4;" horiz-adv-x="278" 
d="M257 692l-116 -141h-126v7l74 140h168v-6z" />
    <glyph glyph-name="mu" unicode="&#xb5;" horiz-adv-x="619" 
d="M443 0l-15 51q-14 -36 -44 -54t-64 -20q-35 -2 -66 14.5t-46 50.5v-255h-138v707h145v-272q0 -27 8.5 -47.5t23 -34t32.5 -20.5t37 -7t38 7t34 22t24.5 37.5t9.5 53.5v261h146v-494h-125z" />
    <glyph glyph-name="mu" unicode="&#x3bc;" horiz-adv-x="619" 
d="M443 0l-15 51q-14 -36 -44 -54t-64 -20q-35 -2 -66 14.5t-46 50.5v-255h-138v707h145v-272q0 -27 8.5 -47.5t23 -34t32.5 -20.5t37 -7t38 7t34 22t24.5 37.5t9.5 53.5v261h146v-494h-125z" />
    <glyph glyph-name="paragraph" unicode="&#xb6;" horiz-adv-x="856" 
d="M425 -212h-157v400q-64 5 -110.5 29.5t-75.5 61.5t-41.5 82.5t-8.5 92.5t24 91t55.5 78.5t86 55.5t115.5 21h500v-148h-85v-764h-157v764h-146v-764z" />
    <glyph glyph-name="periodcentered" unicode="&#xb7;" horiz-adv-x="278" 
d="M52 297q0 29 13 48t32 28.5t42 9.5t42 -9.5t32 -28.5t13 -48t-13 -47.5t-32 -28.5t-42 -9.5t-42 10t-32 28t-13 47.5z" />
    <glyph glyph-name="cedilla" unicode="&#xb8;" horiz-adv-x="364" 
d="M112 -123q8 -10 25.5 -18.5t36 -11.5t34 2t19.5 22q3 14 -5 25t-22.5 16.5t-31 4t-29.5 -11.5l-32 24l35 96h103l-17 -49q35 -2 57 -14t34 -29t15 -37.5t0 -39.5q-5 -34 -23 -56t-44.5 -33t-58 -12t-61 7t-55.5 24.5t-41 39.5z" />
    <glyph glyph-name="onesuperior" unicode="&#xb9;" horiz-adv-x="285" 
d="M35 474h62v172l-52 -11v84l152 40v-285h64v-87h-226v87z" />
    <glyph glyph-name="ordmasculine" unicode="&#xba;" horiz-adv-x="425" 
d="M35 317h356v-99h-356v99zM212 365q-39 0 -72.5 11t-57.5 32.5t-38 54t-14 76.5q0 43 13.5 75t38 53t58 31.5t72.5 10.5q40 0 73.5 -10.5t57.5 -31.5t37.5 -53t13.5 -75q0 -44 -13.5 -76.5t-38 -54t-58 -32.5t-72.5 -11zM212 466q29 0 50.5 18.5t21.5 54.5q0 35 -21.5 54
t-50.5 19t-50.5 -19t-21.5 -54q0 -36 21.5 -54.5t50.5 -18.5z" />
    <glyph glyph-name="guillemotright" unicode="&#xbb;" horiz-adv-x="562" 
d="M532 299l-139 -222h-154l139 222l-139 223v-1h154zM327 299l-139 -222h-153l139 222l-139 223v-1h153z" />
    <glyph glyph-name="onequarter" unicode="&#xbc;" horiz-adv-x="805" 
d="M726 370v-222h45v-87h-45v-61h-96v61h-197l-4 86l167 223h130zM630 273l-99 -125h99v125zM135 -1l390 709h122l-392 -709h-120zM45 418h62v171l-53 -11v84l153 40v-284h63v-88h-225v88z" />
    <glyph glyph-name="onehalf" unicode="&#xbd;" horiz-adv-x="818" 
d="M132 -2l390 710h122l-392 -710h-120zM41 417h62v172l-52 -12v85l152 40v-285h64v-88h-226v88zM479 258q0 28 13 50t33.5 37t47 22.5t54.5 7.5q33 0 61.5 -7.5t49 -23t32.5 -38.5t12 -54q0 -37 -15.5 -59t-39 -34.5t-50.5 -19t-50.5 -12t-39 -13.5t-15.5 -23h207v-96h-302
v96q0 36 15 57.5t37.5 33.5t49 18.5t49 12.5t37.5 14t15 25t-15 25.5t-33.5 9t-35 -7t-19.5 -21.5h-98z" />
    <glyph glyph-name="threequarters" unicode="&#xbe;" horiz-adv-x="843" 
d="M134 495v72h51q28 0 39.5 4.5t13.5 27.5q0 2 -1.5 7.5t-7 11t-15.5 9.5t-28 4q-23 0 -36.5 -4.5t-20.5 -21.5h-87q0 28 13.5 48.5t34.5 34t47 19.5t51 6t51.5 -7t47.5 -21t35 -35.5t14 -50.5q0 -18 -10.5 -39.5t-33.5 -28.5q25 -8 38.5 -29t13.5 -43q0 -33 -15 -55.5
t-38.5 -36.5t-51.5 -20t-54 -6q-25 0 -51.5 6t-48 19.5t-35.5 35t-14 51.5h100q8 -11 20 -18t33 -7t37 7.5t16 20.5q0 17 -10.5 28t-42.5 11h-55zM176 -6l393 714h122l-394 -714h-121zM763 370v-222h45v-87h-45v-61h-96v61h-197l-4 86l167 223h130zM667 273l-99 -125h99v125
z" />
    <glyph glyph-name="questiondown" unicode="&#xbf;" horiz-adv-x="592" 
d="M398 426q0 -30 -13.5 -50.5t-34 -31t-44.5 -10.5t-44.5 10.5t-34 30.5t-13.5 51q0 30 13.5 50.5t34 30.5t44.5 10t44.5 -10t34 -30.5t13.5 -50.5zM563 19q-1 -55 -20.5 -97t-54.5 -71t-83.5 -44t-105.5 -15q-51 0 -95.5 10t-79 30.5t-57.5 51.5t-32 73q-10 51 1 85
t32.5 57.5t49.5 41t53 37t42 44.5t17 64h155q-1 -58 -16.5 -95t-38 -60.5t-48 -37.5t-46.5 -27.5t-33 -30.5t-8 -45q5 -31 34 -47t70 -16q45 0 75 25t32 67h157z" />
    <glyph glyph-name="Agrave" unicode="&#xc0;" horiz-adv-x="790" 
d="M0 0zM574 120h-359l-51 -120h-168l314 700h170l314 -700h-169zM395 542l-121 -284h241zM221 904h168l74 -140v-7h-126l-116 141v6z" />
    <glyph glyph-name="Aacute" unicode="&#xc1;" horiz-adv-x="790" 
d="M0 0zM574 120h-359l-51 -120h-168l314 700h170l314 -700h-169zM395 542l-121 -284h241zM562 898l-116 -141h-126v7l74 140h168v-6z" />
    <glyph glyph-name="Acircumflex" unicode="&#xc2;" horiz-adv-x="790" 
d="M0 0zM574 120h-359l-51 -120h-168l314 700h170l314 -700h-169zM395 542l-121 -284h241zM432 907l149 -140v-5h-140l-47 42l-46 -42h-141v5l150 140h75z" />
    <glyph glyph-name="Atilde" unicode="&#xc3;" horiz-adv-x="790" 
d="M0 0zM574 120h-359l-51 -120h-168l314 700h170l314 -700h-169zM395 542l-121 -284h241zM205 804q11 24 25 43.5t31.5 32.5t39.5 17t49 -3q18 -5 36.5 -14.5t34.5 -14t29.5 0.5t22.5 29l89 -44q-28 -65 -62 -85t-77 -5q-22 7 -41 17t-36 13.5t-31 -3.5t-25 -34z" />
    <glyph glyph-name="Adieresis" unicode="&#xc4;" horiz-adv-x="790" 
d="M0 0zM574 120h-359l-51 -120h-168l314 700h170l314 -700h-169zM395 542l-121 -284h241zM184 836q0 26 12 43.5t29.5 26.5t38 9t38 -9t29.5 -26.5t12 -43.5t-12 -43.5t-29.5 -26t-38 -8.5t-38 8.5t-29.5 26t-12 43.5zM444 836q0 26 12 43.5t29.5 26.5t38 9t38 -9
t29.5 -26.5t12 -43.5t-12 -43.5t-29.5 -26t-38 -8.5t-38 8.5t-29.5 26t-12 43.5z" />
    <glyph glyph-name="Aring" unicode="&#xc5;" horiz-adv-x="790" 
d="M574 120h-359l-51 -120h-168l312 697q-24 16 -39.5 42t-15.5 62q0 32 12.5 56t32.5 40t45.5 24t51.5 8q25 0 50 -8t45 -24t32 -40t12 -56q0 -36 -15.5 -61.5t-37.5 -42.5l313 -697h-169zM395 542l-121 -284h241zM392 851q-29 0 -43 -15t-14 -33.5t14.5 -33.5t42.5 -15
q29 0 43 15t13.5 33.5t-15 33.5t-41.5 15z" />
    <glyph glyph-name="AE" unicode="&#xc6;" horiz-adv-x="892" 
d="M849 0h-409v109h-222l-63 -109h-182l439 700h421v-136h-253v-144h236v-132h-236v-150h269v-138zM440 246l6 254l-148 -254h142z" />
    <glyph glyph-name="Ccedilla" unicode="&#xc7;" horiz-adv-x="699" 
d="M681 86q-51 -51 -114.5 -75.5t-135.5 -27.5l-14 -40q35 -2 57 -14t34 -29t15 -37.5t0 -39.5q-5 -34 -23 -56t-44.5 -33t-58 -12t-61 7t-55.5 24t-41 40l61 51q8 -10 25.5 -18.5t36 -11.5t34 2t19.5 22q3 14 -5 25t-22.5 16.5t-31 4t-29.5 -11.5l-32 24l34 93
q-78 12 -133 45.5t-90.5 81.5t-52 107t-16.5 123q0 68 22 134.5t68 119t116.5 85t167.5 32.5q72 0 137.5 -27t119.5 -81l-98 -97q-32 31 -74.5 44.5t-84.5 13.5q-60 0 -102 -21t-68 -53.5t-38 -72.5t-12 -78t11.5 -77t37.5 -70.5t68 -51t103 -19.5q21 0 44.5 4.5t46.5 13
t44 21t37 28.5z" />
    <glyph glyph-name="Egrave" unicode="&#xc8;" horiz-adv-x="656" 
d="M78 0zM611 0h-533v700h519v-143h-366v-135h345v-137h-345v-141h380v-144zM175 915h168l74 -140v-7h-126l-116 141v6z" />
    <glyph glyph-name="Eacute" unicode="&#xc9;" horiz-adv-x="656" 
d="M78 0zM611 0h-533v700h519v-143h-366v-135h345v-137h-345v-141h380v-144zM507 909l-116 -141h-126v7l74 140h168v-6z" />
    <glyph glyph-name="Ecircumflex" unicode="&#xca;" horiz-adv-x="656" 
d="M78 0zM611 0h-533v700h519v-143h-366v-135h345v-137h-345v-141h380v-144zM384 913l149 -140v-5h-140l-47 42l-46 -42h-141v5l150 140h75z" />
    <glyph glyph-name="Edieresis" unicode="&#xcb;" horiz-adv-x="656" 
d="M78 0zM611 0h-533v700h519v-143h-366v-135h345v-137h-345v-141h380v-144zM138 839q0 26 12 43.5t29.5 26.5t38 9t38 -9t29.5 -26.5t12 -43.5t-12 -43.5t-29.5 -26t-38 -8.5t-38 8.5t-29.5 26t-12 43.5zM398 839q0 26 12 43.5t29.5 26.5t38 9t38 -9t29.5 -26.5t12 -43.5
t-12 -43.5t-29.5 -26t-38 -8.5t-38 8.5t-29.5 26t-12 43.5z" />
    <glyph glyph-name="Igrave" unicode="&#xcc;" horiz-adv-x="311" 
d="M0 0zM78 0v700h155v-700h-155zM-15 909h168l74 -140v-7h-126l-116 141v6z" />
    <glyph glyph-name="Iacute" unicode="&#xcd;" horiz-adv-x="311" 
d="M78 0zM78 0v700h155v-700h-155zM325 899l-116 -141h-126v7l74 140h168v-6z" />
    <glyph glyph-name="Icircumflex" unicode="&#xce;" horiz-adv-x="311" 
d="M0 0zM78 0v700h155v-700h-155zM194 910l149 -140v-5h-140l-47 42l-46 -42h-141v5l150 140h75z" />
    <glyph glyph-name="Idieresis" unicode="&#xcf;" horiz-adv-x="311" 
d="M0 0zM78 0v700h155v-700h-155zM-53 839q0 26 12 43.5t29.5 26.5t38 9t38 -9t29.5 -26.5t12 -43.5t-12 -43.5t-29.5 -26t-38 -8.5t-38 8.5t-29.5 26t-12 43.5zM207 839q0 26 12 43.5t29.5 26.5t38 9t38 -9t29.5 -26.5t12 -43.5t-12 -43.5t-29.5 -26t-38 -8.5t-38 8.5
t-29.5 26t-12 43.5z" />
    <glyph glyph-name="Eth" unicode="&#xd0;" horiz-adv-x="757" 
d="M15 411h68v289h287q90 0 156 -28t108.5 -75.5t63 -110t20.5 -131.5t-20 -133t-62 -113.5t-108 -79t-158 -29.5h-287v286h-68v125zM237 411h124v-125h-124v-142h133q57 0 94.5 19t59.5 49.5t31 68.5t9 76q0 37 -10 73.5t-32.5 65t-59.5 46t-92 17.5h-133v-148z" />
    <glyph glyph-name="Ntilde" unicode="&#xd1;" horiz-adv-x="790" 
d="M78 0zM565 245l-10 220v235h157v-700h-134l-348 448l6 -230v-218h-158v700h134zM192.594 812.554q11.6738 25.4365 26.5312 46.1045q14.8584 20.668 33.4307 34.4463t41.9209 18.0176q23.3477 4.23926 52.002 -3.17969q19.1035 -5.2998 38.7373 -15.3682
t36.6143 -14.8379t31.3076 0.529297q14.3271 5.2998 23.8779 30.7363l94.4541 -46.6338q-29.7158 -68.8926 -65.7988 -90.0898q-36.084 -21.1973 -81.7188 -5.2998q-23.3486 7.41992 -43.5127 18.0186t-38.2061 14.3076q-18.042 3.70996 -32.8994 -3.70898
t-26.5322 -36.0361z" />
    <glyph glyph-name="Ograve" unicode="&#xd2;" horiz-adv-x="832" 
d="M38 0zM794 350q0 -86 -27.5 -154t-77.5 -115t-119.5 -72.5t-153.5 -25.5t-153.5 25.5t-119.5 72.5t-77.5 115t-27.5 154q0 85 27.5 153.5t77.5 115.5t119.5 72.5t153.5 25.5t153.5 -25.5t119.5 -72.5t77.5 -115.5t27.5 -153.5zM641 350q0 48 -16 89.5t-45.5 72t-71 48
t-92.5 17.5q-50 0 -91.5 -17.5t-71 -48.5t-46 -72t-16.5 -89q0 -49 16.5 -90.5t46 -71.5t71 -47t91.5 -17q51 0 92.5 17t71 47t45.5 71.5t16 90.5zM238 919h168l74 -140v-7h-126l-116 141v6z" />
    <glyph glyph-name="Oacute" unicode="&#xd3;" horiz-adv-x="832" 
d="M38 0zM794 350q0 -86 -27.5 -154t-77.5 -115t-119.5 -72.5t-153.5 -25.5t-153.5 25.5t-119.5 72.5t-77.5 115t-27.5 154q0 85 27.5 153.5t77.5 115.5t119.5 72.5t153.5 25.5t153.5 -25.5t119.5 -72.5t77.5 -115.5t27.5 -153.5zM641 350q0 48 -16 89.5t-45.5 72t-71 48
t-92.5 17.5q-50 0 -91.5 -17.5t-71 -48.5t-46 -72t-16.5 -89q0 -49 16.5 -90.5t46 -71.5t71 -47t91.5 -17q51 0 92.5 17t71 47t45.5 71.5t16 90.5zM582 916l-116 -141h-126v7l74 140h168v-6z" />
    <glyph glyph-name="Ocircumflex" unicode="&#xd4;" horiz-adv-x="832" 
d="M38 0zM794 350q0 -86 -27.5 -154t-77.5 -115t-119.5 -72.5t-153.5 -25.5t-153.5 25.5t-119.5 72.5t-77.5 115t-27.5 154q0 85 27.5 153.5t77.5 115.5t119.5 72.5t153.5 25.5t153.5 -25.5t119.5 -72.5t77.5 -115.5t27.5 -153.5zM641 350q0 48 -16 89.5t-45.5 72t-71 48
t-92.5 17.5q-50 0 -91.5 -17.5t-71 -48.5t-46 -72t-16.5 -89q0 -49 16.5 -90.5t46 -71.5t71 -47t91.5 -17q51 0 92.5 17t71 47t45.5 71.5t16 90.5zM454 920l149 -140v-5h-140l-47 42l-46 -42h-141v5l150 140h75z" />
    <glyph glyph-name="Otilde" unicode="&#xd5;" horiz-adv-x="832" 
d="M38 0zM794 350q0 -86 -27.5 -154t-77.5 -115t-119.5 -72.5t-153.5 -25.5t-153.5 25.5t-119.5 72.5t-77.5 115t-27.5 154q0 85 27.5 153.5t77.5 115.5t119.5 72.5t153.5 25.5t153.5 -25.5t119.5 -72.5t77.5 -115.5t27.5 -153.5zM641 350q0 48 -16 89.5t-45.5 72t-71 48
t-92.5 17.5q-50 0 -91.5 -17.5t-71 -48.5t-46 -72t-16.5 -89q0 -49 16.5 -90.5t46 -71.5t71 -47t91.5 -17q51 0 92.5 17t71 47t45.5 71.5t16 90.5zM228.231 823.251q11.5205 25.1504 26.1846 45.585q14.6621 20.4336 32.9912 34.0566t41.3711 17.8145t51.3213 -3.14355
q18.8516 -5.23926 38.2285 -15.1943q19.376 -9.95508 36.1338 -14.6709t30.8975 0.523438q14.1387 5.24023 23.5654 30.3896l93.2158 -46.1084q-29.3262 -68.1143 -64.9375 -89.0723q-35.6094 -20.958 -80.6465 -5.23926q-23.042 7.33496 -42.9414 17.8145
q-19.9004 10.4785 -37.7051 14.1465q-17.8057 3.66797 -32.4688 -3.66797q-14.6631 -7.33496 -26.1836 -35.6289z" />
    <glyph glyph-name="Odieresis" unicode="&#xd6;" horiz-adv-x="832" 
d="M38 0zM794 350q0 -86 -27.5 -154t-77.5 -115t-119.5 -72.5t-153.5 -25.5t-153.5 25.5t-119.5 72.5t-77.5 115t-27.5 154q0 85 27.5 153.5t77.5 115.5t119.5 72.5t153.5 25.5t153.5 -25.5t119.5 -72.5t77.5 -115.5t27.5 -153.5zM641 350q0 48 -16 89.5t-45.5 72t-71 48
t-92.5 17.5q-50 0 -91.5 -17.5t-71 -48.5t-46 -72t-16.5 -89q0 -49 16.5 -90.5t46 -71.5t71 -47t91.5 -17q51 0 92.5 17t71 47t45.5 71.5t16 90.5zM209 846q0 26 12 43.5t29.5 26.5t38 9t38 -9t29.5 -26.5t12 -43.5t-12 -43.5t-29.5 -26t-38 -8.5t-38 8.5t-29.5 26t-12 43.5
zM469 846q0 26 12 43.5t29.5 26.5t38 9t38 -9t29.5 -26.5t12 -43.5t-12 -43.5t-29.5 -26t-38 -8.5t-38 8.5t-29.5 26t-12 43.5z" />
    <glyph glyph-name="multiply" unicode="&#xd7;" horiz-adv-x="460" 
d="M232 406l89 89l89 -89l-93 -94l92 -91l-89 -85l-90 90l-87 -90l-93 92l89 87l-87 88l96 92z" />
    <glyph glyph-name="Oslash" unicode="&#xd8;" horiz-adv-x="798" 
d="M762 348q0 -86 -26.5 -154.5t-74 -116t-114 -73t-147.5 -25.5q-37 0 -71 5.5t-65 15.5l-43 -70h-149l81 134q-55 48 -85 119.5t-30 164.5q0 86 26.5 154.5t74.5 116t114.5 73t146.5 25.5q75 0 139 -23l44 73h150l-84 -137q54 -48 83.5 -119t29.5 -163zM185 348
q0 -45 13 -83.5t36 -67.5l227 371q-30 8 -61 8q-48 0 -87.5 -17.5t-68 -48.5t-44 -72.5t-15.5 -89.5zM616 348q0 89 -48 149l-226 -369q25 -7 58 -7q49 0 89 17t68 47t43.5 71.5t15.5 91.5z" />
    <glyph glyph-name="Ugrave" unicode="&#xd9;" horiz-adv-x="774" 
d="M68 0zM706 699v-391q0 -80 -22 -140.5t-63 -101.5t-98.5 -62t-129.5 -21q-66 0 -125.5 19.5t-103.5 59.5t-70 101.5t-26 144.5v391h155v-391q0 -91 45.5 -138t126.5 -47q43 0 73 14t48.5 38.5t26.5 58.5t8 74v391h155zM223 910h168l74 -140v-7h-126l-116 141v6z" />
    <glyph glyph-name="Uacute" unicode="&#xda;" horiz-adv-x="774" 
d="M68 0zM706 699v-391q0 -80 -22 -140.5t-63 -101.5t-98.5 -62t-129.5 -21q-66 0 -125.5 19.5t-103.5 59.5t-70 101.5t-26 144.5v391h155v-391q0 -91 45.5 -138t126.5 -47q43 0 73 14t48.5 38.5t26.5 58.5t8 74v391h155zM545 903l-116 -141h-126v7l74 140h168v-6z" />
    <glyph glyph-name="Ucircumflex" unicode="&#xdb;" horiz-adv-x="774" 
d="M68 0zM706 699v-391q0 -80 -22 -140.5t-63 -101.5t-98.5 -62t-129.5 -21q-66 0 -125.5 19.5t-103.5 59.5t-70 101.5t-26 144.5v391h155v-391q0 -91 45.5 -138t126.5 -47q43 0 73 14t48.5 38.5t26.5 58.5t8 74v391h155zM426 913l149 -140v-5h-140l-47 42l-46 -42h-141v5
l150 140h75z" />
    <glyph glyph-name="Udieresis" unicode="&#xdc;" horiz-adv-x="774" 
d="M68 0zM706 699v-391q0 -80 -22 -140.5t-63 -101.5t-98.5 -62t-129.5 -21q-66 0 -125.5 19.5t-103.5 59.5t-70 101.5t-26 144.5v391h155v-391q0 -91 45.5 -138t126.5 -47q43 0 73 14t48.5 38.5t26.5 58.5t8 74v391h155zM183 839q0 26 12 43.5t29.5 26.5t38 9t38 -9
t29.5 -26.5t12 -43.5t-12 -43.5t-29.5 -26t-38 -8.5t-38 8.5t-29.5 26t-12 43.5zM443 839q0 26 12 43.5t29.5 26.5t38 9t38 -9t29.5 -26.5t12 -43.5t-12 -43.5t-29.5 -26t-38 -8.5t-38 8.5t-29.5 26t-12 43.5z" />
    <glyph glyph-name="Yacute" unicode="&#xdd;" horiz-adv-x="704" 
d="M4 0zM352 422l177 278h179v-8l-280 -414v-278h-156v278l-268 414v8h180zM510 907l-116 -141h-126v7l74 140h168v-6z" />
    <glyph glyph-name="Thorn" unicode="&#xde;" horiz-adv-x="686" 
d="M79 699h154v-112h166q88 0 147.5 -35t89 -87.5t29.5 -113.5t-29.5 -113.5t-88.5 -87.5t-148 -35h-165v-115h-156zM234 254h165q37 0 62 14t37.5 35.5t12.5 46t-12.5 46t-37.5 35.5t-62 14h-165v-191z" />
    <glyph glyph-name="germandbls" unicode="&#xdf;" horiz-adv-x="632" 
d="M270 -1q0 33 -0.5 60t-0.5 59q59 -12 94.5 -4.5t54 24.5t24.5 39.5t6 40.5q0 30 -11.5 51t-30 33.5t-42.5 18t-49 5.5h-44v137h33q46 0 70.5 14.5t24.5 40.5q0 21 -13.5 35t-33.5 21t-43.5 6.5t-44 -8.5t-34.5 -23.5t-15 -37.5v-511h-154v513q0 48 21 84.5t55.5 61.5
t78.5 38t90 13.5t90 -10.5t78.5 -34.5t55.5 -59.5t21 -85q0 -19 -5.5 -39t-18 -37.5t-32 -31t-47.5 -19.5q38 -8 66.5 -25t47.5 -40.5t28.5 -51t9.5 -57.5q0 -76 -27 -125t-72 -74.5t-105 -29.5t-126 8z" />
    <glyph glyph-name="agrave" unicode="&#xe0;" horiz-adv-x="639" 
d="M33 0zM443 494h135v-494h-130l-8 62q-12 -21 -30.5 -35.5t-39.5 -24t-42.5 -13.5t-39.5 -4q-56 0 -102.5 18t-80.5 52t-53 82.5t-19 109.5t20 109.5t55 82t82 50.5t102 16q48 0 87 -17.5t59 -50.5zM307 378q-27 0 -50.5 -9t-41.5 -26t-28 -41t-10 -55t10 -55t28 -40.5
t41.5 -25.5t50.5 -9q30 0 54.5 11t41.5 28.5t26 40t9 45.5q0 27 -8.5 51.5t-25 43t-41 30t-56.5 11.5zM149 715h168l74 -140v-7h-126l-116 141v6z" />
    <glyph glyph-name="aacute" unicode="&#xe1;" horiz-adv-x="639" 
d="M33 0zM443 494h135v-494h-130l-8 62q-12 -21 -30.5 -35.5t-39.5 -24t-42.5 -13.5t-39.5 -4q-56 0 -102.5 18t-80.5 52t-53 82.5t-19 109.5t20 109.5t55 82t82 50.5t102 16q48 0 87 -17.5t59 -50.5zM307 378q-27 0 -50.5 -9t-41.5 -26t-28 -41t-10 -55t10 -55t28 -40.5
t41.5 -25.5t50.5 -9q30 0 54.5 11t41.5 28.5t26 40t9 45.5q0 27 -8.5 51.5t-25 43t-41 30t-56.5 11.5zM474 709l-116 -141h-126v7l74 140h168v-6z" />
    <glyph glyph-name="acircumflex" unicode="&#xe2;" horiz-adv-x="639" 
d="M33 0zM443 494h135v-494h-130l-8 62q-12 -21 -30.5 -35.5t-39.5 -24t-42.5 -13.5t-39.5 -4q-56 0 -102.5 18t-80.5 52t-53 82.5t-19 109.5t20 109.5t55 82t82 50.5t102 16q48 0 87 -17.5t59 -50.5zM307 378q-27 0 -50.5 -9t-41.5 -26t-28 -41t-10 -55t10 -55t28 -40.5
t41.5 -25.5t50.5 -9q30 0 54.5 11t41.5 28.5t26 40t9 45.5q0 27 -8.5 51.5t-25 43t-41 30t-56.5 11.5zM377 714l149 -140v-5h-140l-47 42l-46 -42h-141v5l150 140h75z" />
    <glyph glyph-name="atilde" unicode="&#xe3;" horiz-adv-x="639" 
d="M146 627q12 25 26.5 45.5t33 33t41 16.5t49.5 -4q19 -5 37 -15.5t34.5 -16t30 -0.5t23.5 30l89 -48q-29 -66 -64 -86.5t-78 -3.5q-22 7 -41.5 17.5t-36.5 14.5t-32 -3t-27 -34zM443 494h135v-494h-130l-8 62q-12 -21 -30.5 -35.5t-39.5 -24t-42.5 -13.5t-39.5 -4
q-56 0 -102.5 18t-80.5 52t-53 82.5t-19 109.5t20 109.5t55 82t82 50.5t102 16q48 0 87 -17.5t59 -50.5zM307 378q-27 0 -50.5 -9t-41.5 -26t-28 -41t-10 -55t10 -55t28 -40.5t41.5 -25.5t50.5 -9q30 0 54.5 11t41.5 28.5t26 40t9 45.5q0 27 -8.5 51.5t-25 43t-41 30
t-56.5 11.5z" />
    <glyph glyph-name="adieresis" unicode="&#xe4;" horiz-adv-x="639" 
d="M33 0zM443 494h135v-494h-130l-8 62q-12 -21 -30.5 -35.5t-39.5 -24t-42.5 -13.5t-39.5 -4q-56 0 -102.5 18t-80.5 52t-53 82.5t-19 109.5t20 109.5t55 82t82 50.5t102 16q48 0 87 -17.5t59 -50.5zM307 378q-27 0 -50.5 -9t-41.5 -26t-28 -41t-10 -55t10 -55t28 -40.5
t41.5 -25.5t50.5 -9q30 0 54.5 11t41.5 28.5t26 40t9 45.5q0 27 -8.5 51.5t-25 43t-41 30t-56.5 11.5zM137.746 647.104q0 23.5156 11.541 39.3447q11.542 15.8281 28.373 23.9688q16.8311 8.13965 36.5479 8.13965t36.5479 -8.13965q16.832 -8.14062 28.373 -23.9688
q11.542 -15.8291 11.542 -39.3447q0 -23.5166 -11.542 -39.3457q-11.541 -15.8281 -28.373 -23.5166q-16.8311 -7.6875 -36.5479 -7.6875t-36.5479 7.6875q-16.8311 7.68848 -28.373 23.5166q-11.541 15.8291 -11.541 39.3457zM387.812 647.104q0 23.5156 11.542 39.3447
q11.541 15.8281 28.3721 23.9688q16.832 8.13965 36.5488 8.13965t36.5479 -8.13965q16.8311 -8.14062 28.373 -23.9688q11.541 -15.8291 11.541 -39.3447q0 -23.5166 -11.541 -39.3457q-11.542 -15.8281 -28.373 -23.5166q-16.8311 -7.6875 -36.5479 -7.6875
t-36.5488 7.6875q-16.8311 7.68848 -28.3721 23.5166q-11.542 15.8291 -11.542 39.3457z" />
    <glyph glyph-name="aring" unicode="&#xe5;" horiz-adv-x="639" 
d="M33 0zM443 494h135v-494h-130l-8 62q-12 -21 -30.5 -35.5t-39.5 -24t-42.5 -13.5t-39.5 -4q-56 0 -102.5 18t-80.5 52t-53 82.5t-19 109.5t20 109.5t55 82t82 50.5t102 16q48 0 87 -17.5t59 -50.5zM307 378q-27 0 -50.5 -9t-41.5 -26t-28 -41t-10 -55t10 -55t28 -40.5
t41.5 -25.5t50.5 -9q30 0 54.5 11t41.5 28.5t26 40t9 45.5q0 27 -8.5 51.5t-25 43t-41 30t-56.5 11.5zM183.297 660.766q0 32.0469 12.8633 53.8574q12.8633 21.8096 33.6426 35.1621q20.7803 13.3535 46.5068 19.585q25.7275 6.23145 51.4541 6.23145
q24.7383 0 49.4756 -6.23145t44.5273 -20.0293q19.79 -13.7988 31.6641 -35.6084t11.874 -52.9668q0 -28.4863 -12.3691 -49.4062q-12.3682 -20.9189 -32.1582 -35.1621t-44.0332 -20.9199q-24.2422 -6.67676 -48.9805 -6.67676q-24.7373 0 -50.4648 5.78613
q-25.7266 5.78711 -46.5059 18.6943q-20.7793 12.9082 -34.1377 34.2725q-13.3584 21.3652 -13.3584 53.4121zM324.795 708.836q-28.6953 0 -42.5479 -14.6875q-13.8535 -14.6885 -13.8535 -32.0479q0 -17.3584 14.3477 -31.6016q14.3486 -14.2432 42.0537 -14.2432
q28.6963 0 42.5488 14.2432q13.8535 14.2432 13.3584 31.6016q-0.495117 17.3594 -14.8428 32.0479q-14.3477 14.6875 -41.0645 14.6875z" />
    <glyph glyph-name="ae" unicode="&#xe6;" horiz-adv-x="963" 
d="M564 205q6 -24 19 -41.5t31.5 -29.5t41 -18t45.5 -6q33 0 66.5 11t55.5 30l77 -92q-38 -41 -90 -58t-109 -17q-43 0 -85.5 16t-68.5 53l-6 -53h-105l-1 62q-8 -20 -26 -33.5t-39.5 -22t-43.5 -13t-40 -4.5q-56 0 -102.5 15t-80 46.5t-52 80t-18.5 116.5q0 63 21 111
t55.5 81t80 49.5t94.5 16.5q45 0 85 -17t65 -51l5 56h108v-50q16 19 36 31.5t41.5 20t43 10.5t41.5 3q51 0 97 -20.5t78.5 -59.5t46 -95.5t-0.5 -127.5h-366zM306 379q-54 0 -91.5 -34t-37.5 -98t37.5 -98.5t91.5 -34.5q44 0 73.5 19.5t44.5 49t15 64t-15 64t-44.5 49
t-73.5 19.5zM797 311q-5 38 -33 55.5t-62 17.5q-51 0 -85 -19t-50 -54h230z" />
    <glyph glyph-name="ccedilla" unicode="&#xe7;" horiz-adv-x="509" 
d="M495 63q-40 -42 -83.5 -59t-86.5 -19l-9 -24q37 -3 59 -15.5t33 -29t13 -35t-1 -32.5q-4 -33 -21.5 -55t-42 -34t-54.5 -14.5t-59.5 4.5t-55.5 22t-44 38l59 58q8 -9 25 -17t35 -10.5t33.5 2t19.5 20.5q3 13 -4.5 24t-21.5 16.5t-31 5t-33 -10.5l-28 19l28 75
q-41 9 -76 29t-61 51.5t-41 74t-15 97.5q0 62 22 110.5t58.5 82t85.5 51t103 17.5t97.5 -14t81.5 -56l-80 -91q-23 17 -46.5 23t-46.5 6q-27 0 -50.5 -8.5t-41.5 -25t-28 -40.5t-10 -55q0 -30 10.5 -53t28 -38.5t40.5 -24t48 -8.5q24 0 53 9.5t47 27.5z" />
    <glyph glyph-name="egrave" unicode="&#xe8;" horiz-adv-x="577" 
d="M33 0zM179 197q5 -36 39 -62.5t95 -26.5q29 0 65.5 8t62.5 31l81 -90q-40 -39 -97.5 -56t-114.5 -17q-67 0 -118.5 19.5t-87 54.5t-53.5 83.5t-18 107.5q0 56 18.5 103t52.5 80.5t82.5 52.5t108.5 19q63 0 114 -19.5t84.5 -58t47 -96t1.5 -133.5h-363zM413 302
q-1 20 -11 35t-26.5 24.5t-37.5 14.5t-43 5q-45 0 -75 -21t-41 -58h234zM139 717h168l74 -140v-7h-126l-116 141v6z" />
    <glyph glyph-name="eacute" unicode="&#xe9;" horiz-adv-x="577" 
d="M33 0zM179 197q5 -36 39 -62.5t95 -26.5q29 0 65.5 8t62.5 31l81 -90q-40 -39 -97.5 -56t-114.5 -17q-67 0 -118.5 19.5t-87 54.5t-53.5 83.5t-18 107.5q0 56 18.5 103t52.5 80.5t82.5 52.5t108.5 19q63 0 114 -19.5t84.5 -58t47 -96t1.5 -133.5h-363zM413 302
q-1 20 -11 35t-26.5 24.5t-37.5 14.5t-43 5q-45 0 -75 -21t-41 -58h234zM452 706l-116 -141h-126v7l74 140h168v-6z" />
    <glyph glyph-name="ecircumflex" unicode="&#xea;" horiz-adv-x="577" 
d="M33 0zM179 197q5 -36 39 -62.5t95 -26.5q29 0 65.5 8t62.5 31l81 -90q-40 -39 -97.5 -56t-114.5 -17q-67 0 -118.5 19.5t-87 54.5t-53.5 83.5t-18 107.5q0 56 18.5 103t52.5 80.5t82.5 52.5t108.5 19q63 0 114 -19.5t84.5 -58t47 -96t1.5 -133.5h-363zM413 302
q-1 20 -11 35t-26.5 24.5t-37.5 14.5t-43 5q-45 0 -75 -21t-41 -58h234zM347 715l149 -140v-5h-140l-47 42l-46 -42h-141v5l150 140h75z" />
    <glyph glyph-name="edieresis" unicode="&#xeb;" horiz-adv-x="577" 
d="M104 642q0 37 24 56t53 19t53 -19t24 -56t-24 -55.5t-53 -18.5t-53 18.5t-24 55.5zM337 642q0 37 24 56t53 19t53 -19t24 -56t-24 -55.5t-53 -18.5t-53 18.5t-24 55.5zM179 197q5 -36 39 -62.5t95 -26.5q29 0 65.5 8t62.5 31l81 -90q-40 -39 -97.5 -56t-114.5 -17
q-67 0 -118.5 19.5t-87 54.5t-53.5 83.5t-18 107.5q0 56 18.5 103t52.5 80.5t82.5 52.5t108.5 19q63 0 114 -19.5t84.5 -58t47 -96t1.5 -133.5h-363zM413 302q-1 20 -11 35t-26.5 24.5t-37.5 14.5t-43 5q-45 0 -75 -21t-41 -58h234z" />
    <glyph glyph-name="igrave" unicode="&#xec;" horiz-adv-x="267" 
d="M2 699h157l49 -141v-7h-124l-82 142v6zM61 0v494h145v-494h-145z" />
    <glyph glyph-name="iacute" unicode="&#xed;" horiz-adv-x="267" 
d="M266 693l-82 -142h-124v7l49 141h157v-6zM61 0v494h145v-494h-145z" />
    <glyph glyph-name="icircumflex" unicode="&#xee;" horiz-adv-x="267" 
d="M0 0zM61 0v494h145v-494h-145zM166.64 711.589l131.466 -149.655v-5.34473h-123.525l-41.4688 44.8965l-40.5869 -44.8965h-124.407v5.34473l132.348 149.655h66.1748z" />
    <glyph glyph-name="idieresis" unicode="&#xef;" horiz-adv-x="267" 
d="M-29 633q0 24 11 40.5t27.5 24.5t36 8t36 -8t27.5 -24.5t11 -40.5q0 -25 -11 -41t-27.5 -24.5t-36 -8.5t-36 8.5t-27.5 24.5t-11 41zM163 633q0 24 11 40.5t27.5 24.5t36 8t36 -8t27.5 -24.5t11 -40.5q0 -25 -11 -41t-27.5 -24.5t-36 -8.5t-36 8.5t-27.5 24.5t-11 41z
M61 0v494h145v-494h-145z" />
    <glyph glyph-name="eth" unicode="&#xf0;" horiz-adv-x="580" 
d="M353 717l84 -67l-42 -47q41 -33 70 -73.5t47 -86t25.5 -94.5t5.5 -99q-3 -57 -20.5 -104.5t-49.5 -81.5t-78 -53t-106 -19q-64 0 -112 21t-80 55.5t-48 78.5t-16 91q0 39 11.5 76.5t34 69.5t56.5 55.5t79 35.5q41 8 81.5 4.5t72.5 -26.5q-19 33 -48.5 57t-62.5 41.5
t-67.5 27.5t-64.5 14l24 109q85 -12 153 -42zM289 119q54 0 82 34.5t32 85.5q2 25 -5.5 46.5t-23 37.5t-37 25t-48.5 9t-47.5 -10t-35 -26.5t-22 -38t-7.5 -43.5q0 -23 7.5 -44.5t22 -38t35 -27t47.5 -10.5z" />
    <glyph glyph-name="ntilde" unicode="&#xf1;" 
d="M61 0zM417 0v261q0 115 -102 115q-25 0 -45.5 -10t-35.5 -26.5t-23 -38.5t-8 -46v-255h-142v494h130l5 -63q33 43 74 59t86 15q42 0 79 -11t65.5 -38.5t45 -74.5t16.5 -119v-262h-145zM135.053 628.861q10.5986 23.4424 24.0889 42.4883q13.4902 19.0469 30.3525 31.7441
q16.8623 12.6982 38.0605 16.6055q21.1982 3.90625 47.2148 -2.93066q17.3438 -4.88379 35.1699 -14.1631q17.8252 -9.2793 33.2422 -13.6738q15.417 -4.39551 28.4258 0.488281q13.0078 4.88379 21.6797 28.3252l85.7568 -42.9766q-26.9795 -63.4883 -59.7402 -83.0234
q-32.7617 -19.5352 -74.1943 -4.88379q-21.1982 6.83691 -39.5059 16.6045q-18.3086 9.76758 -34.6885 13.1865q-16.3809 3.41797 -29.8701 -3.41895q-13.4902 -6.83691 -24.0898 -33.209z" />
    <glyph glyph-name="ograve" unicode="&#xf2;" horiz-adv-x="605" 
d="M32 0zM302 -16q-63 0 -113 18.5t-85 53t-53.5 83t-18.5 107.5q0 56 19 103.5t54.5 82t85 54t111.5 19.5t112 -19.5t85.5 -54t54.5 -82t19 -103.5q0 -59 -18.5 -107.5t-54 -83t-85.5 -53t-113 -18.5zM302 112q33 0 56.5 11t39 29.5t22.5 43t7 50.5q0 23 -7.5 46.5
t-22.5 42t-38.5 30t-56.5 11.5q-32 0 -55.5 -11.5t-38.5 -30t-22.5 -42t-7.5 -46.5q0 -25 7 -49t22 -43t38.5 -30.5t56.5 -11.5zM142 710h168l74 -140v-7h-126l-116 141v6z" />
    <glyph glyph-name="oacute" unicode="&#xf3;" horiz-adv-x="605" 
d="M32 0zM302 -16q-63 0 -113 18.5t-85 53t-53.5 83t-18.5 107.5q0 56 19 103.5t54.5 82t85 54t111.5 19.5t112 -19.5t85.5 -54t54.5 -82t19 -103.5q0 -59 -18.5 -107.5t-54 -83t-85.5 -53t-113 -18.5zM302 112q33 0 56.5 11t39 29.5t22.5 43t7 50.5q0 23 -7.5 46.5
t-22.5 42t-38.5 30t-56.5 11.5q-32 0 -55.5 -11.5t-38.5 -30t-22.5 -42t-7.5 -46.5q0 -25 7 -49t22 -43t38.5 -30.5t56.5 -11.5zM475 706l-116 -141h-126v7l74 140h168v-6z" />
    <glyph glyph-name="ocircumflex" unicode="&#xf4;" horiz-adv-x="605" 
d="M32 0zM302 -16q-63 0 -113 18.5t-85 53t-53.5 83t-18.5 107.5q0 56 19 103.5t54.5 82t85 54t111.5 19.5t112 -19.5t85.5 -54t54.5 -82t19 -103.5q0 -59 -18.5 -107.5t-54 -83t-85.5 -53t-113 -18.5zM302 112q33 0 56.5 11t39 29.5t22.5 43t7 50.5q0 23 -7.5 46.5
t-22.5 42t-38.5 30t-56.5 11.5q-32 0 -55.5 -11.5t-38.5 -30t-22.5 -42t-7.5 -46.5q0 -25 7 -49t22 -43t38.5 -30.5t56.5 -11.5zM339 714l149 -140v-5h-140l-47 42l-46 -42h-141v5l150 140h75z" />
    <glyph glyph-name="otilde" unicode="&#xf5;" horiz-adv-x="605" 
d="M32 0zM302 -16q-63 0 -113 18.5t-85 53t-53.5 83t-18.5 107.5q0 56 19 103.5t54.5 82t85 54t111.5 19.5t112 -19.5t85.5 -54t54.5 -82t19 -103.5q0 -59 -18.5 -107.5t-54 -83t-85.5 -53t-113 -18.5zM302 112q33 0 56.5 11t39 29.5t22.5 43t7 50.5q0 23 -7.5 46.5
t-22.5 42t-38.5 30t-56.5 11.5q-32 0 -55.5 -11.5t-38.5 -30t-22.5 -42t-7.5 -46.5q0 -25 7 -49t22 -43t38.5 -30.5t56.5 -11.5zM119 625q11 24 25 43.5t31.5 32.5t39.5 17t49 -3q18 -5 36.5 -14.5t34.5 -14t29.5 0.5t22.5 29l89 -44q-28 -65 -62 -85t-77 -5q-22 7 -41 17
t-36 13.5t-31 -3.5t-25 -34z" />
    <glyph glyph-name="odieresis" unicode="&#xf6;" horiz-adv-x="605" 
d="M106 640q0 26 12 43.5t29.5 26.5t38 9t38 -9t29.5 -26.5t12 -43.5t-12 -43.5t-29.5 -26t-38 -8.5t-38 8.5t-29.5 26t-12 43.5zM344 640q0 26 12 43.5t29.5 26.5t38 9t38 -9t29.5 -26.5t12 -43.5t-12 -43.5t-29.5 -26t-38 -8.5t-38 8.5t-29.5 26t-12 43.5zM302 -16
q-63 0 -113 18.5t-85 53t-53.5 83t-18.5 107.5q0 56 19 103.5t54.5 82t85 54t111.5 19.5t112 -19.5t85.5 -54t54.5 -82t19 -103.5q0 -59 -18.5 -107.5t-54 -83t-85.5 -53t-113 -18.5zM302 112q33 0 56.5 11t39 29.5t22.5 43t7 50.5q0 23 -7.5 46.5t-22.5 42t-38.5 30
t-56.5 11.5q-32 0 -55.5 -11.5t-38.5 -30t-22.5 -42t-7.5 -46.5q0 -25 7 -49t22 -43t38.5 -30.5t56.5 -11.5z" />
    <glyph glyph-name="divide" unicode="&#xf7;" horiz-adv-x="552" 
d="M46 382h460v-129h-460v129zM197 132q0 40 24.5 59.5t54.5 19.5t54.5 -19.5t24.5 -59.5q0 -39 -24.5 -58.5t-54.5 -19.5t-54.5 19.5t-24.5 58.5zM197 507q0 40 24.5 59.5t54.5 19.5t54.5 -19.5t24.5 -59.5q0 -39 -24.5 -58.5t-54.5 -19.5t-54.5 19.5t-24.5 58.5z" />
    <glyph glyph-name="oslash" unicode="&#xf8;" horiz-adv-x="605" 
d="M302 -16q-23 0 -44 2.5t-40 7.5l-29 -49h-126l56 96q-42 35 -64.5 87t-22.5 118q0 56 19 103.5t54.5 82t85 54t111.5 19.5q43 0 84 -11l33 57h126l-62 -106q43 -35 66.5 -86t23.5 -113q0 -59 -18.5 -107.5t-54 -83t-85.5 -53t-113 -18.5zM302 112q33 0 56.5 11t39 29.5
t22.5 43t7 50.5q0 37 -19 72l-121 -206h15zM178 246q0 -20 4 -39t13 -36l120 204q-3 1 -6.5 1h-6.5q-32 0 -55.5 -11.5t-38.5 -30t-22.5 -42t-7.5 -46.5z" />
    <glyph glyph-name="ugrave" unicode="&#xf9;" 
d="M54 0zM199 494v-267q0 -115 102 -115q25 0 45.5 10t35.5 26.5t23 38.5t8 46v261h142v-495h-130l-5 60q-33 -45 -74 -60.5t-86 -14.5q-42 0 -79 11t-65.5 38t-45 74t-16.5 119v268h145zM141 706h168l74 -140v-7h-126l-116 141v6z" />
    <glyph glyph-name="uacute" unicode="&#xfa;" 
d="M54 0zM199 494v-267q0 -115 102 -115q25 0 45.5 10t35.5 26.5t23 38.5t8 46v261h142v-495h-130l-5 60q-33 -45 -74 -60.5t-86 -14.5q-42 0 -79 11t-65.5 38t-45 74t-16.5 119v268h145zM468 704l-116 -141h-126v7l74 140h168v-6z" />
    <glyph glyph-name="ucircumflex" unicode="&#xfb;" 
d="M54 0zM199 494v-267q0 -115 102 -115q25 0 45.5 10t35.5 26.5t23 38.5t8 46v261h142v-495h-130l-5 60q-33 -45 -74 -60.5t-86 -14.5q-42 0 -79 11t-65.5 38t-45 74t-16.5 119v268h145zM340 712l149 -140v-5h-140l-47 42l-46 -42h-141v5l150 140h75z" />
    <glyph glyph-name="udieresis" unicode="&#xfc;" 
d="M54 0zM199 494v-267q0 -115 102 -115q25 0 45.5 10t35.5 26.5t23 38.5t8 46v261h142v-495h-130l-5 60q-33 -45 -74 -60.5t-86 -14.5q-42 0 -79 11t-65.5 38t-45 74t-16.5 119v268h145zM95.1406 642.992q0 24.7559 12.0283 41.418q12.0283 16.6631 29.5703 25.2324
t38.0908 8.56934t38.0898 -8.56934q17.542 -8.56934 29.5703 -25.2324q12.0283 -16.6621 12.0283 -41.418t-12.0283 -41.418q-12.0283 -16.6631 -29.5703 -24.7559q-17.541 -8.09375 -38.0898 -8.09375t-38.0908 8.09375q-17.542 8.09277 -29.5703 24.7559
q-12.0283 16.6621 -12.0283 41.418zM355.76 642.992q0 24.7559 12.0283 41.418q12.0283 16.6631 29.5703 25.2324q17.541 8.56934 38.0898 8.56934t38.0908 -8.56934t29.5703 -25.2324q12.0283 -16.6621 12.0283 -41.418t-12.0283 -41.418
q-12.0283 -16.6631 -29.5703 -24.7559q-17.542 -8.09375 -38.0908 -8.09375t-38.0898 8.09375q-17.542 8.09277 -29.5703 24.7559q-12.0283 16.6621 -12.0283 41.418z" />
    <glyph glyph-name="yacute" unicode="&#xfd;" horiz-adv-x="573" 
d="M3 0zM568 494l-303 -716h-157l102 237l-207 479h162l123 -311l121 311h159zM441 702l-116 -141h-126v7l74 140h168v-6z" />
    <glyph glyph-name="thorn" unicode="&#xfe;" horiz-adv-x="639" 
d="M340 126q25 0 47.5 8.5t39 24t26 37.5t9.5 50t-9.5 50t-26 37.5t-39 24t-47.5 8.5q-24 0 -46.5 -10t-39 -26.5t-26.5 -38t-10 -45.5t10 -46t26.5 -38.5t38.5 -26t47 -9.5zM61 -206v906h144v-259q12 17 29.5 29t38 20t40.5 11.5t37 3.5q55 0 102 -16t81 -48.5t53 -81
t19 -113.5t-18.5 -113.5t-51.5 -80.5t-79 -48.5t-100 -16.5q-16 0 -36.5 3t-41 10.5t-40 20t-33.5 32.5v-259h-144z" />
    <glyph glyph-name="ydieresis" unicode="&#xff;" horiz-adv-x="573" 
d="M3 0zM568 494l-303 -716h-157l102 237l-207 479h162l123 -311l121 311h159zM82 648q0 26 12 43.5t29.5 26.5t38 9t38 -9t29.5 -26.5t12 -43.5t-12 -43.5t-29.5 -26t-38 -8.5t-38 8.5t-29.5 26t-12 43.5zM342 648q0 26 12 43.5t29.5 26.5t38 9t38 -9t29.5 -26.5t12 -43.5
t-12 -43.5t-29.5 -26t-38 -8.5t-38 8.5t-29.5 26t-12 43.5z" />
    <glyph glyph-name="Amacron" unicode="&#x100;" horiz-adv-x="790" 
d="M0 0zM574 120h-359l-51 -120h-168l314 700h170l314 -700h-169zM395 542l-121 -284h241zM216 882h359v-119h-359v119z" />
    <glyph glyph-name="amacron" unicode="&#x101;" horiz-adv-x="639" 
d="M33 0zM443 494h135v-494h-130l-8 62q-12 -21 -30.5 -35.5t-39.5 -24t-42.5 -13.5t-39.5 -4q-56 0 -102.5 18t-80.5 52t-53 82.5t-19 109.5t20 109.5t55 82t82 50.5t102 16q48 0 87 -17.5t59 -50.5zM307 378q-27 0 -50.5 -9t-41.5 -26t-28 -41t-10 -55t10 -55t28 -40.5
t41.5 -25.5t50.5 -9q30 0 54.5 11t41.5 28.5t26 40t9 45.5q0 27 -8.5 51.5t-25 43t-41 30t-56.5 11.5zM142 705h359v-119h-359v119z" />
    <glyph glyph-name="Abreve" unicode="&#x102;" horiz-adv-x="790" 
d="M0 0zM574 120h-359l-51 -120h-168l314 700h170l314 -700h-169zM395 542l-121 -284h241zM561.793 904.755q1.04102 -34.082 -10.9336 -61.0635q-11.9756 -26.9814 -34.3643 -46.3887q-22.3877 -19.4082 -53.1074 -29.8223q-30.7188 -10.4131 -65.082 -10.4131
q-32.2812 0 -64.041 8.99316q-31.7607 8.99414 -56.2314 27.4551q-24.4717 18.4609 -38.0088 46.3887q-13.5371 27.9287 -9.37207 64.8506h120.794q0 -13.2539 5.20605 -21.3018q5.20703 -8.04688 12.4961 -12.7803t15.0996 -6.15332q7.80957 -1.41992 14.0576 -1.41992
t13.5371 1.41992t14.0576 5.67969q6.76855 4.26074 11.4551 12.3076q4.68555 8.04688 4.68555 22.248h119.752z" />
    <glyph glyph-name="abreve" unicode="&#x103;" horiz-adv-x="639" 
d="M33 0zM443 494h135v-494h-130l-8 62q-12 -21 -30.5 -35.5t-39.5 -24t-42.5 -13.5t-39.5 -4q-56 0 -102.5 18t-80.5 52t-53 82.5t-19 109.5t20 109.5t55 82t82 50.5t102 16q48 0 87 -17.5t59 -50.5zM307 378q-27 0 -50.5 -9t-41.5 -26t-28 -41t-10 -55t10 -55t28 -40.5
t41.5 -25.5t50.5 -9q30 0 54.5 11t41.5 28.5t26 40t9 45.5q0 27 -8.5 51.5t-25 43t-41 30t-56.5 11.5zM489.554 714.105q1.0293 -33.0186 -10.8096 -59.1582q-11.8389 -26.1387 -33.9727 -44.9414q-22.1338 -18.8018 -52.5039 -28.8906q-30.3691 -10.0889 -64.3418 -10.0889
q-31.9141 0 -63.3135 8.71289t-55.5918 26.5986q-24.1924 17.8848 -37.5762 44.9414q-13.3828 27.0566 -9.26465 62.8262h119.419q0 -12.8408 5.14746 -20.6367t12.3535 -12.3818q7.20703 -4.58594 14.9277 -5.96094q7.72168 -1.37598 13.8984 -1.37598t13.3828 1.37598
q7.20605 1.375 13.8984 5.50293q6.69141 4.12695 11.3242 11.9229t4.63281 21.5537h118.39z" />
    <glyph glyph-name="Aogonek" unicode="&#x104;" horiz-adv-x="793" 
d="M593 8q8 10 20 19l-39 93h-359l-51 -120h-168l314 700h170l314 -700h-38q-12 -1 -23 -2q-25 -3 -36.5 -16.5t-10.5 -29t13.5 -27t36.5 -9.5q10 1 20 4t23 11l71 -56q-18 -24 -47 -39.5t-59 -19.5q-42 -6 -76 4.5t-57 31t-34.5 48t-7.5 55.5t24 53zM395 542l-121 -284h241
z" />
    <glyph glyph-name="aogonek" unicode="&#x105;" horiz-adv-x="640" 
d="M443 494h135v-547q-8 2 -27 2t-38.5 -5t-34.5 -16.5t-15 -31.5q0 -13 7.5 -23t21 -13.5t31.5 1t38 19.5l71 -55q-17 -28 -46 -42t-61 -19q-26 -3 -52.5 1t-49 15.5t-39 31.5t-22.5 48q-2 12 -1.5 29.5t8.5 37t27 39.5t52 34l-8 62q-12 -21 -30.5 -35.5t-39.5 -24
t-42.5 -13.5t-39.5 -4q-56 0 -102.5 18t-80.5 52t-53 82.5t-19 109.5t20 109.5t55 82t82 50.5t102 16q48 0 87 -17.5t59 -50.5zM307 378q-27 0 -50.5 -9t-41.5 -26t-28 -41t-10 -55t10 -55t28 -40.5t41.5 -25.5t50.5 -9q30 0 54.5 11t41.5 28.5t26 40t9 45.5q0 27 -8.5 51.5
t-25 43t-41 30t-56.5 11.5z" />
    <glyph glyph-name="Cacute" unicode="&#x106;" horiz-adv-x="696" 
d="M38 0zM681 86q-54 -54 -122.5 -78.5t-146.5 -24.5q-100 0 -171 30t-116 80t-66 115.5t-21 137.5q0 68 22 134.5t68 119t116.5 85t167.5 32.5q72 0 137.5 -27t119.5 -81l-98 -97q-32 31 -74.5 44.5t-84.5 13.5q-60 0 -102 -21t-68 -53.5t-38 -72.5t-12 -78t11.5 -77
t37.5 -70.5t68 -51t103 -19.5q21 0 44.5 4.5t46.5 13t44 21t37 28.5zM559.153 906.507l-110.201 -134.176h-119.702v6.66113l70.3008 133.224h159.603v-5.70898z" />
    <glyph glyph-name="cacute" unicode="&#x107;" horiz-adv-x="508" 
d="M32 0zM495 63q-45 -47 -95 -63t-98 -16q-54 0 -103 15.5t-86 47.5t-59 81t-22 116q0 62 22 110.5t58.5 82t85.5 51t103 17.5t97.5 -14t81.5 -56l-80 -91q-23 17 -46.5 23t-46.5 6q-27 0 -50.5 -8.5t-41.5 -25t-28 -40.5t-10 -55q0 -30 10.5 -53t28 -38.5t40.5 -24
t48 -8.5q24 0 53 9.5t47 27.5zM426.208 693.273l-102.102 -123.736h-110.903v6.14355l65.1338 122.858h147.871v-5.26562z" />
    <glyph glyph-name="Ccircumflex" unicode="&#x108;" horiz-adv-x="696" 
d="M442 924l144 -135v-5h-140l-40 35l-41 -35h-140v5l145 135h72zM681 86q-54 -54 -122.5 -78.5t-146.5 -24.5q-100 0 -171 30t-116 80t-66 115.5t-21 137.5q0 68 22 134.5t68 119t116.5 85t167.5 32.5q72 0 137.5 -27t119.5 -81l-98 -97q-32 31 -74.5 44.5t-84.5 13.5
q-60 0 -102 -21t-68 -53.5t-38 -72.5t-12 -78t11.5 -77t37.5 -70.5t68 -51t103 -19.5q21 0 44.5 4.5t46.5 13t44 21t37 28.5z" />
    <glyph glyph-name="ccircumflex" unicode="&#x109;" horiz-adv-x="508" 
d="M32 0zM495 63q-45 -47 -95 -63t-98 -16q-54 0 -103 15.5t-86 47.5t-59 81t-22 116q0 62 22 110.5t58.5 82t85.5 51t103 17.5t97.5 -14t81.5 -56l-80 -91q-23 17 -46.5 23t-46.5 6q-27 0 -50.5 -8.5t-41.5 -25t-28 -40.5t-10 -55q0 -30 10.5 -53t28 -38.5t40.5 -24
t48 -8.5q24 0 53 9.5t47 27.5zM324.687 705.261l138.423 -129.926v-4.64062h-130.062l-43.6631 38.9775l-42.7354 -38.9775h-130.991v4.64062l139.353 129.926h69.6768z" />
    <glyph glyph-name="Cdotaccent" unicode="&#x10a;" horiz-adv-x="696" 
d="M38 0zM681 86q-54 -54 -122.5 -78.5t-146.5 -24.5q-100 0 -171 30t-116 80t-66 115.5t-21 137.5q0 68 22 134.5t68 119t116.5 85t167.5 32.5q72 0 137.5 -27t119.5 -81l-98 -97q-32 31 -74.5 44.5t-84.5 13.5q-60 0 -102 -21t-68 -53.5t-38 -72.5t-12 -78t11.5 -77
t37.5 -70.5t68 -51t103 -19.5q21 0 44.5 4.5t46.5 13t44 21t37 28.5zM307.801 853.586q0 38.5176 26.2783 57.2949t58.2236 18.7773q31.9463 0 58.2246 -18.7773t26.2783 -57.2949q0 -37.5557 -26.2783 -56.333t-58.2246 -18.7773q-31.9453 0 -58.2236 18.7773
t-26.2783 56.333z" />
    <glyph glyph-name="cdotaccent" unicode="&#x10b;" horiz-adv-x="508" 
d="M32 0zM495 63q-45 -47 -95 -63t-98 -16q-54 0 -103 15.5t-86 47.5t-59 81t-22 116q0 62 22 110.5t58.5 82t85.5 51t103 17.5t97.5 -14t81.5 -56l-80 -91q-23 17 -46.5 23t-46.5 6q-27 0 -50.5 -8.5t-41.5 -25t-28 -40.5t-10 -55q0 -30 10.5 -53t28 -38.5t40.5 -24
t48 -8.5q24 0 53 9.5t47 27.5zM214.56 640.932q0 35.1855 24.8779 52.3389q24.877 17.1523 55.1201 17.1523t55.1201 -17.1523q24.8779 -17.1533 24.8779 -52.3389q0 -34.3057 -24.8779 -51.459q-24.877 -17.1523 -55.1201 -17.1523t-55.1201 17.1523
q-24.8779 17.1533 -24.8779 51.459z" />
    <glyph glyph-name="Ccaron" unicode="&#x10c;" horiz-adv-x="696" 
d="M38 0zM681 86q-54 -54 -122.5 -78.5t-146.5 -24.5q-100 0 -171 30t-116 80t-66 115.5t-21 137.5q0 68 22 134.5t68 119t116.5 85t167.5 32.5q72 0 137.5 -27t119.5 -81l-98 -97q-32 31 -74.5 44.5t-84.5 13.5q-60 0 -102 -21t-68 -53.5t-38 -72.5t-12 -78t11.5 -77
t37.5 -70.5t68 -51t103 -19.5q21 0 44.5 4.5t46.5 13t44 21t37 28.5zM228.947 904.45h138.894l44.0625 -36.7119l46.9365 36.7119h134.104v-5.50684l-148.472 -128.49h-71.8418l-143.683 128.49v5.50684z" />
    <glyph glyph-name="ccaron" unicode="&#x10d;" horiz-adv-x="508" 
d="M32 0zM495 63q-45 -47 -95 -63t-98 -16q-54 0 -103 15.5t-86 47.5t-59 81t-22 116q0 62 22 110.5t58.5 82t85.5 51t103 17.5t97.5 -14t81.5 -56l-80 -91q-23 17 -46.5 23t-46.5 6q-27 0 -50.5 -8.5t-41.5 -25t-28 -40.5t-10 -55q0 -30 10.5 -53t28 -38.5t40.5 -24
t48 -8.5q24 0 53 9.5t47 27.5zM115.917 699.586h132.92l42.167 -36.833l44.918 36.833h128.336v-5.52441l-142.086 -128.918h-68.752l-137.503 128.918v5.52441z" />
    <glyph glyph-name="Dcaron" unicode="&#x10e;" horiz-adv-x="753" 
d="M78 0zM365 700q90 0 156 -28t108.5 -75.5t63 -110t20.5 -131.5t-20 -133t-62 -113.5t-108 -79t-158 -29.5h-287v700h287zM232 144h133q57 0 94.5 19t59.5 49.5t31 68.5t9 76q0 37 -10 73.5t-32.5 65t-59.5 46t-92 17.5h-133v-415zM161.131 897.095h145.762
l46.2412 -35.8916l49.2568 35.8916h140.735v-5.38379l-155.813 -125.619h-75.3936l-150.788 125.619v5.38379z" />
    <glyph glyph-name="dcaron" unicode="&#x10f;" horiz-adv-x="734" 
d="M33 0zM299 374q-57 0 -89 -35t-32 -92q0 -27 8 -50t23.5 -40t38 -27t51.5 -10q24 0 48 6.5t43 21.5t30.5 39.5t11.5 59.5q0 31 -11.5 55t-30.5 40t-42.5 24t-48.5 8zM579 699v-699h-129l-9 63q-18 -24 -37 -39.5t-39.5 -23.5t-42.5 -11t-45 -3q-54 0 -99 19.5t-77.5 54
t-50 82.5t-17.5 105q0 60 18 107.5t50.5 81t78 51t99.5 17.5q45 0 84 -15.5t71 -54.5v265h145zM653.82 700.157h129.702l-74.1152 -213.36h-98.8203z" />
    <glyph glyph-name="Dcroat" unicode="&#x110;" horiz-adv-x="759" 
d="M22 414h61v286h287q90 0 156 -28t108.5 -75.5t63 -110t20.5 -131.5t-20 -133t-62 -113.5t-108 -79t-158 -29.5h-287v288h-61v126zM237 414h118v-126h-118v-144h133q57 0 94.5 19t59.5 49.5t31 68.5t9 76q0 37 -10 73.5t-32.5 65t-59.5 46t-92 17.5h-133v-145z" />
    <glyph glyph-name="dcroat" unicode="&#x111;" horiz-adv-x="636" 
d="M579 699v-55h59v-98h-59v-546h-129l-9 63q-18 -24 -37 -39.5t-39.5 -23.5t-42.5 -11t-45 -3q-54 0 -99 19.5t-77.5 54t-50 82.5t-17.5 105q0 60 18 107.5t50.5 81t78 51t99.5 17.5q45 0 84 -15.5t71 -54.5v112h-99v98h99v55h145zM299 374q-57 0 -89 -35t-32 -92
q0 -27 8 -50t23.5 -40t38 -27t51.5 -10q24 0 48 6.5t43 21.5t30.5 39.5t11.5 59.5q0 31 -11.5 55t-30.5 40t-42.5 24t-48.5 8z" />
    <glyph glyph-name="Emacron" unicode="&#x112;" horiz-adv-x="656" 
d="M78 0zM611 0h-533v700h519v-143h-366v-135h345v-137h-345v-141h380v-144zM162 892h359v-119h-359v119z" />
    <glyph glyph-name="emacron" unicode="&#x113;" horiz-adv-x="577" 
d="M33 0zM179 197q5 -36 39 -62.5t95 -26.5q29 0 65.5 8t62.5 31l81 -90q-40 -39 -97.5 -56t-114.5 -17q-67 0 -118.5 19.5t-87 54.5t-53.5 83.5t-18 107.5q0 56 18.5 103t52.5 80.5t82.5 52.5t108.5 19q63 0 114 -19.5t84.5 -58t47 -96t1.5 -133.5h-363zM413 302
q-1 20 -11 35t-26.5 24.5t-37.5 14.5t-43 5q-45 0 -75 -21t-41 -58h234zM133.568 693.913h319.997v-110.001h-319.997v110.001z" />
    <glyph glyph-name="Ebreve" unicode="&#x114;" horiz-adv-x="656" 
d="M78 0zM611 0h-533v700h519v-143h-366v-135h345v-137h-345v-141h380v-144zM508.119 900.414q1.00586 -31.9531 -10.5615 -57.249q-11.5684 -25.2959 -33.1953 -43.4912q-21.6279 -18.1953 -51.3027 -27.958q-29.6738 -9.76367 -62.8691 -9.76367
q-31.1836 0 -61.8643 8.43164q-30.6807 8.43262 -54.3203 25.7402q-23.6387 17.3076 -36.7158 43.4912t-9.05371 60.7988h116.688q0 -12.4268 5.0293 -19.9707q5.0293 -7.54492 12.0713 -11.9824q7.04102 -4.4375 14.5859 -5.76953q7.54395 -1.33105 13.5801 -1.33105
q6.03516 0 13.0762 1.33105q7.04199 1.33203 13.5801 5.32617q6.53906 3.99414 11.0654 11.5381t4.52637 20.8584h115.681z" />
    <glyph glyph-name="ebreve" unicode="&#x115;" horiz-adv-x="577" 
d="M33 0zM179 197q5 -36 39 -62.5t95 -26.5q29 0 65.5 8t62.5 31l81 -90q-40 -39 -97.5 -56t-114.5 -17q-67 0 -118.5 19.5t-87 54.5t-53.5 83.5t-18 107.5q0 56 18.5 103t52.5 80.5t82.5 52.5t108.5 19q63 0 114 -19.5t84.5 -58t47 -96t1.5 -133.5h-363zM413 302
q-1 20 -11 35t-26.5 24.5t-37.5 14.5t-43 5q-45 0 -75 -21t-41 -58h234zM462.337 709.244q1.01758 -33.2314 -10.6865 -59.54q-11.7031 -26.3076 -33.584 -45.2314q-21.8799 -18.9238 -51.9023 -29.0781q-30.0225 -10.1533 -63.6064 -10.1533q-31.5488 0 -62.5889 8.76953
q-31.0391 8.76855 -54.9551 26.7695q-23.916 18 -37.1465 45.2314t-9.15918 63.2324h118.054q0 -12.9238 5.08789 -20.7695q5.08887 -7.84668 12.2129 -12.4619q7.12305 -4.61621 14.7559 -6q7.63281 -1.38477 13.7393 -1.38477t13.2305 1.38477
q7.12402 1.38379 13.7383 5.53809q6.61523 4.1543 11.1953 12q4.5791 7.84668 4.5791 21.6934h117.036z" />
    <glyph glyph-name="Edotaccent" unicode="&#x116;" horiz-adv-x="656" 
d="M78 0zM611 0h-533v700h519v-143h-366v-135h345v-137h-345v-141h380v-144zM269.518 843.723q0 38.1465 26.5879 56.7432t58.9102 18.5967t58.9102 -18.5967t26.5879 -56.7432q0 -37.1934 -26.5879 -55.79t-58.9102 -18.5967t-58.9102 18.5967t-26.5879 55.79z" />
    <glyph glyph-name="edotaccent" unicode="&#x117;" horiz-adv-x="577" 
d="M33 0zM179 197q5 -36 39 -62.5t95 -26.5q29 0 65.5 8t62.5 31l81 -90q-40 -39 -97.5 -56t-114.5 -17q-67 0 -118.5 19.5t-87 54.5t-53.5 83.5t-18 107.5q0 56 18.5 103t52.5 80.5t82.5 52.5t108.5 19q63 0 114 -19.5t84.5 -58t47 -96t1.5 -133.5h-363zM413 302
q-1 20 -11 35t-26.5 24.5t-37.5 14.5t-43 5q-45 0 -75 -21t-41 -58h234zM212.877 646.414q0 36.4824 26.7441 54.2676q26.7432 17.7852 59.2549 17.7852t59.2559 -17.7852q26.7432 -17.7852 26.7432 -54.2676q0 -35.5693 -26.7432 -53.3545
q-26.7441 -17.7852 -59.2559 -17.7852t-59.2549 17.7852q-26.7441 17.7852 -26.7441 53.3545z" />
    <glyph glyph-name="Eogonek" unicode="&#x118;" horiz-adv-x="668" 
d="M611 0h-45q-39 -2 -55 -14q-17 -13 -17 -33q1 -19 12 -28t30.5 -9t39.5 5t29 11l70 -56q-20 -32 -56.5 -50t-76.5 -22.5t-77 4.5t-58 32q-16 18 -21 41.5t0 47t20.5 42.5t43.5 29h-372v700h519v-143h-366v-135h345v-137h-345v-141h380v-144z" />
    <glyph glyph-name="eogonek" unicode="&#x119;" horiz-adv-x="580" 
d="M179 197q5 -36 39 -62.5t95 -26.5q29 0 65.5 8t62.5 31l81 -90q-26 -25 -59 -40.5t-69 -23.5q-9 -7 -14 -15q-5 -10 -6 -20.5t3 -18.5q8 -17 35.5 -19.5t61.5 23.5l71 -56q-27 -30 -65.5 -46.5t-77.5 -19.5t-73.5 8t-52.5 38q-19 28 -17 63q2 31 26 55
q-123 8 -187.5 79.5t-64.5 184.5q0 56 18.5 103t52.5 80.5t82.5 52.5t108.5 19q63 0 114 -19.5t84.5 -58t47 -96t1.5 -133.5h-363zM413 302q-1 20 -11 35t-26.5 24.5t-37.5 14.5t-43 5q-45 0 -75 -21t-41 -58h234z" />
    <glyph glyph-name="Ecaron" unicode="&#x11a;" horiz-adv-x="656" 
d="M78 0zM611 0h-533v700h519v-143h-366v-135h345v-137h-345v-141h380v-144zM152.197 901.665h146.142l46.3623 -36.4385l49.3857 36.4385h141.102v-5.46582l-156.22 -127.533h-75.5908l-151.181 127.533v5.46582z" />
    <glyph glyph-name="ecaron" unicode="&#x11b;" horiz-adv-x="577" 
d="M33 0zM179 197q5 -36 39 -62.5t95 -26.5q29 0 65.5 8t62.5 31l81 -90q-40 -39 -97.5 -56t-114.5 -17q-67 0 -118.5 19.5t-87 54.5t-53.5 83.5t-18 107.5q0 56 18.5 103t52.5 80.5t82.5 52.5t108.5 19q63 0 114 -19.5t84.5 -58t47 -96t1.5 -133.5h-363zM413 302
q-1 20 -11 35t-26.5 24.5t-37.5 14.5t-43 5q-45 0 -75 -21t-41 -58h234zM112.935 699.88h144.619l45.8799 -36.165l48.8711 36.165h139.633v-5.4248l-154.594 -126.576h-74.8027l-149.606 126.576v5.4248z" />
    <glyph glyph-name="Gcircumflex" unicode="&#x11c;" horiz-adv-x="742" 
d="M38 0zM575 513q-32 31 -77 46.5t-87 15.5q-100 0 -160 -57t-60 -172q0 -36 11 -75t37 -71.5t68 -53.5t104 -21q37 0 72 9t77 40v108h-167v130h302v-301q-91 -130 -285 -130q-101 0 -172 32t-115.5 83.5t-64.5 117t-20 132.5q0 74 22 141.5t68 118.5t116.5 81.5
t166.5 30.5q72 0 136.5 -23t124.5 -85zM440.653 914.287l154.574 -133.24v-4.75879h-145.238l-48.7578 39.9717l-47.7217 -39.9717h-146.275v4.75879l155.612 133.24h77.8066z" />
    <glyph glyph-name="gcircumflex" unicode="&#x11d;" horiz-adv-x="606" 
d="M33 0zM174 -71q4 -57 38.5 -78.5t85.5 -21.5q24 0 46 5.5t39 17t27 28.5t10 40q0 36 -26.5 60.5t-93.5 24.5q-61 0 -110 17.5t-84 49.5t-54 78.5t-19 103.5q0 63 22.5 110t59.5 78.5t85 47.5t100 16q26 0 59 -5t57 -22l54 70l104 -80l-63 -75q26 -32 39.5 -68.5
t11.5 -73.5q-2 -54 -27 -99.5t-79 -73.5q41 -18 63.5 -41t33 -46t12 -42.5t1.5 -29.5q0 -55 -23 -96t-60.5 -68t-85.5 -40.5t-99 -13.5q-130 0 -195 59.5t-63 167.5h134zM300 378q-55 0 -91.5 -32t-36.5 -92q0 -54 36.5 -86t91.5 -32q24 0 46.5 7.5t40 22t27.5 36.5t10 52
q0 26 -9.5 48.5t-26 39.5t-39 26.5t-49.5 9.5zM343.269 728.123l142.225 -137.104v-4.89648h-133.634l-44.8633 41.1309l-43.9082 -41.1309h-134.589v4.89648l143.18 137.104h71.5898z" />
    <glyph glyph-name="Gbreve" unicode="&#x11e;" horiz-adv-x="742" 
d="M38 0zM575 513q-32 31 -77 46.5t-87 15.5q-100 0 -160 -57t-60 -172q0 -36 11 -75t37 -71.5t68 -53.5t104 -21q37 0 72 9t77 40v108h-167v130h302v-301q-91 -130 -285 -130q-101 0 -172 32t-115.5 83.5t-64.5 117t-20 132.5q0 74 22 141.5t68 118.5t116.5 81.5
t166.5 30.5q72 0 136.5 -23t124.5 -85zM573.01 922.659q1.05371 -33.8711 -11.0576 -60.6855q-12.1104 -26.8145 -34.752 -46.1016q-22.6416 -19.2881 -53.708 -29.6377q-31.0664 -10.3486 -65.8193 -10.3486q-32.6455 0 -64.7656 8.9375q-32.1191 8.93848 -56.8672 27.2852
t-38.4385 46.1016q-13.6895 27.7559 -9.47754 64.4492h122.159q0 -13.1719 5.26562 -21.1699q5.26562 -7.99707 12.6377 -12.7012t15.2695 -6.11523q7.89844 -1.41113 14.2168 -1.41113q6.31934 0 13.6904 1.41113q7.37207 1.41113 14.2168 5.64453
q6.8457 4.23438 11.584 12.2314q4.73926 7.99707 4.73926 22.1104h121.106z" />
    <glyph glyph-name="gbreve" unicode="&#x11f;" horiz-adv-x="606" 
d="M33 0zM174 -71q4 -57 38.5 -78.5t85.5 -21.5q24 0 46 5.5t39 17t27 28.5t10 40q0 36 -26.5 60.5t-93.5 24.5q-61 0 -110 17.5t-84 49.5t-54 78.5t-19 103.5q0 63 22.5 110t59.5 78.5t85 47.5t100 16q26 0 59 -5t57 -22l54 70l104 -80l-63 -75q26 -32 39.5 -68.5
t11.5 -73.5q-2 -54 -27 -99.5t-79 -73.5q41 -18 63.5 -41t33 -46t12 -42.5t1.5 -29.5q0 -55 -23 -96t-60.5 -68t-85.5 -40.5t-99 -13.5q-130 0 -195 59.5t-63 167.5h134zM300 378q-55 0 -91.5 -32t-36.5 -92q0 -54 36.5 -86t91.5 -32q24 0 46.5 7.5t40 22t27.5 36.5t10 52
q0 26 -9.5 48.5t-26 39.5t-39 26.5t-49.5 9.5zM474.01 715.521q1.05371 -33.6572 -11.0576 -60.3037q-12.1104 -26.6455 -34.752 -45.8115t-53.708 -29.4502t-65.8193 -10.2842q-32.6455 0 -64.7656 8.88184q-32.1191 8.88184 -56.8672 27.1133
q-24.748 18.2305 -38.4385 45.8115q-13.6895 27.5811 -9.47754 64.043h122.159q0 -13.0889 5.26562 -21.0361t12.6377 -12.6211q7.37207 -4.6748 15.2695 -6.07715q7.89844 -1.40234 14.2168 -1.40234q6.31934 0 13.6904 1.40234q7.37207 1.40234 14.2168 5.60938
q6.8457 4.20703 11.584 12.1543q4.73926 7.94629 4.73926 21.9707h121.106z" />
    <glyph glyph-name="Gdotaccent" unicode="&#x120;" horiz-adv-x="742" 
d="M38 0zM575 513q-32 31 -77 46.5t-87 15.5q-100 0 -160 -57t-60 -172q0 -36 11 -75t37 -71.5t68 -53.5t104 -21q37 0 72 9t77 40v108h-167v130h302v-301q-91 -130 -285 -130q-101 0 -172 32t-115.5 83.5t-64.5 117t-20 132.5q0 74 22 141.5t68 118.5t116.5 81.5
t166.5 30.5q72 0 136.5 -23t124.5 -85zM311.678 855.982q0 39.6191 27.5215 58.9336q27.5225 19.3145 60.9795 19.3145q33.458 0 60.9805 -19.3145q27.5215 -19.3145 27.5215 -58.9336q0 -38.6289 -27.5215 -57.9434q-27.5225 -19.3145 -60.9805 -19.3145
q-33.457 0 -60.9795 19.3145q-27.5215 19.3145 -27.5215 57.9434z" />
    <glyph glyph-name="gdotaccent" unicode="&#x121;" horiz-adv-x="606" 
d="M33 0zM174 -71q4 -57 38.5 -78.5t85.5 -21.5q24 0 46 5.5t39 17t27 28.5t10 40q0 36 -26.5 60.5t-93.5 24.5q-61 0 -110 17.5t-84 49.5t-54 78.5t-19 103.5q0 63 22.5 110t59.5 78.5t85 47.5t100 16q26 0 59 -5t57 -22l54 70l104 -80l-63 -75q26 -32 39.5 -68.5
t11.5 -73.5q-2 -54 -27 -99.5t-79 -73.5q41 -18 63.5 -41t33 -46t12 -42.5t1.5 -29.5q0 -55 -23 -96t-60.5 -68t-85.5 -40.5t-99 -13.5q-130 0 -195 59.5t-63 167.5h134zM300 378q-55 0 -91.5 -32t-36.5 -92q0 -54 36.5 -86t91.5 -32q24 0 46.5 7.5t40 22t27.5 36.5t10 52
q0 26 -9.5 48.5t-26 39.5t-39 26.5t-49.5 9.5zM212.038 652.018q0 40.3809 27.6768 60.0664q27.6777 19.6855 61.3252 19.6855q33.6465 0 61.3242 -19.6855t27.6777 -60.0664q0 -39.3711 -27.6777 -59.0566t-61.3242 -19.6855q-33.6475 0 -61.3252 19.6855
q-27.6768 19.6855 -27.6768 59.0566z" />
    <glyph glyph-name="Gcommaaccent" unicode="&#x122;" horiz-adv-x="742" 
d="M38 0zM575 513q-32 31 -77 46.5t-87 15.5q-100 0 -160 -57t-60 -172q0 -36 11 -75t37 -71.5t68 -53.5t104 -21q37 0 72 9t77 40v108h-167v130h302v-301q-91 -130 -285 -130q-101 0 -172 32t-115.5 83.5t-64.5 117t-20 132.5q0 74 22 141.5t68 118.5t116.5 81.5
t166.5 30.5q72 0 136.5 -23t124.5 -85zM480.313 -137.926q0 -36.8564 -15.5967 -76.623q-15.5957 -39.7656 -29.6836 -83.4121h-77.4795l15.0938 100.871q-24.1494 3.87891 -39.2432 17.9434q-15.0928 14.0635 -15.0928 39.2812q0 37.8262 25.1553 55.7695
q25.1562 17.9434 55.8457 17.9434t55.8457 -18.4287q25.1553 -18.4277 25.1553 -53.3447z" />
    <glyph glyph-name="gcommaaccent" unicode="&#x123;" horiz-adv-x="606" 
d="M218 649q1 35 17.5 73t32.5 80h81l-18 -97q26 -4 42 -17.5t15 -36.5q0 -27 -13 -44.5t-32 -26t-41.5 -8.5t-41 9t-31 26t-11.5 42zM174 -71q4 -57 38.5 -78.5t85.5 -21.5q24 0 46 5.5t39 17t27 28.5t10 40q0 36 -26.5 60.5t-93.5 24.5q-61 0 -110 17.5t-84 49.5t-54 78.5
t-19 103.5q0 63 22.5 110t59.5 78.5t85 47.5t100 16q26 0 59 -5t57 -22l54 70l104 -80l-63 -75q26 -32 39.5 -68.5t11.5 -73.5q-2 -54 -27 -99.5t-79 -73.5q41 -18 63.5 -41t33 -46t12 -42.5t1.5 -29.5q0 -55 -23 -96t-60.5 -68t-85.5 -40.5t-99 -13.5q-130 0 -195 59.5
t-63 167.5h134zM300 378q-55 0 -91.5 -32t-36.5 -92q0 -54 36.5 -86t91.5 -32q24 0 46.5 7.5t40 22t27.5 36.5t10 52q0 26 -9.5 48.5t-26 39.5t-39 26.5t-49.5 9.5z" />
    <glyph glyph-name="Hcircumflex" unicode="&#x124;" horiz-adv-x="779" 
d="M78 0zM547 0v277h-313v-277h-156v700h156v-280h313v280h154v-700h-154zM421.835 916.465l144.862 -136.975v-4.89258h-136.112l-45.6943 41.0928l-44.7227 -41.0928h-137.084v4.89258l145.834 136.975h72.917z" />
    <glyph glyph-name="hcircumflex" unicode="&#x125;" horiz-adv-x="607" 
d="M61 0zM206 700v-265q31 40 71.5 54.5t78.5 14.5q43 0 79.5 -12.5t62.5 -40t40.5 -73t14.5 -111.5v-267h-144v266q0 52 -25.5 79.5t-68.5 27.5q-45 0 -77.5 -30.5t-32.5 -90.5v-252h-144v700h145zM332.654 916.152l143.025 -134.967v-4.82031h-134.387l-45.1152 40.4902
l-44.1553 -40.4902h-135.346v4.82031l143.985 134.967h71.9922z" />
    <glyph glyph-name="Hbar" unicode="&#x126;" horiz-adv-x="790" 
d="M552 -1v277h-313v-277h-156v516h-72v96h72v88h156v-88h313v88h154v-88h65v-96h-65v-516h-154zM552 419v96h-313v-96h313z" />
    <glyph glyph-name="hbar" unicode="&#x127;" horiz-adv-x="607" 
d="M206 700v-56h122v-96h-122v-113q31 40 71.5 54.5t78.5 14.5q43 0 79.5 -12.5t62.5 -40t40.5 -73t14.5 -111.5v-267h-144v266q0 52 -25.5 79.5t-68.5 27.5q-45 0 -77.5 -30.5t-32.5 -90.5v-252h-144v548h-60v96h60v56h145z" />
    <glyph glyph-name="Itilde" unicode="&#x128;" horiz-adv-x="311" 
d="M0 0zM78 0v700h155v-700h-155zM-23.6289 823.574q10.7344 23.3623 24.3965 42.3447q13.6611 18.9824 30.7383 31.6377q17.0771 12.6543 38.5449 16.5479q21.4688 3.89453 47.8164 -2.91992q17.5645 -4.86719 35.6172 -14.1152q18.0527 -9.24707 33.666 -13.6279
t28.7871 0.486328t21.957 28.2305l86.8486 -42.832q-27.3232 -63.2744 -60.502 -82.7432q-33.1777 -19.4688 -75.1387 -4.86719q-21.4678 6.81445 -40.0088 16.5488t-35.1299 13.1416t-30.251 -3.40723t-24.3955 -33.0977z" />
    <glyph glyph-name="itilde" unicode="&#x129;" horiz-adv-x="267" 
d="M61 0v494h145v-494h-145zM-15 623q9 23 20.5 41.5t26 31t32.5 16.5t40 -3q15 -5 30 -14t28.5 -13.5t24.5 0.5t18 28l73 -42q-23 -63 -50.5 -82t-63.5 -4q-18 6 -33.5 15.5t-29.5 13t-25.5 -3t-20.5 -32.5z" />
    <glyph glyph-name="Imacron" unicode="&#x12a;" horiz-adv-x="311" 
d="M21 0zM78 0v700h155v-700h-155zM21.4209 888.746h268.68v-116.414h-268.68v116.414z" />
    <glyph glyph-name="imacron" unicode="&#x12b;" horiz-adv-x="267" 
d="M19 0zM61 0v494h145v-494h-145zM19.8477 698.197h228.67v-111.236h-228.67v111.236z" />
    <glyph glyph-name="Ibreve" unicode="&#x12c;" horiz-adv-x="311" 
d="M0 0zM78 0v700h155v-700h-155zM321 922q1 -36 -10.5 -64.5t-33 -49t-51 -31.5t-62.5 -11q-31 0 -61.5 9.5t-54 29t-36.5 49t-9 68.5h116q0 -14 5 -22.5t12 -13.5t14.5 -6.5t13.5 -1.5t13 1.5t13.5 6t11 13t4.5 23.5h115z" />
    <glyph glyph-name="ibreve" unicode="&#x12d;" horiz-adv-x="267" 
d="M0 0zM61 0v494h145v-494h-145zM276.392 699.237q0.880859 -33.9521 -9.25098 -60.8311q-10.1309 -26.8789 -29.0723 -46.2119q-18.9404 -19.334 -44.9297 -29.708q-25.9893 -10.375 -55.0615 -10.375q-27.3105 0 -54.1807 8.95996q-26.8691 8.95996 -47.5723 27.3506
t-32.1562 46.2119q-11.4531 27.8223 -7.92871 64.6035h102.194q0 -13.2031 4.4043 -21.2197q4.40527 -8.0166 10.5723 -12.7324q6.16602 -4.71484 12.7734 -6.12988t11.8936 -1.41504t11.4531 1.41504t11.8926 5.6582q5.72656 4.24414 9.69141 12.2607
q3.96387 8.0166 3.96387 22.1631h101.313z" />
    <glyph glyph-name="Iogonek" unicode="&#x12e;" horiz-adv-x="313" 
d="M206 0q-10 -1 -19 -3q-20 -6 -33 -15.5t-18 -21t-2 -21.5q3 -9 11.5 -17t21.5 -10.5t30 1.5t37 19l71 -56q-26 -32 -68 -48.5t-84 -14.5t-76.5 24t-46.5 67q-3 11 -3 27t5 33t16 33q11 15 30 26v677h155v-700h-27z" />
    <glyph glyph-name="iogonek" unicode="&#x12f;" horiz-adv-x="269" 
d="M208 495v-495h-40q-15 -2 -27 -7q-15 -6 -24.5 -17t-7.5 -29q0 -12 11.5 -22.5t31.5 -11.5q11 0 25 4.5t28 15.5l72 -56q-22 -35 -60.5 -52.5t-83.5 -15.5t-71 13t-40 25t-21 37q-6 18 -6.5 38t6 39.5t22 36.5t41.5 29v468h144zM54 625q0 41 25.5 61t56.5 20t56.5 -20
t25.5 -61t-25.5 -61t-56.5 -20t-56.5 20t-25.5 61z" />
    <glyph glyph-name="Idotaccent" unicode="&#x130;" horiz-adv-x="311" 
d="M67 0zM78 0v700h155v-700h-155zM67.6777 845.205q0 39.4434 27.5215 58.6719q27.5225 19.2285 60.9795 19.2285q33.458 0 60.9805 -19.2285q27.5215 -19.2285 27.5215 -58.6719q0 -38.457 -27.5215 -57.6855q-27.5225 -19.2285 -60.9805 -19.2285
q-33.457 0 -60.9795 19.2285q-27.5215 19.2285 -27.5215 57.6855z" />
    <glyph glyph-name="dotlessi" unicode="&#x131;" horiz-adv-x="267" 
d="M61 0v494h145v-494h-145z" />
    <glyph glyph-name="IJ" unicode="&#x132;" horiz-adv-x="1027" 
d="M78 0zM78 0v700h155v-700h-155zM480 291q4 -86 48 -122t111 -36q78 0 120.5 43.5t42.5 124.5v257h-194v142h350v-400q0 -69 -20.5 -126.5t-60.5 -99.5t-99 -65.5t-137 -23.5q-148 0 -229 73.5t-83 232.5h151z" />
    <glyph glyph-name="ij" unicode="&#x133;" horiz-adv-x="531" 
d="M51 0zM205 495v-495h-144v495h144zM51 625q0 41 25.5 61t56.5 20t56.5 -20t25.5 -61t-25.5 -61t-56.5 -20t-56.5 20t-25.5 61zM470 495v-519q0 -51 -12.5 -88t-34.5 -61t-51.5 -35.5t-63.5 -11.5q-29 0 -60.5 9t-60.5 26l41 105q31 -17 54 -17q20 0 32.5 16t12.5 53v523
h143zM318 625q0 41 25.5 61t55.5 20q31 0 56.5 -20t25.5 -61t-25.5 -61t-56.5 -20q-30 0 -55.5 20t-25.5 61z" />
    <glyph glyph-name="Jcircumflex" unicode="&#x134;" horiz-adv-x="716" 
d="M18 0zM169 291q4 -86 48 -122t111 -36q78 0 120.5 43.5t42.5 124.5v257h-194v142h350v-400q0 -69 -20.5 -126.5t-60.5 -99.5t-99 -65.5t-137 -23.5q-148 0 -229 73.5t-83 232.5h151zM500.346 923.713l154.975 -146.76v-5.24121h-145.613l-48.8848 44.0283
l-47.8447 -44.0283h-146.654v5.24121l156.015 146.76h78.0078z" />
    <glyph glyph-name="jcircumflex" unicode="&#x135;" horiz-adv-x="265" 
d="M0 0zM158.782 717.754l122.309 -145.794v-5.20703h-114.921l-38.5801 43.7383l-37.7598 -43.7383h-115.741v5.20703l123.129 145.794h61.5645zM204 495v-540q0 -110 -45 -157t-128 -47q-28 0 -58 8t-58 27l49 104q31 -13 55 -12q42 4 42 77v540h143z" />
    <glyph glyph-name="Kcommaaccent" unicode="&#x136;" horiz-adv-x="673" 
d="M78 0zM656 696l-284 -336l309 -351v-9h-188l-259 299v-299h-156v700h156v-289l233 289h189v-4zM447.483 -113.648q0 -36.4277 -16.2705 -75.7305q-16.2695 -39.3037 -30.9658 -82.4414h-80.8252l15.7451 99.6963q-25.1924 3.83398 -40.9375 17.7344
q-15.7451 13.8994 -15.7451 38.8242q0 37.3857 26.2422 55.1201t58.2568 17.7344q32.0156 0 58.2578 -18.2139t26.2422 -52.7236z" />
    <glyph glyph-name="kcommaaccent" unicode="&#x137;" horiz-adv-x="548" 
d="M61 0zM205 699v-399l146 191h170v-9l-181 -221l209 -250v-11h-173l-171 217v-217h-144v699h144zM368 -114.926q0 -36.8564 -15.5 -76.623q-15.5 -39.7656 -29.5 -83.4121h-77l15 100.871q-24 3.87891 -39 17.9434q-15 14.0635 -15 39.2812q0 37.8262 25 55.7695
t55.5 17.9434t55.5 -18.4287q25 -18.4277 25 -53.3447z" />
    <glyph glyph-name="kgreenlandic" unicode="&#x138;" horiz-adv-x="547" 
d="M205 492v-192l146 193h170v-9l-186 -223l214 -250v-11h-173l-171 217v-217h-144v492h144z" />
    <glyph glyph-name="Lacute" unicode="&#x139;" horiz-adv-x="600" 
d="M78 0zM234 700v-557h350v-143h-506v700h156zM322.683 901.8l-113.6 -128.53h-123.394v6.38086l72.4688 127.618h164.524v-5.46875z" />
    <glyph glyph-name="lacute" unicode="&#x13a;" horiz-adv-x="269" 
d="M63 0zM206 699v-699h-143v699h143zM300.313 885.692l-110.725 -125.655h-120.271v6.23828l70.6348 124.765h160.36v-5.34766z" />
    <glyph glyph-name="Lcommaaccent" unicode="&#x13b;" horiz-adv-x="600" 
d="M78 0zM234 700v-557h350v-143h-506v700h156zM419 -124q0 -38 -15.5 -79t-29.5 -86h-77l15 104q-24 4 -39 18.5t-15 40.5q0 39 25 57.5t55.5 18.5t55.5 -19t25 -55z" />
    <glyph glyph-name="lcommaaccent" unicode="&#x13c;" horiz-adv-x="269" 
d="M55 0zM206 699v-699h-143v699h143zM216 -129q0 -38 -15.5 -79t-29.5 -86h-77l15 104q-24 4 -39 18.5t-15 40.5q0 39 25 57.5t55.5 18.5t55.5 -19t25 -55z" />
    <glyph glyph-name="Lcaron" unicode="&#x13d;" horiz-adv-x="602" 
d="M78 0zM234 700v-557h350v-143h-506v700h156zM417.615 696.734h134.026l-76.5859 -219.091h-102.115z" />
    <glyph glyph-name="lcaron" unicode="&#x13e;" horiz-adv-x="383" 
d="M63 0zM206 699v-699h-143v699h143zM292.615 699.879h134.026l-76.5859 -220.524h-102.115z" />
    <glyph glyph-name="Ldot" unicode="&#x13f;" horiz-adv-x="600" 
d="M78 0zM234 700v-557h350v-143h-506v700h156zM333 373q0 29 13 48t32 28.5t42 9.5t42 -9.5t32 -28.5t13 -48t-13 -47.5t-32 -28.5t-42 -9.5t-42 10t-32 28t-13 47.5z" />
    <glyph glyph-name="ldot" unicode="&#x140;" horiz-adv-x="425" 
d="M63 0zM206 699v-699h-143v699h143zM261 327q0 29 13 48t32 28.5t42 9.5t42 -9.5t32 -28.5t13 -48t-13 -47.5t-32 -28.5t-42 -9.5t-42 10t-32 28t-13 47.5z" />
    <glyph glyph-name="Lslash" unicode="&#x141;" horiz-adv-x="612" 
d="M247 700v-273l102 52v-117l-102 -51v-168h350v-143h-506v233l-80 -40v114l80 40v353h156z" />
    <glyph glyph-name="lslash" unicode="&#x142;" horiz-adv-x="303" 
d="M220 699v-281l68 35v-102l-68 -35v-316h-143v243l-61 -31v104l61 30v353h143z" />
    <glyph glyph-name="Nacute" unicode="&#x143;" horiz-adv-x="790" 
d="M78 0zM565 245l-10 220v235h157v-700h-134l-348 448l6 -230v-218h-158v700h134zM566.804 903.162l-122.23 -137.161h-132.768v6.80957l77.9746 136.188h177.023v-5.83691z" />
    <glyph glyph-name="nacute" unicode="&#x144;" 
d="M61 0zM417 0v261q0 115 -102 115q-25 0 -45.5 -10t-35.5 -26.5t-23 -38.5t-8 -46v-255h-142v494h130l5 -63q33 43 74 59t86 15q42 0 79 -11t65.5 -38.5t45 -74.5t16.5 -119v-262h-145zM474.318 703.932l-109.373 -133.04h-118.803v6.60547l69.7734 132.096h158.402
v-5.66113z" />
    <glyph glyph-name="Ncommaaccent" unicode="&#x145;" horiz-adv-x="790" 
d="M78 0zM565 245l-10 220v235h157v-700h-134l-348 448l6 -230v-218h-158v700h134zM490.11 -112.465q0 -38.3174 -16.4629 -79.6602q-16.4639 -41.3438 -31.333 -86.7197h-81.7842l15.9316 104.87q-25.4912 4.0332 -41.4229 18.6543q-15.9326 14.6211 -15.9326 40.8389
q0 39.3262 26.5537 57.9805q26.5527 18.6553 58.9482 18.6553t58.9482 -19.1592q26.5537 -19.1592 26.5537 -55.46z" />
    <glyph glyph-name="ncommaaccent" unicode="&#x146;" 
d="M61 0zM417 0v261q0 115 -102 115q-25 0 -45.5 -10t-35.5 -26.5t-23 -38.5t-8 -46v-255h-142v494h130l5 -63q33 43 74 59t86 15q42 0 79 -11t65.5 -38.5t45 -74.5t16.5 -119v-262h-145zM390 -118q0 -38 -15.5 -79t-29.5 -86h-77l15 104q-24 4 -39 18.5t-15 40.5
q0 39 25 57.5t55.5 18.5t55.5 -19t25 -55z" />
    <glyph glyph-name="Ncaron" unicode="&#x147;" horiz-adv-x="790" 
d="M78 0zM565 245l-10 220v235h157v-700h-134l-348 448l6 -230v-218h-158v700h134zM213.276 906.277h140.806l44.6689 -36.9863l47.582 36.9863h135.95v-5.54785l-150.516 -129.455h-72.8301l-145.661 129.455v5.54785z" />
    <glyph glyph-name="ncaron" unicode="&#x148;" 
d="M61 0zM417 0v261q0 115 -102 115q-25 0 -45.5 -10t-35.5 -26.5t-23 -38.5t-8 -46v-255h-142v494h130l5 -63q33 43 74 59t86 15q42 0 79 -11t65.5 -38.5t45 -74.5t16.5 -119v-262h-145zM145.38 704.669h135.601l43.0186 -37.4092l45.8242 37.4092h130.925v-5.61133
l-144.953 -130.934h-70.1387l-140.276 130.934v5.61133z" />
    <glyph glyph-name="napostrophe" unicode="&#x149;" 
d="M61 0zM417 0v261q0 115 -102 115q-25 0 -45.5 -10t-35.5 -26.5t-23 -38.5t-8 -46v-255h-142v494h130l5 -63q33 43 74 59t86 15q42 0 79 -11t65.5 -38.5t45 -74.5t16.5 -119v-262h-145z" />
    <glyph glyph-name="Eng" unicode="&#x14a;" horiz-adv-x="786" 
d="M565 245l-10 220v235h157v-719q0 -77 -24 -125t-64.5 -69t-93 -14.5t-108.5 40.5l53 111q51 -22 72 -8t21 65v32l-338 435l6 -230v-218h-158v700h134z" />
    <glyph glyph-name="eng" unicode="&#x14b;" horiz-adv-x="614" 
d="M417 261q0 115 -102 115q-25 0 -45.5 -10t-35.5 -26.5t-23 -38.5t-8 -46v-255h-142v494h130l5 -63q33 43 74 59t86 15q42 0 79 -11t65.5 -38.5t45 -74.5t16.5 -119v-291q-1 -54 -13.5 -91t-34.5 -60.5t-52 -34t-65 -10.5q-64 0 -124 35l45 101q14 -7 28 -10t24 -3
q26 0 36.5 19t10.5 54v290v0z" />
    <glyph glyph-name="Omacron" unicode="&#x14c;" horiz-adv-x="832" 
d="M38 0zM794 350q0 -86 -27.5 -154t-77.5 -115t-119.5 -72.5t-153.5 -25.5t-153.5 25.5t-119.5 72.5t-77.5 115t-27.5 154q0 85 27.5 153.5t77.5 115.5t119.5 72.5t153.5 25.5t153.5 -25.5t119.5 -72.5t77.5 -115.5t27.5 -153.5zM641 350q0 48 -16 89.5t-45.5 72t-71 48
t-92.5 17.5q-50 0 -91.5 -17.5t-71 -48.5t-46 -72t-16.5 -89q0 -49 16.5 -90.5t46 -71.5t71 -47t91.5 -17q51 0 92.5 17t71 47t45.5 71.5t16 90.5zM242 905h359v-119h-359v119z" />
    <glyph glyph-name="omacron" unicode="&#x14d;" horiz-adv-x="605" 
d="M32 0zM302 -16q-63 0 -113 18.5t-85 53t-53.5 83t-18.5 107.5q0 56 19 103.5t54.5 82t85 54t111.5 19.5t112 -19.5t85.5 -54t54.5 -82t19 -103.5q0 -59 -18.5 -107.5t-54 -83t-85.5 -53t-113 -18.5zM302 112q33 0 56.5 11t39 29.5t22.5 43t7 50.5q0 23 -7.5 46.5
t-22.5 42t-38.5 30t-56.5 11.5q-32 0 -55.5 -11.5t-38.5 -30t-22.5 -42t-7.5 -46.5q0 -25 7 -49t22 -43t38.5 -30.5t56.5 -11.5zM150.595 698.783h313.007v-120.998h-313.007v120.998z" />
    <glyph glyph-name="Obreve" unicode="&#x14e;" horiz-adv-x="832" 
d="M38 0zM794 350q0 -86 -27.5 -154t-77.5 -115t-119.5 -72.5t-153.5 -25.5t-153.5 25.5t-119.5 72.5t-77.5 115t-27.5 154q0 85 27.5 153.5t77.5 115.5t119.5 72.5t153.5 25.5t153.5 -25.5t119.5 -72.5t77.5 -115.5t27.5 -153.5zM641 350q0 48 -16 89.5t-45.5 72t-71 48
t-92.5 17.5q-50 0 -91.5 -17.5t-71 -48.5t-46 -72t-16.5 -89q0 -49 16.5 -90.5t46 -71.5t71 -47t91.5 -17q51 0 92.5 17t71 47t45.5 71.5t16 90.5zM591.179 910.521q1.06152 -33.6572 -11.1504 -60.3037q-12.2129 -26.6455 -35.0449 -45.8115t-54.1592 -29.4502
q-31.3281 -10.2842 -66.3721 -10.2842q-32.9209 0 -65.3096 8.88184q-32.3896 8.88184 -57.3457 27.1133q-24.9561 18.2305 -38.7617 45.8115q-13.8047 27.5811 -9.55664 64.043h123.186q0 -13.0889 5.30957 -21.0361q5.31055 -7.94727 12.7441 -12.6211
q7.43359 -4.6748 15.3984 -6.07715q7.96387 -1.40234 14.3359 -1.40234t13.8057 1.40234t14.3359 5.60938t11.6816 12.1543q4.77832 7.94629 4.77832 21.9707h122.125z" />
    <glyph glyph-name="obreve" unicode="&#x14f;" horiz-adv-x="605" 
d="M32 0zM302 -16q-63 0 -113 18.5t-85 53t-53.5 83t-18.5 107.5q0 56 19 103.5t54.5 82t85 54t111.5 19.5t112 -19.5t85.5 -54t54.5 -82t19 -103.5q0 -59 -18.5 -107.5t-54 -83t-85.5 -53t-113 -18.5zM302 112q33 0 56.5 11t39 29.5t22.5 43t7 50.5q0 23 -7.5 46.5
t-22.5 42t-38.5 30t-56.5 11.5q-32 0 -55.5 -11.5t-38.5 -30t-22.5 -42t-7.5 -46.5q0 -25 7 -49t22 -43t38.5 -30.5t56.5 -11.5zM466.832 705.967q0.991211 -32.8047 -10.4072 -58.7754t-32.708 -44.6514t-50.5488 -28.7051q-29.2393 -10.0234 -61.9473 -10.0234
q-30.7256 0 -60.9551 8.65723q-30.2305 8.65625 -53.5225 26.4258t-36.1768 44.6514t-8.91992 62.4209h114.973q0 -12.7568 4.95605 -20.5029q4.95605 -7.74512 11.8936 -12.3018q6.93848 -4.55664 14.3721 -5.92285q7.43359 -1.36719 13.3799 -1.36719
q5.94727 0 12.8857 1.36719q6.9375 1.36621 13.3799 5.4668t10.9033 11.8467q4.45996 7.74609 4.45996 21.4141h113.982z" />
    <glyph glyph-name="Ohungarumlaut" unicode="&#x150;" horiz-adv-x="832" 
d="M38 0zM794 350q0 -86 -27.5 -154t-77.5 -115t-119.5 -72.5t-153.5 -25.5t-153.5 25.5t-119.5 72.5t-77.5 115t-27.5 154q0 85 27.5 153.5t77.5 115.5t119.5 72.5t153.5 25.5t153.5 -25.5t119.5 -72.5t77.5 -115.5t27.5 -153.5zM641 350q0 48 -16 89.5t-45.5 72t-71 48
t-92.5 17.5q-50 0 -91.5 -17.5t-71 -48.5t-46 -72t-16.5 -89q0 -49 16.5 -90.5t46 -71.5t71 -47t91.5 -17q51 0 92.5 17t71 47t45.5 71.5t16 90.5zM693.193 913.058v-4.57324l-120.09 -131.686h-130.181l100.915 136.259h149.355zM495.398 913.972v-4.57227
l-105.961 -131.687h-136.236l92.8428 136.259h149.354z" />
    <glyph glyph-name="ohungarumlaut" unicode="&#x151;" horiz-adv-x="605" 
d="M32 0zM302 -16q-63 0 -113 18.5t-85 53t-53.5 83t-18.5 107.5q0 56 19 103.5t54.5 82t85 54t111.5 19.5t112 -19.5t85.5 -54t54.5 -82t19 -103.5q0 -59 -18.5 -107.5t-54 -83t-85.5 -53t-113 -18.5zM302 112q33 0 56.5 11t39 29.5t22.5 43t7 50.5q0 23 -7.5 46.5
t-22.5 42t-38.5 30t-56.5 11.5q-32 0 -55.5 -11.5t-38.5 -30t-22.5 -42t-7.5 -46.5q0 -25 7 -49t22 -43t38.5 -30.5t56.5 -11.5zM556.903 692.072v-4.14453l-112.739 -119.365h-122.213l94.7393 123.51h140.213zM371.216 692.9v-4.14453l-99.4756 -119.364h-127.897
l87.1592 123.509h140.214z" />
    <glyph glyph-name="OE" unicode="&#x152;" horiz-adv-x="1038" 
d="M990 2h-463q-29 -9 -61.5 -14t-67.5 -5q-92 0 -159.5 27.5t-111.5 77t-66 117.5t-22 148t22.5 147t67.5 115t112 75t157 27q35 0 68.5 -5.5t59.5 -10.5h456v-139h-315v-137h296v-135h-296v-148h323v-140zM195 352q0 -45 12.5 -88t38.5 -77t66.5 -54.5t97.5 -20.5
q30 0 60 6t57 21v423q-32 14 -59.5 20.5t-62.5 6.5q-99 0 -154 -64t-56 -173z" />
    <glyph glyph-name="oe" unicode="&#x153;" horiz-adv-x="956" 
d="M302 -11q-63 0 -113 19t-85 53.5t-53.5 81.5t-18.5 103t19 103.5t54.5 82.5t85 54.5t111.5 19.5q61 0 110 -24.5t78 -66.5q29 43 77 67.5t108 24.5q63 0 114 -19.5t84.5 -58.5t47 -96.5t1.5 -133.5h-366q5 -36 40.5 -61.5t96.5 -25.5q29 0 65.5 8t62.5 31l81 -90
q-40 -39 -98 -56.5t-114 -17.5q-68 0 -117.5 26t-80.5 68q-29 -42 -78 -67t-112 -25zM302 118q33 0 57 11.5t40 29.5t23.5 41t7.5 46t-8 46.5t-23.5 42t-39.5 30t-57 11.5q-32 0 -55.5 -11.5t-38.5 -30t-22.5 -42t-7.5 -46.5q0 -22 7 -45t22 -41.5t38.5 -30t56.5 -11.5z
M796 304q-1 20 -11 35t-26.5 25t-37.5 15t-43 5q-44 0 -77.5 -21.5t-44.5 -58.5h240z" />
    <glyph glyph-name="Racute" unicode="&#x154;" horiz-adv-x="725" 
d="M78 0zM699 0h-173l-179 230h-113v-230h-156v700h332q63 0 111.5 -19.5t81.5 -52.5t49.5 -75.5t16.5 -88.5q0 -34 -6.5 -66t-24.5 -60t-49.5 -52t-81.5 -42l192 -232v-12zM234 566v-204h178q27 0 46.5 9t32 23.5t18.5 31.5t6 34q0 18 -6.5 37t-19 34t-32.5 25t-47 10h-176
zM496.988 907.082l-111.029 -135.312h-120.602v6.71777l70.8291 134.352h160.802v-5.75781z" />
    <glyph glyph-name="racute" unicode="&#x155;" horiz-adv-x="454" 
d="M61 0zM195 493l11 -54q25 35 57.5 50.5t74.5 15.5q70 0 121 -45l-60 -114q-34 25 -79 25q-23 0 -44 -7.5t-37 -22t-25 -35.5t-9 -49v-257h-144v493h134zM376.636 698.863l-102.746 -125.079h-111.604v6.20898l65.5449 124.192h148.805v-5.32227z" />
    <glyph glyph-name="Rcommaaccent" unicode="&#x156;" horiz-adv-x="725" 
d="M78 0zM699 0h-173l-179 230h-113v-230h-156v700h332q63 0 111.5 -19.5t81.5 -52.5t49.5 -75.5t16.5 -88.5q0 -34 -6.5 -66t-24.5 -60t-49.5 -52t-81.5 -42l192 -232v-12zM234 566v-204h178q27 0 46.5 9t32 23.5t18.5 31.5t6 34q0 18 -6.5 37t-19 34t-32.5 25t-47 10h-176
zM460 -120q0 -38 -15.5 -79t-29.5 -86h-77l15 104q-24 4 -39 18.5t-15 40.5q0 39 25 57.5t55.5 18.5t55.5 -19t25 -55z" />
    <glyph glyph-name="rcommaaccent" unicode="&#x157;" horiz-adv-x="454" 
d="M54 0zM195 493l11 -54q25 35 57.5 50.5t74.5 15.5q70 0 121 -45l-60 -114q-34 25 -79 25q-23 0 -44 -7.5t-37 -22t-25 -35.5t-9 -49v-257h-144v493h134zM210.445 -123.926q0 -36.8564 -15.0186 -76.623q-15.0186 -39.7656 -28.584 -83.4121h-74.6074l14.5342 100.871
q-23.2549 3.87891 -37.7891 17.9434q-14.5342 14.0635 -14.5342 39.2812q0 37.8262 24.2236 55.7695t53.7754 17.9434q29.5527 0 53.7764 -18.4287q24.2236 -18.4277 24.2236 -53.3447z" />
    <glyph glyph-name="Rcaron" unicode="&#x158;" horiz-adv-x="725" 
d="M78 0zM699 0h-173l-179 230h-113v-230h-156v700h332q63 0 111.5 -19.5t81.5 -52.5t49.5 -75.5t16.5 -88.5q0 -34 -6.5 -66t-24.5 -60t-49.5 -52t-81.5 -42l192 -232v-12zM234 566v-204h178q27 0 46.5 9t32 23.5t18.5 31.5t6 34q0 18 -6.5 37t-19 34t-32.5 25t-47 10h-176
zM167.766 905.752h137.84l43.7285 -37.9854l46.5811 37.9854h133.087v-5.69727l-147.347 -132.951h-71.2959l-142.594 132.951v5.69727z" />
    <glyph glyph-name="rcaron" unicode="&#x159;" horiz-adv-x="454" 
d="M61 0zM195 493l11 -54q25 35 57.5 50.5t74.5 15.5q70 0 121 -45l-60 -114q-34 25 -79 25q-23 0 -44 -7.5t-37 -22t-25 -35.5t-9 -49v-257h-144v493h134zM79.5664 703.095h130.884l41.5225 -35.8916l44.2295 35.8916h126.371v-5.38379l-139.911 -125.619h-67.6982
l-135.397 125.619v5.38379z" />
    <glyph glyph-name="Sacute" unicode="&#x15a;" horiz-adv-x="654" 
d="M24 0zM491 529q-31 29 -75 43.5t-87 14.5q-25 0 -47.5 -5.5t-39.5 -15t-27 -23.5t-10 -32q0 -24 11 -39t31 -24t47.5 -13.5t60.5 -7.5q52 -5 100.5 -18t86 -38.5t60 -66.5t22.5 -102q0 -58 -25 -100t-66 -69t-94 -39.5t-110 -12.5q-44 -1 -89 7t-86 26t-74.5 45t-55.5 63
l93 96q19 -26 45.5 -44.5t55 -30.5t57.5 -17.5t55 -5.5q63 0 101.5 22t38.5 60q1 45 -34 66t-107 27q-55 5 -105.5 16t-89 35t-61 63.5t-21.5 100.5q0 52 23 91.5t61.5 65.5t88.5 39t103 13q81 0 144 -21.5t117 -83.5zM497.165 920.425l-115.172 -139.864h-125.101v6.94336
l73.4717 138.873h166.801v-5.95215z" />
    <glyph glyph-name="sacute" unicode="&#x15b;" horiz-adv-x="497" 
d="M24 0zM372 353q-28 19 -55.5 27t-61.5 8q-35 0 -53 -11.5t-18 -28.5q0 -42 73 -43q36 -1 74 -7t69.5 -22.5t51.5 -47.5t20 -82q0 -29 -11.5 -58t-37.5 -52.5t-67 -38.5t-100 -15q-27 0 -55 3.5t-57 12.5t-59 25.5t-61 42.5l62 100q46 -36 89.5 -47.5t82.5 -12.5
q32 -1 53.5 10.5t20.5 29.5q0 17 -17 29.5t-67 14.5q-35 1 -71.5 9.5t-66.5 27t-49.5 48t-19.5 73.5q0 41 18 71t48 49.5t68 28.5t79 9q57 0 103.5 -15t85.5 -49zM402.812 701.206l-106.889 -129.632h-116.103v6.43555l68.1875 128.712h154.804v-5.51562z" />
    <glyph glyph-name="Scircumflex" unicode="&#x15c;" horiz-adv-x="654" 
d="M24 0zM491 529q-31 29 -75 43.5t-87 14.5q-25 0 -47.5 -5.5t-39.5 -15t-27 -23.5t-10 -32q0 -24 11 -39t31 -24t47.5 -13.5t60.5 -7.5q52 -5 100.5 -18t86 -38.5t60 -66.5t22.5 -102q0 -58 -25 -100t-66 -69t-94 -39.5t-110 -12.5q-44 -1 -89 7t-86 26t-74.5 45t-55.5 63
l93 96q19 -26 45.5 -44.5t55 -30.5t57.5 -17.5t55 -5.5q63 0 101.5 22t38.5 60q1 45 -34 66t-107 27q-55 5 -105.5 16t-89 35t-61 63.5t-21.5 100.5q0 52 23 91.5t61.5 65.5t88.5 39t103 13q81 0 144 -21.5t117 -83.5zM380 929l149 -140v-5h-140l-47 42l-46 -42h-141v5
l150 140h75z" />
    <glyph glyph-name="scircumflex" unicode="&#x15d;" horiz-adv-x="497" 
d="M24 0zM372 353q-28 19 -55.5 27t-61.5 8q-35 0 -53 -11.5t-18 -28.5q0 -42 73 -43q36 -1 74 -7t69.5 -22.5t51.5 -47.5t20 -82q0 -29 -11.5 -58t-37.5 -52.5t-67 -38.5t-100 -15q-27 0 -55 3.5t-57 12.5t-59 25.5t-61 42.5l62 100q46 -36 89.5 -47.5t82.5 -12.5
q32 -1 53.5 10.5t20.5 29.5q0 17 -17 29.5t-67 14.5q-35 1 -71.5 9.5t-66.5 27t-49.5 48t-19.5 73.5q0 41 18 71t48 49.5t68 28.5t79 9q57 0 103.5 -15t85.5 -49zM284.167 712.164l134.658 -136.138v-4.8623h-126.524l-42.4766 40.8418l-41.5723 -40.8418h-127.429v4.8623
l135.562 136.138h67.7812z" />
    <glyph glyph-name="Scedilla" unicode="&#x15e;" horiz-adv-x="662" 
d="M493 534q-31 29 -75 43.5t-87 14.5q-25 0 -47.5 -5.5t-39.5 -15t-27 -23.5t-10 -32q0 -24 11 -39t31 -24t47.5 -13.5t60.5 -7.5q52 -5 100.5 -18t86 -38.5t60 -66.5t22.5 -102q0 -50 -18 -87.5t-49.5 -64t-73 -42.5t-87.5 -22l-15 -44q36 -2 59 -13.5t35.5 -28
t15.5 -35.5t0 -37q-6 -32 -30 -54.5t-55 -33.5q-27 -9 -57 -10t-58 6.5t-52.5 23t-40.5 39.5l63 49q12 -14 32 -23q13 -5 26.5 -6.5t25.5 1t21 8t12 15.5q4 13 -4.5 23t-23 14.5t-30.5 2t-27 -12.5l-37 27l32 85q-40 3 -79 13t-73.5 27.5t-63.5 42.5t-48 57l93 96
q19 -26 45.5 -44.5t55 -30.5t57.5 -17.5t55 -5.5q63 0 101.5 22t38.5 60q1 45 -34 66t-107 27q-55 5 -105.5 16t-89 35t-61 63.5t-21.5 100.5q0 52 23 91.5t61.5 65.5t88.5 39t103 13q81 0 144 -21.5t117 -83.5z" />
    <glyph glyph-name="scedilla" unicode="&#x15f;" horiz-adv-x="497" 
d="M372 353q-28 19 -55.5 27t-61.5 8q-35 0 -53 -11.5t-18 -28.5q0 -42 73 -43q36 -1 74 -7t69.5 -22.5t51.5 -47.5t20 -82q0 -26 -9.5 -52t-29.5 -48.5t-52 -38.5t-78 -22l-11 -34q25 0 47 -8t37 -22t21 -34.5t0 -46.5q-5 -24 -19.5 -42.5t-35.5 -30.5t-46 -17.5t-50 -4.5
q-36 2 -68.5 18.5t-52.5 46.5l58 45q9 -11 25.5 -18.5t34 -9.5t33 3.5t21.5 21.5q4 13 -4.5 23.5t-22.5 15.5t-29.5 3.5t-24.5 -11.5l-34 26l29 75q-45 5 -91 22.5t-96 59.5l62 100q46 -36 89.5 -47.5t82.5 -12.5q32 -1 53.5 10.5t20.5 29.5q0 17 -17 29.5t-67 14.5
q-35 1 -71.5 9.5t-66.5 27t-49.5 48t-19.5 73.5q0 41 18 71t48 49.5t68 28.5t79 9q57 0 103.5 -15t85.5 -49z" />
    <glyph glyph-name="Scaron" unicode="&#x160;" horiz-adv-x="654" 
d="M24 0zM491 529q-31 29 -75 43.5t-87 14.5q-25 0 -47.5 -5.5t-39.5 -15t-27 -23.5t-10 -32q0 -24 11 -39t31 -24t47.5 -13.5t60.5 -7.5q52 -5 100.5 -18t86 -38.5t60 -66.5t22.5 -102q0 -58 -25 -100t-66 -69t-94 -39.5t-110 -12.5q-44 -1 -89 7t-86 26t-74.5 45t-55.5 63
l93 96q19 -26 45.5 -44.5t55 -30.5t57.5 -17.5t55 -5.5q63 0 101.5 22t38.5 60q1 45 -34 66t-107 27q-55 5 -105.5 16t-89 35t-61 63.5t-21.5 100.5q0 52 23 91.5t61.5 65.5t88.5 39t103 13q81 0 144 -21.5t117 -83.5zM145.263 913.418h146.522l46.4824 -38.0801
l49.5146 38.0801h141.47v-5.71191l-156.627 -133.283h-75.7881l-151.574 133.283v5.71191z" />
    <glyph glyph-name="scaron" unicode="&#x161;" horiz-adv-x="497" 
d="M24 0zM372 353q-28 19 -55.5 27t-61.5 8q-35 0 -53 -11.5t-18 -28.5q0 -42 73 -43q36 -1 74 -7t69.5 -22.5t51.5 -47.5t20 -82q0 -29 -11.5 -58t-37.5 -52.5t-67 -38.5t-100 -15q-27 0 -55 3.5t-57 12.5t-59 25.5t-61 42.5l62 100q46 -36 89.5 -47.5t82.5 -12.5
q32 -1 53.5 10.5t20.5 29.5q0 17 -17 29.5t-67 14.5q-35 1 -71.5 9.5t-66.5 27t-49.5 48t-19.5 73.5q0 41 18 71t48 49.5t68 28.5t79 9q57 0 103.5 -15t85.5 -49zM84.2891 703.418h135.079l42.8525 -38.0801l45.6475 38.0801h130.422v-5.71191l-144.396 -133.283h-69.8682
l-139.737 133.283v5.71191z" />
    <glyph glyph-name="Tcommaaccent" unicode="&#x162;" horiz-adv-x="617" 
d="M230 561h-213v139h581v-139h-213v-561h-53l-14 -49q59 -7 90 -37t27 -69q-5 -49 -40 -78t-81.5 -36.5t-94.5 9t-79 59.5l63 55q19 -20 39.5 -27.5t37.5 -6.5q23 2 34.5 10.5t13.5 19.5q2 10 -4.5 21t-20 18.5t-34.5 9.5t-48 -5l-23 16l32 91v560z" />
    <glyph glyph-name="tcommaaccent" unicode="&#x163;" horiz-adv-x="421" 
d="M257 629v-138h125v-120h-126v-190q0 -39 18 -52.5t38 -13.5q13 0 30.5 3t29.5 9l33 -120q-27 -11 -51 -15.5t-53 -6.5h-6l-9 -26q35 -2 57.5 -14t34.5 -28.5t15 -35.5t0 -35q-10 -49 -47 -73.5t-82 -27.5t-88.5 13t-65.5 49l55 56q14 -14 34 -21t38.5 -7.5t32.5 5.5
t17 19q3 15 -6 26t-24.5 17t-34.5 6.5t-34 -5.5l-20 11l32 87q-40 19 -63.5 62t-23.5 118v190h-88v120h88v122z" />
    <glyph glyph-name="Tcaron" unicode="&#x164;" horiz-adv-x="615" 
d="M17 0zM230 561h-213v139h581v-139h-213v-561h-155v561zM115 906h145l46 -40l49 40h140v-6l-155 -140h-75l-150 140v6z" />
    <glyph glyph-name="tcaron" unicode="&#x165;" horiz-adv-x="496" 
d="M252 629v-138h95v-120h-96v-186q0 -20 5.5 -32.5t14.5 -20t20 -10.5t21 -3q13 0 30.5 3t29.5 9l33 -120q-27 -11 -51 -15.5t-53 -6.5q-40 -2 -75 7t-61.5 31.5t-41.5 61t-15 96.5v186h-83v120h83v122zM422 634h131l-75 -216h-100z" />
    <glyph glyph-name="Tbar" unicode="&#x166;" horiz-adv-x="624" 
d="M109 401h125v160h-213v139h581v-139h-213v-160h110v-117h-110v-284h-155v284h-125v117z" />
    <glyph glyph-name="tbar" unicode="&#x167;" horiz-adv-x="420" 
d="M258 629v-138h125v-120h-126v-76h96v-91h-96v-23q0 -39 18 -52.5t38 -13.5q13 0 30.5 3t29.5 9l33 -120q-27 -11 -51 -15.5t-53 -6.5q-40 -2 -74.5 7t-59.5 31.5t-39.5 61t-14.5 96.5v23h-69v91h69v76h-88v120h88v122z" />
    <glyph glyph-name="Utilde" unicode="&#x168;" horiz-adv-x="774" 
d="M68 0zM706 699v-391q0 -80 -22 -140.5t-63 -101.5t-98.5 -62t-129.5 -21q-66 0 -125.5 19.5t-103.5 59.5t-70 101.5t-26 144.5v391h155v-391q0 -91 45.5 -138t126.5 -47q43 0 73 14t48.5 38.5t26.5 58.5t8 74v391h155zM195.676 823.392q11.709 25.5352 26.6113 46.2822
q14.9023 20.748 33.5303 34.5791t42.0459 18.0869t52.1582 -3.19141q19.1602 -5.32031 38.8525 -15.4277t36.7236 -14.8955t31.4014 0.532227t23.9502 30.8555l94.7363 -46.8145q-29.8047 -69.1582 -65.9961 -90.4375t-81.9629 -5.32031q-23.418 7.44824 -43.6426 18.0879
t-38.3203 14.3633q-18.0957 3.72461 -32.998 -3.72363t-26.6113 -36.1748z" />
    <glyph glyph-name="utilde" unicode="&#x169;" 
d="M54 0zM199 494v-267q0 -115 102 -115q25 0 45.5 10t35.5 26.5t23 38.5t8 46v261h142v-495h-130l-5 60q-33 -45 -74 -60.5t-86 -14.5q-42 0 -79 11t-65.5 38t-45 74t-16.5 119v268h145zM126.345 620.162q10.7227 24.6973 24.3701 44.7646q13.6465 20.0664 30.7051 33.4443
q17.0596 13.377 38.5049 17.4932t47.7646 -3.08691q17.5459 -5.14551 35.5801 -14.9209q18.0332 -9.77637 33.6299 -14.4072t28.7568 0.514648q13.1592 5.14551 21.9326 29.8428l86.7568 -45.2783q-27.2939 -66.8887 -60.4375 -87.4697q-33.1426 -20.5811 -75.0586 -5.14551
q-21.4453 7.2041 -39.9668 17.4941t-35.0928 13.8926q-16.5713 3.60156 -30.2178 -3.60254q-13.6475 -7.20312 -24.3701 -34.9873z" />
    <glyph glyph-name="Umacron" unicode="&#x16a;" horiz-adv-x="774" 
d="M68 0zM706 699v-391q0 -80 -22 -140.5t-63 -101.5t-98.5 -62t-129.5 -21q-66 0 -125.5 19.5t-103.5 59.5t-70 101.5t-26 144.5v391h155v-391q0 -91 45.5 -138t126.5 -47q43 0 73 14t48.5 38.5t26.5 58.5t8 74v391h155zM218.632 896.392h341.997v-125h-341.997v125z" />
    <glyph glyph-name="umacron" unicode="&#x16b;" 
d="M54 0zM199 494v-267q0 -115 102 -115q25 0 45.5 10t35.5 26.5t23 38.5t8 46v261h142v-495h-130l-5 60q-33 -45 -74 -60.5t-86 -14.5q-42 0 -79 11t-65.5 38t-45 74t-16.5 119v268h145zM145.428 710.087h318.989v-117.997h-318.989v117.997z" />
    <glyph glyph-name="Ubreve" unicode="&#x16c;" horiz-adv-x="774" 
d="M68 0zM706 699v-391q0 -80 -22 -140.5t-63 -101.5t-98.5 -62t-129.5 -21q-66 0 -125.5 19.5t-103.5 59.5t-70 101.5t-26 144.5v391h155v-391q0 -91 45.5 -138t126.5 -47q43 0 73 14t48.5 38.5t26.5 58.5t8 74v391h155zM555.793 904.521
q1.04102 -33.6572 -10.9336 -60.3037q-11.9756 -26.6455 -34.3643 -45.8115q-22.3877 -19.166 -53.1074 -29.4502q-30.7188 -10.2842 -65.082 -10.2842q-32.2812 0 -64.041 8.88184q-31.7607 8.88184 -56.2314 27.1133q-24.4717 18.2305 -38.0088 45.8115t-9.37207 64.043
h120.794q0 -13.0889 5.20605 -21.0361q5.20703 -7.94727 12.4961 -12.6211q7.28906 -4.6748 15.0996 -6.07715q7.80957 -1.40234 14.0576 -1.40234t13.5371 1.40234t14.0576 5.60938t11.4551 12.1543q4.68555 7.94629 4.68555 21.9707h119.752z" />
    <glyph glyph-name="ubreve" unicode="&#x16d;" 
d="M54 0zM199 494v-267q0 -115 102 -115q25 0 45.5 10t35.5 26.5t23 38.5t8 46v261h142v-495h-130l-5 60q-33 -45 -74 -60.5t-86 -14.5q-42 0 -79 11t-65.5 38t-45 74t-16.5 119v268h145zM472 706.69q1 -32.3789 -10.5 -58.0127q-11.5 -25.6328 -33 -44.0703
q-21.5 -18.4385 -51 -28.332t-62.5 -9.89355q-31 0 -61.5 8.54395q-30.5 8.54492 -54 26.084q-23.5 17.5381 -36.5 44.0703q-13 26.5332 -9 61.6104h116q0 -12.5918 5 -20.2373q5 -7.64453 12 -12.1416t14.5 -5.84668q7.5 -1.34863 13.5 -1.34863t13 1.34863
q7 1.34961 13.5 5.39648q6.5 4.04785 11 11.6934q4.5 7.64453 4.5 21.1357h115z" />
    <glyph glyph-name="Uring" unicode="&#x16e;" horiz-adv-x="774" 
d="M68 0zM706 699v-391q0 -80 -22 -140.5t-63 -101.5t-98.5 -62t-129.5 -21q-66 0 -125.5 19.5t-103.5 59.5t-70 101.5t-26 144.5v391h155v-391q0 -91 45.5 -138t126.5 -47q43 0 73 14t48.5 38.5t26.5 58.5t8 74v391h155zM256.891 868.015q0 32.3086 12.2021 54.2959
q12.2021 21.9883 31.9141 35.4502t44.1172 19.7441t48.8105 6.28223q23.4668 0 46.9326 -6.28223q23.4668 -6.28223 42.2402 -20.1924q18.7734 -13.9111 30.0371 -35.8984q11.2637 -21.9883 11.2637 -53.3994q0 -28.7188 -11.7334 -49.8096
q-11.7334 -21.0898 -30.5059 -35.4492q-18.7734 -14.3594 -41.7705 -21.0898q-22.9971 -6.73145 -46.4639 -6.73145t-47.8721 5.83301q-24.4043 5.83398 -44.1162 18.8477q-19.7119 13.0127 -32.3838 34.5518t-12.6719 53.8477zM391.118 916.478
q-27.2207 0 -40.3623 -14.8076q-13.1406 -14.8086 -13.1406 -32.3086q0 -17.501 13.6104 -31.8604t39.8926 -14.3594q27.2217 0 40.3623 14.3594q13.1416 14.3594 12.6719 31.8604q-0.46875 17.5 -14.0791 32.3086q-13.6113 14.8076 -38.9551 14.8076z" />
    <glyph glyph-name="uring" unicode="&#x16f;" 
d="M54 0zM199 494v-267q0 -115 102 -115q25 0 45.5 10t35.5 26.5t23 38.5t8 46v261h142v-495h-130l-5 60q-33 -45 -74 -60.5t-86 -14.5q-42 0 -79 11t-65.5 38t-45 74t-16.5 119v268h145zM184.61 660.169q0 29.3643 11.5664 49.3486t30.25 32.2188
q18.6836 12.2354 41.8164 17.9453q23.1328 5.70898 46.2646 5.70898q22.2432 0 44.4854 -5.70898q22.2432 -5.70996 40.0371 -18.3525q17.7939 -12.6436 28.4707 -32.627q10.6768 -19.9844 10.6768 -48.5332q0 -26.1016 -11.1211 -45.2695
q-11.1221 -19.1689 -28.916 -32.2197t-39.5918 -19.168t-44.041 -6.11719q-22.2422 0 -45.375 5.30176t-41.8164 17.1289t-30.6943 31.4033q-12.0117 19.5762 -12.0117 48.9404zM311.839 704.216q-25.8018 0 -38.2578 -13.459q-12.4551 -13.458 -12.4551 -29.3643
q0 -15.9053 12.9004 -28.9561t37.8125 -13.0508q25.8018 0 38.2578 13.0508t12.0107 28.9561q-0.444336 15.9062 -13.3457 29.3643q-12.9004 13.459 -36.9229 13.459z" />
    <glyph glyph-name="Uhungarumlaut" unicode="&#x170;" horiz-adv-x="774" 
d="M68 0zM706 699v-391q0 -80 -22 -140.5t-63 -101.5t-98.5 -62t-129.5 -21q-66 0 -125.5 19.5t-103.5 59.5t-70 101.5t-26 144.5v391h155v-391q0 -91 45.5 -138t126.5 -47q43 0 73 14t48.5 38.5t26.5 58.5t8 74v391h155zM648.772 907.181v-4.90137l-117.642 -141.162
h-127.527l98.8584 146.063h146.311zM455.01 908.16v-4.90137l-103.802 -141.161h-133.459l90.9502 146.062h146.311z" />
    <glyph glyph-name="uhungarumlaut" unicode="&#x171;" 
d="M54 0zM199 494v-267q0 -115 102 -115q25 0 45.5 10t35.5 26.5t23 38.5t8 46v261h142v-495h-130l-5 60q-33 -45 -74 -60.5t-86 -14.5q-42 0 -79 11t-65.5 38t-45 74t-16.5 119v268h145zM552.938 700.996v-4.4082l-113.008 -126.949h-122.504l94.9648 131.357h140.547z
M366.808 701.877v-4.40723l-99.7129 -126.949h-128.202l87.3672 131.356h140.548z" />
    <glyph glyph-name="Uogonek" unicode="&#x172;" horiz-adv-x="776" 
d="M706 699v-391q0 -115 -45 -190.5t-126 -108.5h1q-37 -13 -43.5 -33.5t5.5 -35t36 -16.5t48 24l82 -70q-18 -29 -45 -47t-58.5 -25.5t-63.5 -3.5t-60 19q-21 11 -35.5 30t-21.5 41.5t-6 47.5q1 22 10 43q-65 1 -122.5 21.5t-100.5 60.5t-68 100.5t-25 142.5v391h155v-391
q0 -91 45.5 -138t126.5 -47q43 0 73 14t48.5 38.5t26.5 58.5t8 74v391h155z" />
    <glyph glyph-name="uogonek" unicode="&#x173;" horiz-adv-x="615" 
d="M199 494v-267q0 -115 102 -115q25 0 45.5 10t35.5 26.5t23 38.5t8 46v261h142v-563q-13 3 -31.5 0t-35.5 -11.5t-26.5 -22t-3.5 -32.5q4 -12 15 -20t27 -9.5t35.5 5.5t39.5 26l45 -61q-24 -32 -63 -48.5t-79.5 -16t-76 19.5t-52.5 57q-10 22 -10 47t10 48.5t29 42
t48 29.5l-6 74q-33 -45 -74 -60.5t-86 -14.5q-42 0 -79 11t-65.5 38t-45 74t-16.5 119v268h145z" />
    <glyph glyph-name="Wcircumflex" unicode="&#x174;" horiz-adv-x="1073" 
d="M2 1zM814 1h-128l-150 391l-145 -391h-128l-261 699h175l87 -239l63 -226l157 465h102l164 -465l60 225l83 240h175zM576.771 931.507l162.15 -151.587v-5.41406h-152.356l-51.1484 45.4766l-50.0596 -45.4766h-153.444v5.41406l163.239 151.587h81.6191z" />
    <glyph glyph-name="wcircumflex" unicode="&#x175;" horiz-adv-x="845" 
d="M9 0zM479 494l95 -315l32 112l69 203h161l-183 -497h-143l-88 247l-87 -247h-144l-182 497h161l69 -203l32 -112l95 315h113zM464.142 718.041l151.392 -139.034v-4.96582h-142.247l-47.7549 41.7109l-46.7383 -41.7109h-143.264v4.96582l152.408 139.034h76.2041z" />
    <glyph glyph-name="Ycircumflex" unicode="&#x176;" horiz-adv-x="704" 
d="M4 0zM352 422l177 278h179v-8l-280 -414v-278h-156v278l-268 414v8h180zM392.96 920.082l154.175 -138.068v-4.93164h-144.862l-48.6318 41.4209l-47.5977 -41.4209h-145.896v4.93164l155.209 138.068h77.6045z" />
    <glyph glyph-name="ycircumflex" unicode="&#x177;" horiz-adv-x="573" 
d="M3 0zM568 494l-303 -716h-157l102 237l-207 479h162l123 -311l121 311h159zM329.975 722.754l165.733 -145.794v-5.20703h-155.723l-52.2783 43.7383l-51.166 -43.7383h-156.835v5.20703l166.846 145.794h83.4229z" />
    <glyph glyph-name="Ydieresis" unicode="&#x178;" horiz-adv-x="704" 
d="M4 0zM352 422l177 278h179v-8l-280 -414v-278h-156v278l-268 414v8h180zM150.181 836.834q0 24.75 11.4258 41.4082q11.4268 16.6582 28.0908 25.2246q16.6631 8.56738 36.1836 8.56738t36.1846 -8.56738q16.6631 -8.56641 28.0898 -25.2246t11.4268 -41.4082
t-11.4268 -41.4082t-28.0898 -24.749q-16.6641 -8.09082 -36.1846 -8.09082t-36.1836 8.09082q-16.6641 8.09082 -28.0908 24.749q-11.4258 16.6582 -11.4258 41.4082zM397.755 836.834q0 24.75 11.4268 41.4082q11.4258 16.6582 28.0898 25.2246
q16.6641 8.56738 36.1836 8.56738q19.5205 0 36.1846 -8.56738q16.6631 -8.56641 28.0898 -25.2246t11.4268 -41.4082t-11.4268 -41.4082t-28.0898 -24.749q-16.6641 -8.09082 -36.1846 -8.09082q-19.5195 0 -36.1836 8.09082t-28.0898 24.749
q-11.4268 16.6582 -11.4268 41.4082z" />
    <glyph glyph-name="Zacute" unicode="&#x179;" horiz-adv-x="628" 
d="M31 0zM48 700h535v-68l-336 -486h344v-146h-560v81l342 485h-325v134zM472 908l-116 -141h-126v7l74 140h168v-6z" />
    <glyph glyph-name="zacute" unicode="&#x17a;" horiz-adv-x="479" 
d="M27 0zM434 494v-70l-207 -291h217v-133h-417v61l217 308h-198v125h388zM406.945 692.543l-107.851 -122.772h-117.148v6.0957l68.8018 121.901h156.197v-5.22461z" />
    <glyph glyph-name="Zdotaccent" unicode="&#x17b;" horiz-adv-x="628" 
d="M31 0zM48 700h535v-68l-336 -486h344v-146h-560v81l342 485h-325v134zM231.195 847.137q0 39.6289 28.6094 58.9482t63.3896 19.3193t63.3906 -19.3193q28.6094 -19.3193 28.6094 -58.9482q0 -38.6387 -28.6094 -57.957q-28.6104 -19.3193 -63.3906 -19.3193
t-63.3896 19.3193q-28.6094 19.3184 -28.6094 57.957z" />
    <glyph glyph-name="zdotaccent" unicode="&#x17c;" horiz-adv-x="479" 
d="M27 0zM434 494v-70l-207 -291h217v-133h-417v61l217 308h-198v125h388zM174.157 648.688q0 35.7402 26.4316 53.1631q26.4326 17.4238 58.5664 17.4238q32.1328 0 58.5654 -17.4238q26.4326 -17.4229 26.4326 -53.1631q0 -34.8457 -26.4326 -52.2686
q-26.4326 -17.4238 -58.5654 -17.4238q-32.1338 0 -58.5664 17.4238q-26.4316 17.4229 -26.4316 52.2686z" />
    <glyph glyph-name="Zcaron" unicode="&#x17d;" horiz-adv-x="628" 
d="M31 0zM48 700h535v-68l-336 -486h344v-146h-560v81l342 485h-325v134zM135 907h145l46 -40l49 40h140v-6l-155 -140h-75l-150 140v6z" />
    <glyph glyph-name="zcaron" unicode="&#x17e;" horiz-adv-x="479" 
d="M27 0zM434 494v-70l-207 -291h217v-133h-417v61l217 308h-198v125h388zM72.4863 696.88h136.221l43.2148 -36.165l46.0332 36.165h131.523v-5.4248l-145.615 -126.576h-70.459l-140.918 126.576v5.4248z" />
    <glyph glyph-name="longs" unicode="&#x17f;" horiz-adv-x="337" 
d="M112 0v359h-89v126h89v29q0 54 17.5 92t46 62t64.5 35.5t72 11.5q34 0 65.5 -7t63.5 -27l-51 -108q-20 14 -34.5 16.5t-32.5 2.5q-27 0 -47 -19t-20 -59v-514h-144z" />
    <glyph glyph-name="florin" unicode="&#x192;" horiz-adv-x="498" 
d="M294 364v-369q0 -73 -30 -118.5t-76 -64.5t-101.5 -12.5t-106.5 38.5l49 101q54 -29 87.5 -15t33.5 71v369h-101v121h101v29q0 54 17.5 91.5t46 61.5t64.5 35t72 11q42 0 73.5 -11t63.5 -31l-49 -101q-17 11 -35.5 15.5t-35.5 4.5q-32 0 -52.5 -18.5t-20.5 -57.5v-29h137
v-121h-137z" />
    <glyph glyph-name="Aringacute" unicode="&#x1fa;" horiz-adv-x="790" 
d="M395 542l-121 -284h241zM394 781q-28 0 -42 -16.5t-14 -36.5t14 -36.5t42 -16.5q29 0 43 16.5t13.5 36.5t-15 36.5t-41.5 16.5zM252 733q0 34 14 57.5t35.5 38t47 20.5t48.5 6t47.5 -6.5t45 -20.5t33.5 -37.5t13 -57.5q0 -26 -9.5 -47t-24.5 -35l292 -651h-169l-51 120
h-359l-51 -120h-168l290 648q-16 14 -25 35t-9 50zM573 976l-121 -96h-131v5l77 95h175v-4z" />
    <glyph glyph-name="aringacute" unicode="&#x1fb;" horiz-adv-x="639" 
d="M33 0zM443 494h135v-494h-130l-8 62q-12 -21 -30.5 -35.5t-39.5 -24t-42.5 -13.5t-39.5 -4q-56 0 -102.5 18t-80.5 52t-53 82.5t-19 109.5t20 109.5t55 82t82 50.5t102 16q48 0 87 -17.5t59 -50.5zM307 378q-27 0 -50.5 -9t-41.5 -26t-28 -41t-10 -55t10 -55t28 -40.5
t41.5 -25.5t50.5 -9q30 0 54.5 11t41.5 28.5t26 40t9 45.5q0 27 -8.5 51.5t-25 43t-41 30t-56.5 11.5zM192.1 639.99q0 29.3535 11.4668 49.3301t29.9902 32.207q18.5244 12.2305 41.458 17.9385q22.9346 5.70703 45.8682 5.70703q22.0527 0 44.1045 -5.70703
q22.0518 -5.70801 39.6934 -18.3457q17.6416 -12.6387 28.2266 -32.6152t10.585 -48.5146q0 -26.0918 -11.0264 -45.2529q-11.0254 -19.1611 -28.667 -32.207t-39.2529 -19.1611q-21.6104 -6.11523 -43.6631 -6.11523q-22.0518 0 -44.9863 5.2998
q-22.9336 5.2998 -41.457 17.123t-30.4316 31.3916q-11.9082 19.5693 -11.9082 48.9219zM318.236 684.021q-25.5801 0 -37.9287 -13.4531q-12.3496 -13.4541 -12.3496 -29.3535t12.79 -28.9453q12.791 -13.0459 37.4883 -13.0459q25.5811 0 37.9297 13.0459
q12.3496 13.0459 11.9082 28.9453t-13.2314 29.3535q-12.79 13.4531 -36.6064 13.4531zM485.313 870.454l-110.725 -96.877h-120.271v4.80957l70.6348 96.1904h160.36v-4.12305z" />
    <glyph glyph-name="AEacute" unicode="&#x1fc;" horiz-adv-x="892" 
d="M0 0zM849 0h-409v109h-222l-63 -109h-182l439 700h421v-136h-253v-144h236v-132h-236v-150h269v-138zM440 246l6 254l-148 -254h142zM692.436 898.637l-119.356 -132.368h-129.646v6.57129l76.1416 131.43h172.86v-5.63281z" />
    <glyph glyph-name="aeacute" unicode="&#x1fd;" horiz-adv-x="962" 
d="M33 0zM564 205q6 -24 19 -41.5t31.5 -29.5t41 -18t45.5 -6q33 0 66.5 11t55.5 30l77 -92q-38 -41 -90 -58t-109 -17q-43 0 -85.5 16t-68.5 53l-6 -53h-105l-1 62q-8 -20 -26 -33.5t-39.5 -22t-43.5 -13t-40 -4.5q-56 0 -102.5 15t-80 46.5t-52 80t-18.5 116.5
q0 63 21 111t55.5 81t80 49.5t94.5 16.5q45 0 85 -17t65 -51l5 56h108v-50q16 19 36 31.5t41.5 20t43 10.5t41.5 3q51 0 97 -20.5t78.5 -59.5t46 -95.5t-0.5 -127.5h-366zM306 379q-54 0 -91.5 -34t-37.5 -98t37.5 -98.5t91.5 -34.5q44 0 73.5 19.5t44.5 49t15 64t-15 64
t-44.5 49t-73.5 19.5zM797 311q-5 38 -33 55.5t-62 17.5q-51 0 -85 -19t-50 -54h230zM654.812 694.206l-106.889 -129.632h-116.103v6.43555l68.1875 128.712h154.804v-5.51562z" />
    <glyph glyph-name="Oslashacute" unicode="&#x1fe;" horiz-adv-x="835" 
d="M794 350q0 -86 -27.5 -154t-77.5 -115t-119.5 -72.5t-153.5 -25.5q-36 0 -69.5 5t-64.5 14l-44 -72h-149l79 129q-62 48 -96 121t-34 170q0 85 27.5 153.5t77.5 115.5t119.5 72.5t153.5 25.5q38 0 73 -5.5t67 -15.5l44 71h150l-81 -131q60 -48 92.5 -120t32.5 -166z
M191 350q0 -48 15 -88t43 -70l230 377q-30 8 -63 8q-50 0 -91.5 -17.5t-71 -48.5t-46 -72t-16.5 -89zM641 350q0 90 -53 152l-228 -372q25 -6 56 -6q51 0 92.5 17t71 47t45.5 71.5t16 90.5zM585 926l-116 -141h-126v7l74 140h168v-6z" />
    <glyph glyph-name="oslashacute" unicode="&#x1ff;" horiz-adv-x="605" 
d="M32 0zM467.307 704.014l-104.403 -127.352h-113.403v6.32227l66.6025 126.448h151.204v-5.41895zM302 -16q-23 0 -44 2.5t-40 7.5l-29 -49h-126l56 96q-42 35 -64.5 87t-22.5 118q0 56 19 103.5t54.5 82t85 54t111.5 19.5q43 0 84 -11l33 57h126l-62 -106
q43 -35 66.5 -86t23.5 -113q0 -59 -18.5 -107.5t-54 -83t-85.5 -53t-113 -18.5zM302 112q33 0 56.5 11t39 29.5t22.5 43t7 50.5q0 37 -19 72l-121 -206h15zM178 246q0 -20 4 -39t13 -36l120 204q-3 1 -6.5 1h-6.5q-32 0 -55.5 -11.5t-38.5 -30t-22.5 -42t-7.5 -46.5z" />
    <glyph glyph-name="Scommaaccent" unicode="&#x218;" horiz-adv-x="654" 
d="M24 0zM491 529q-31 29 -75 43.5t-87 14.5q-25 0 -47.5 -5.5t-39.5 -15t-27 -23.5t-10 -32q0 -24 11 -39t31 -24t47.5 -13.5t60.5 -7.5q52 -5 100.5 -18t86 -38.5t60 -66.5t22.5 -102q0 -58 -25 -100t-66 -69t-94 -39.5t-110 -12.5q-44 -1 -89 7t-86 26t-74.5 45t-55.5 63
l93 96q19 -26 45.5 -44.5t55 -30.5t57.5 -17.5t55 -5.5q63 0 101.5 22t38.5 60q1 45 -34 66t-107 27q-55 5 -105.5 16t-89 35t-61 63.5t-21.5 100.5q0 52 23 91.5t61.5 65.5t88.5 39t103 13q81 0 144 -21.5t117 -83.5zM425.038 -136.406q0 -36.5713 -16.752 -76.0293
q-16.751 -39.459 -31.8818 -82.7676h-83.2178l16.2119 100.09q-25.9385 3.84961 -42.1494 17.8047q-16.2119 13.9551 -16.2119 38.9775q0 37.5342 27.0195 55.3379q27.0186 17.8047 59.9814 17.8047t59.9814 -18.2861q27.0186 -18.2852 27.0186 -52.9316z" />
    <glyph glyph-name="scommaaccent" unicode="&#x219;" horiz-adv-x="497" 
d="M24 0zM372 353q-28 19 -55.5 27t-61.5 8q-35 0 -53 -11.5t-18 -28.5q0 -42 73 -43q36 -1 74 -7t69.5 -22.5t51.5 -47.5t20 -82q0 -29 -11.5 -58t-37.5 -52.5t-67 -38.5t-100 -15q-27 0 -55 3.5t-57 12.5t-59 25.5t-61 42.5l62 100q46 -36 89.5 -47.5t82.5 -12.5
q32 -1 53.5 10.5t20.5 29.5q0 17 -17 29.5t-67 14.5q-35 1 -71.5 9.5t-66.5 27t-49.5 48t-19.5 73.5q0 41 18 71t48 49.5t68 28.5t79 9q57 0 103.5 -15t85.5 -49zM328.89 -129.699q0 -33.4287 -14.5371 -69.4961q-14.5361 -36.0684 -27.667 -75.6543h-72.2158
l14.0684 91.4883q-22.5088 3.51953 -36.5771 16.2744q-14.0674 12.7559 -14.0674 35.6279q0 34.3086 23.4463 50.583q23.4473 16.2744 52.0518 16.2744t52.0518 -16.7139q23.4463 -16.7148 23.4463 -48.3838z" />
    <glyph glyph-name="uni021A" unicode="&#x21a;" horiz-adv-x="615" 
d="M17 0zM230 561h-213v139h581v-139h-213v-561h-155v561zM385.373 -121.723q0 -37.5713 -15.3076 -78.1084q-15.3066 -40.5361 -29.1318 -85.0283h-76.042l14.8135 102.825q-23.7012 3.95508 -38.5146 18.291q-14.8135 14.3369 -14.8135 40.043q0 38.5596 24.6895 56.8506
q24.6885 18.291 54.8086 18.291t54.8086 -18.7852q24.6895 -18.7852 24.6895 -54.3789z" />
    <glyph glyph-name="uni021B" unicode="&#x21b;" horiz-adv-x="419" 
d="M25 0zM257 629v-138h125v-120h-126v-190q0 -39 18 -52.5t38 -13.5q13 0 30.5 3t29.5 9l33 -120q-27 -11 -51 -15.5t-53 -6.5q-40 -2 -74.5 7t-59.5 31.5t-39.5 61t-14.5 96.5v190h-88v120h88v122zM325.373 -128.723q0 -37.5713 -15.3076 -78.1084
q-15.3066 -40.5361 -29.1318 -85.0283h-76.042l14.8135 102.825q-23.7012 3.95508 -38.5146 18.291q-14.8135 14.3369 -14.8135 40.043q0 38.5596 24.6895 56.8506q24.6885 18.291 54.8086 18.291t54.8086 -18.7852q24.6895 -18.7852 24.6895 -54.3789z" />
    <glyph glyph-name="dotlessj" unicode="&#x237;" horiz-adv-x="265" 
d="M204 495v-540q0 -110 -45 -157t-128 -47q-28 0 -58 8t-58 27l49 104q31 -13 55 -12q42 4 42 77v540h143z" />
    <glyph glyph-name="circumflex" unicode="&#x2c6;" horiz-adv-x="451" 
d="M258 719l149 -140v-5h-140l-47 42l-46 -42h-141v5l150 140h75z" />
    <glyph glyph-name="caron" unicode="&#x2c7;" horiz-adv-x="434" 
d="M25 700h145l46 -40l49 40h140v-6l-155 -140h-75l-150 140v6z" />
    <glyph glyph-name="breve" unicode="&#x2d8;" horiz-adv-x="406" 
d="M358 699q1 -36 -10.5 -64.5t-33 -49t-51 -31.5t-62.5 -11q-31 0 -61.5 9.5t-54 29t-36.5 49t-9 68.5h116q0 -14 5 -22.5t12 -13.5t14.5 -6.5t13.5 -1.5t13 1.5t13.5 6t11 13t4.5 23.5h115z" />
    <glyph glyph-name="dotaccent" unicode="&#x2d9;" horiz-adv-x="276" 
d="M59 632q0 40 25.5 59.5t56.5 19.5t56.5 -19.5t25.5 -59.5q0 -39 -25.5 -58.5t-56.5 -19.5t-56.5 19.5t-25.5 58.5z" />
    <glyph glyph-name="ring" unicode="&#x2da;" horiz-adv-x="427" 
d="M67 585q0 36 13 60.5t34 39.5t47 22t52 7q25 0 50 -7t45 -22.5t32 -40t12 -59.5q0 -32 -12.5 -55.5t-32.5 -39.5t-44.5 -23.5t-49.5 -7.5t-51 6.5t-47 21t-34.5 38.5t-13.5 60zM210 639q-29 0 -43 -16.5t-14 -36t14.5 -35.5t42.5 -16q29 0 43 16t13.5 35.5t-15 36
t-41.5 16.5z" />
    <glyph glyph-name="ogonek" unicode="&#x2db;" horiz-adv-x="390" 
d="M323 -216q-20 -29 -51.5 -43.5t-66.5 -16.5q-22 -1 -45 3t-43 14t-36.5 26.5t-26.5 42.5q-4 12 -5.5 30.5t3.5 39t18 40t36.5 33t60 18.5t88.5 -3l15 -58q-6 3 -26.5 3t-41.5 -5.5t-35 -18.5t-8 -35q3 -14 15 -20t26.5 -6t28.5 4.5t23 11.5z" />
    <glyph glyph-name="tilde" unicode="&#x2dc;" horiz-adv-x="418" 
d="M26 694q11 24 25 43.5t31.5 32.5t39.5 17t49 -3q18 -5 36.5 -14.5t34.5 -14t29.5 0.5t22.5 29l89 -44q-28 -65 -62 -85t-77 -5q-22 7 -41 17t-36 13.5t-31 -3.5t-25 -34z" />
    <glyph glyph-name="hungarumlaut" unicode="&#x2dd;" horiz-adv-x="382" 
d="M458 701v-5l-119 -144h-129l100 149h148zM262 702v-5l-105 -144h-135l92 149h148z" />
    <glyph glyph-name="_375" unicode="&#x394;" horiz-adv-x="794" 
d="M777 0h-768v36l298 664h170l300 -669v-31zM214 135h355l-177 411z" />
    <glyph glyph-name="_376" unicode="&#x3a9;" horiz-adv-x="826" 
d="M413 574q-54 0 -94 -19.5t-66.5 -50t-39.5 -69t-14 -76.5q-1 -33 7.5 -66.5t26 -62.5t43 -52.5t59.5 -38.5v-139h-253v133h79q-32 23 -54 50t-35 57t-18.5 62t-5.5 64q0 75 28.5 139t78 110.5t116 73t142.5 26.5t143 -26.5t116 -73t77.5 -110.5t28.5 -139
q0 -64 -25.5 -126t-86.5 -107h78v-133h-253v139q34 15 59.5 38.5t43 52.5t26 62.5t7.5 66.5q0 38 -13.5 76.5t-40 69t-66.5 50t-94 19.5z" />
    <glyph glyph-name="pi" unicode="&#x3c0;" horiz-adv-x="671" 
d="M120 0v367h-98v126h614v-126h-98v-209q0 -32 17 -45t61 -2l14 -114q-54 -11 -97.5 -8t-74 22t-47 54.5t-16.5 90.5v211h-132v-367h-143z" />
    <glyph glyph-name="Wgrave" unicode="&#x1e80;" horiz-adv-x="1073" 
d="M2 1zM814 1h-128l-150 391l-145 -391h-128l-261 699h175l87 -239l63 -226l157 465h102l164 -465l60 225l83 240h175zM346.752 908.77h181.884l80.1152 -129.524v-6.47559h-136.412l-125.587 130.449v5.55078z" />
    <glyph glyph-name="wgrave" unicode="&#x1e81;" horiz-adv-x="845" 
d="M9 0zM479 494l95 -315l32 112l69 203h161l-183 -497h-143l-88 247l-87 -247h-144l-182 497h161l69 -203l32 -112l95 315h113zM258.062 698.539h164.523l72.4688 -122.858v-6.14355h-123.393l-113.6 123.736v5.26562z" />
    <glyph glyph-name="Wacute" unicode="&#x1e82;" horiz-adv-x="1073" 
d="M2 1zM814 1h-128l-150 391l-145 -391h-128l-261 699h175l87 -239l63 -226l157 465h102l164 -465l60 225l83 240h175zM720.988 904.637l-123.668 -132.368h-134.329v6.57129l78.8916 131.43h179.105v-5.63281z" />
    <glyph glyph-name="wacute" unicode="&#x1e83;" horiz-adv-x="845" 
d="M9 0zM479 494l95 -315l32 112l69 203h161l-183 -497h-143l-88 247l-87 -247h-144l-182 497h161l69 -203l32 -112l95 315h113zM583.934 695.381l-115.519 -126.611h-125.478v6.28613l73.6934 125.713h167.303v-5.3877z" />
    <glyph glyph-name="Wdieresis" unicode="&#x1e84;" horiz-adv-x="1073" 
d="M2 1zM814 1h-128l-150 391l-145 -391h-128l-261 699h175l87 -239l63 -226l157 465h102l164 -465l60 225l83 240h175zM324 833q0 26 12 43.5t29.5 26.5t38 9t38 -9t29.5 -26.5t12 -43.5t-12 -43.5t-29.5 -26t-38 -8.5t-38 8.5t-29.5 26t-12 43.5zM584 833q0 26 12 43.5
t29.5 26.5t38 9t38 -9t29.5 -26.5t12 -43.5t-12 -43.5t-29.5 -26t-38 -8.5t-38 8.5t-29.5 26t-12 43.5z" />
    <glyph glyph-name="wdieresis" unicode="&#x1e85;" horiz-adv-x="845" 
d="M9 0zM479 494l95 -315l32 112l69 203h161l-183 -497h-143l-88 247l-87 -247h-144l-182 497h161l69 -203l32 -112l95 315h113zM226.772 634.375q0 24.25 11.1396 40.5723q11.1406 16.3213 27.3867 24.7158q16.2461 8.39355 35.2773 8.39355q19.0303 0 35.2764 -8.39355
q16.2461 -8.39453 27.3867 -24.7158q11.1396 -16.3223 11.1396 -40.5723q0 -24.249 -11.1396 -40.5713q-11.1406 -16.3213 -27.3867 -24.249t-35.2764 -7.92773q-19.0312 0 -35.2773 7.92773t-27.3867 24.249q-11.1396 16.3223 -11.1396 40.5713zM468.142 634.375
q0 24.25 11.1406 40.5723q11.1396 16.3213 27.3857 24.7158q16.2461 8.39355 35.2773 8.39355t35.2773 -8.39355q16.2461 -8.39453 27.3857 -24.7158q11.1406 -16.3223 11.1406 -40.5723q0 -24.249 -11.1406 -40.5713q-11.1396 -16.3213 -27.3857 -24.249t-35.2773 -7.92773
t-35.2773 7.92773t-27.3857 24.249q-11.1406 16.3223 -11.1406 40.5713z" />
    <glyph glyph-name="Ygrave" unicode="&#x1ef2;" horiz-adv-x="704" 
d="M4 0zM352 422l177 278h179v-8l-280 -414v-278h-156v278l-268 414v8h180zM183.728 910.04h183.268l80.7256 -128.575v-6.42871h-137.451l-126.542 129.494v5.50977z" />
    <glyph glyph-name="ygrave" unicode="&#x1ef3;" horiz-adv-x="573" 
d="M3 0zM568 494l-303 -716h-157l102 237l-207 479h162l123 -311l121 311h159zM120.987 697.998h168.697l74.3076 -132.377v-6.61914h-126.523l-116.481 133.323v5.67285z" />
    <glyph glyph-name="endash" unicode="&#x2013;" horiz-adv-x="597" 
d="M58 348h481v-125h-481v125z" />
    <glyph glyph-name="emdash" unicode="&#x2014;" horiz-adv-x="690" 
d="M58 351h574v-125h-574v125z" />
    <glyph glyph-name="quoteleft" unicode="&#x2018;" horiz-adv-x="273" 
d="M186 457h-147l85 244h111z" />
    <glyph glyph-name="quoteright" unicode="&#x2019;" horiz-adv-x="267" 
d="M95 700h147l-84 -242h-112z" />
    <glyph glyph-name="quotesinglbase" unicode="&#x201a;" horiz-adv-x="280" 
d="M75 107h146l-84 -242h-111z" />
    <glyph glyph-name="quotedblleft" unicode="&#x201c;" horiz-adv-x="446" 
d="M359 457h-135l72 242h112zM176 457h-136l83 242h112z" />
    <glyph glyph-name="quotedblright" unicode="&#x201d;" horiz-adv-x="441" 
d="M96 699h135l-72 -242h-112zM279 699h136l-83 -242h-112z" />
    <glyph glyph-name="quotedblbase" unicode="&#x201e;" horiz-adv-x="469" 
d="M75 107h146l-84 -242h-111zM264 107h146l-84 -242h-111z" />
    <glyph glyph-name="dagger" unicode="&#x2020;" horiz-adv-x="603" 
d="M381 515h189v-129h-189v-497h-159v497h-189v129h189v184h159v-184z" />
    <glyph glyph-name="daggerdbl" unicode="&#x2021;" horiz-adv-x="636" 
d="M395 517h190v-129h-190v-204h190v-127h-190v-180h-154v180h-190v127h190v204h-190v129h190v182h154v-182z" />
    <glyph glyph-name="bullet" unicode="&#x2022;" horiz-adv-x="419" 
d="M210 180q-30 0 -55 9.5t-44 27.5t-29.5 43t-10.5 55t10.5 55t29.5 43t44 28t55 10q29 0 54.5 -10t44 -28t29 -43t10.5 -55t-10.5 -55t-29 -43t-44 -27.5t-54.5 -9.5z" />
    <glyph glyph-name="ellipsis" unicode="&#x2026;" horiz-adv-x="739" 
d="M50 73q0 40 25.5 60.5t56.5 20.5t56.5 -20.5t25.5 -60.5q0 -41 -25.5 -61t-56.5 -20t-56.5 20t-25.5 61zM287 73q0 40 25.5 60.5t56 20.5t56 -20.5t25.5 -60.5q0 -41 -25.5 -61t-56 -20t-56 20t-25.5 61zM526 73q0 40 25.5 60.5t56 20.5t56 -20.5t25.5 -60.5
q0 -41 -25.5 -61t-56 -20t-56 20t-25.5 61z" />
    <glyph glyph-name="perthousand" unicode="&#x2030;" horiz-adv-x="1192" 
d="M203 704q42 0 73 -14t51.5 -36.5t31 -51t10.5 -58.5t-10.5 -59t-31 -51.5t-51.5 -36.5t-73 -14t-73 14t-52 36.5t-31 51.5t-10 59t10 58.5t31 51t52 36.5t73 14zM718 699l-458 -700h-159l460 700h157zM618 314q42 0 73 -14t51.5 -36.5t31 -51t10.5 -58.5t-10.5 -59
t-31 -51.5t-51.5 -36.5t-73 -14t-73 14t-51.5 36.5t-31 51.5t-10.5 59t10.5 58.5t31 51t51.5 36.5t73 14zM618 210q-27 0 -41.5 -17.5t-14.5 -39.5t14.5 -39t41.5 -17q28 0 41.5 17t13.5 39t-13.5 39.5t-41.5 17.5zM203 602q-29 0 -43 -18t-14 -40t14 -39.5t43 -17.5
t42.5 17.5t13.5 39.5t-13.5 40t-42.5 18zM994 314q42 0 73 -14t51.5 -36.5t31 -51t10.5 -58.5t-10.5 -59t-31 -51.5t-51.5 -36.5t-73 -14t-73 14t-51.5 36.5t-31 51.5t-10.5 59t10.5 58.5t31 51t51.5 36.5t73 14zM994 210q-27 0 -41.5 -17.5t-14.5 -39.5t14.5 -39t41.5 -17
q28 0 41.5 17t13.5 39t-13.5 39.5t-41.5 17.5z" />
    <glyph glyph-name="guilsinglleft" unicode="&#x2039;" horiz-adv-x="356" 
d="M169 517h153v1l-139 -223q35 -57 68.5 -112.5t70.5 -110.5h-153l-139 223z" />
    <glyph glyph-name="guilsinglright" unicode="&#x203a;" horiz-adv-x="357" 
d="M327 300l-139 -222h-153l138 222l-138 223v-1h153z" />
    <glyph glyph-name="fraction" unicode="&#x2044;" horiz-adv-x="171" 
d="M342 708l-392 -713h-121l392 713h121z" />
    <glyph glyph-name="zerosuperior" unicode="&#x2070;" horiz-adv-x="408" 
d="M133 622q0 -35 22 -52.5t48.5 -17.5t48.5 17.5t22 52.5v56q0 36 -22 54t-48.5 18t-48.5 -18t-22 -54v-56zM35 679q0 54 25 90.5t62.5 54.5t81.5 18t81.5 -18t62.5 -54.5t25 -90.5v-55q0 -55 -25 -92t-62.5 -55.5t-81.5 -18.5t-81.5 18.5t-62.5 55.5t-25 92v55z" />
    <glyph glyph-name="foursuperior" unicode="&#x2074;" horiz-adv-x="401" 
d="M320 837v-224h45v-85h-45v-61h-100v61h-193l-4 86l167 223h130zM220 740l-95 -127h95v127z" />
    <glyph glyph-name="fivesuperior" unicode="&#x2075;" horiz-adv-x="377" 
d="M324 746h-184v-44h54q28 0 55.5 -5t49.5 -18.5t35.5 -37.5t13.5 -62q0 -36 -13.5 -61t-35 -40.5t-48 -22t-52.5 -6.5q-33 0 -61.5 7t-50 22t-34 38.5t-12.5 56.5h101q3 -21 19.5 -30t35 -7.5t34 12.5t15.5 31q0 21 -16 30.5t-36 9.5h-148v213h278v-86z" />
    <glyph glyph-name="sixsuperior" unicode="&#x2076;" horiz-adv-x="383" 
d="M249 584q0 20 -17 29.5t-38 9.5t-38.5 -9.5t-16.5 -29.5q0 -19 17 -28.5t37 -9.5q21 0 38.5 9.5t17.5 28.5zM248 730q-2 17 -19.5 24.5t-37.5 6.5t-36 -10.5t-16 -25.5v-40q26 16 62.5 19t69.5 -9t56.5 -39t23.5 -72q0 -32 -14 -55.5t-36 -38.5t-50.5 -22.5t-56.5 -7.5
q-29 0 -57 8t-49.5 23.5t-35 39t-13.5 54.5v140q0 30 13 52t35 36.5t49.5 21.5t56.5 7q30 0 57 -6.5t47 -20t32 -34.5t13 -51h-94z" />
    <glyph glyph-name="sevensuperior" unicode="&#x2077;" horiz-adv-x="328" 
d="M51 463l133 278h-156v92h283l4 -41l-152 -329h-112z" />
    <glyph glyph-name="eightsuperior" unicode="&#x2078;" horiz-adv-x="393" 
d="M134 567q0 -6 2.5 -13t10 -13t20 -10.5t31.5 -4.5q36 0 49.5 14t12.5 27q0 16 -17.5 27.5t-43.5 11.5q-27 0 -46 -10t-19 -29zM32 568q0 17 14 40.5t41 36.5q-20 10 -32 31t-12 39q0 29 11.5 51t32 37t48.5 22.5t60 7.5q31 0 59.5 -7.5t49.5 -22t33.5 -36.5t12.5 -51
q0 -18 -10.5 -36.5t-34.5 -30.5q28 -13 41.5 -36.5t13.5 -45.5q0 -35 -13.5 -58.5t-36.5 -38t-53 -21t-62 -5.5q-32 0 -62 6.5t-52.5 21t-36 38t-12.5 58.5zM198 679q26 0 38.5 10.5t12.5 24.5t-13.5 25.5t-38.5 11.5q-26 0 -39.5 -11t-13.5 -25t13.5 -25t40.5 -11z" />
    <glyph glyph-name="ninesuperior" unicode="&#x2079;" horiz-adv-x="385" 
d="M136 719q0 -20 17 -29.5t38 -9.5t38.5 9.5t16.5 29.5q0 19 -17 28.5t-37 9.5q-21 0 -38.5 -9.5t-17.5 -28.5zM134 573q2 -17 20 -24.5t38.5 -6.5t37 10t16.5 26v40q-26 -16 -62.5 -19t-69.5 9t-56.5 39t-23.5 72q0 32 14 55.5t36 38.5t50 22.5t57 7.5t57 -8t49.5 -24
t35 -39t13.5 -54v-140q0 -30 -13 -52.5t-35 -37t-49.5 -22t-56.5 -7.5q-32 0 -59.5 6t-48 19.5t-33 35.5t-13.5 53h96z" />
    <glyph glyph-name="zeroinferior" unicode="&#x2080;" horiz-adv-x="410" 
d="M134 72q0 -35 22 -52t48.5 -17t48.5 17t22 52v56q0 36 -22 54t-48.5 18t-48.5 -18t-22 -54v-56zM36 129q0 54 25 90.5t62.5 54.5t81.5 18t81.5 -18t62.5 -54.5t25 -90.5v-54q0 -56 -25 -93t-62.5 -55.5t-81.5 -18t-81.5 18.5t-62.5 55.5t-25 92.5v54z" />
    <glyph glyph-name="oneinferior" unicode="&#x2081;" horiz-adv-x="285" 
d="M35 0h62v176l-52 -11v84l152 40v-289h64v-83h-226v83z" />
    <glyph glyph-name="twoinferior" unicode="&#x2082;" horiz-adv-x="377" 
d="M38 180q0 28 13 50t33.5 37t47 22.5t54.5 7.5q33 0 61.5 -7.5t49 -23t32.5 -38.5t12 -54q0 -37 -15.5 -58.5t-39 -34.5t-50.5 -19.5t-50.5 -13t-39 -15.5t-15.5 -26h207v-90h-302v96q0 36 15 57.5t37.5 33.5t49 18.5t49 12.5t37.5 14.5t15 24.5q0 17 -15 25.5t-33.5 9
t-35 -7t-19.5 -21.5h-98z" />
    <glyph glyph-name="threeinferior" unicode="&#x2083;" horiz-adv-x="384" 
d="M190 72h-58v75h54q30 0 43 10t13 25q0 16 -15.5 25t-40.5 10q-21 1 -39 -6.5t-21 -23.5h-89q0 30 13.5 51.5t35.5 35t49 20t53 6.5q27 0 54 -7t49.5 -22t36.5 -37.5t14 -52.5q0 -23 -11 -42t-37 -30q26 -8 41 -31t15 -50q0 -36 -15 -58.5t-38.5 -35.5t-52 -18t-55.5 -5
t-55 6.5t-51 21t-38 36.5t-15 53h105q2 -17 18 -22.5t35 -5.5q21 0 39 9t18 28q0 16 -14.5 25.5t-40.5 9.5z" />
    <glyph glyph-name="fourinferior" unicode="&#x2084;" horiz-adv-x="401" 
d="M320 286v-224h45v-85h-45v-61h-100v61h-193l-4 86l167 223h130zM220 189l-95 -127h95v127z" />
    <glyph glyph-name="fiveinferior" unicode="&#x2085;" horiz-adv-x="379" 
d="M325 205h-184v-44h54q28 0 55.5 -5t49.5 -18.5t35.5 -37.5t13.5 -62q0 -36 -13.5 -61t-35 -40.5t-48 -22t-52.5 -6.5q-33 0 -61.5 7t-50 22t-34 38.5t-12.5 56.5h101q3 -21 19.5 -30t35 -7.5t34 12.5t15.5 31q0 21 -16 30.5t-36 9.5h-148v213h278v-86z" />
    <glyph glyph-name="sixinferior" unicode="&#x2086;" horiz-adv-x="386" 
d="M251 40q0 20 -17 29.5t-38 9.5t-38.5 -9.5t-16.5 -29.5q0 -19 17 -28.5t37 -9.5q21 0 38.5 9.5t17.5 28.5zM250 186q-2 17 -19.5 24.5t-37.5 6.5t-36 -10.5t-16 -25.5v-40q26 16 62.5 19t69.5 -9t56.5 -39t23.5 -72q0 -32 -14 -55.5t-36 -38.5t-50.5 -22.5t-56.5 -7.5
q-29 0 -57 8t-49.5 23.5t-35 39t-13.5 54.5v140q0 30 13 52t35 36.5t49.5 21.5t56.5 7q30 0 57 -6.5t47 -20t32 -34.5t13 -51h-94z" />
    <glyph glyph-name="seveninferior" unicode="&#x2087;" horiz-adv-x="327" 
d="M50 -83l133 278h-156v92h283l4 -41l-152 -329h-112z" />
    <glyph glyph-name="eightinferior" unicode="&#x2088;" horiz-adv-x="394" 
d="M135 31q0 -6 2.5 -13t10 -13t20 -10.5t31.5 -4.5q36 0 49.5 14t12.5 27q0 16 -17.5 27.5t-43.5 11.5q-27 0 -46 -10t-19 -29zM33 32q0 17 14 40.5t41 36.5q-20 10 -32 31t-12 39q0 29 11.5 51t32 37t48.5 22.5t60 7.5q31 0 59.5 -7.5t49.5 -22t33.5 -36.5t12.5 -51
q0 -18 -10.5 -36.5t-34.5 -30.5q28 -13 41.5 -36.5t13.5 -45.5q0 -35 -13.5 -58.5t-36.5 -38t-53 -21t-62 -5.5q-32 0 -62 6.5t-52.5 21t-36 38t-12.5 58.5zM199 143q26 0 38.5 10.5t12.5 24.5t-13.5 25.5t-38.5 11.5q-26 0 -39.5 -11t-13.5 -25t13.5 -25t40.5 -11z" />
    <glyph glyph-name="nineinferior" unicode="&#x2089;" horiz-adv-x="387" 
d="M136 170q0 -20 17 -29.5t38 -9.5t38.5 9.5t16.5 29.5q0 19 -17 28.5t-37 9.5q-21 0 -38.5 -9.5t-17.5 -28.5zM134 24q2 -17 20 -24.5t38.5 -6.5t37 10t16.5 26v40q-26 -16 -62.5 -19t-69.5 9t-56.5 39t-23.5 72q0 32 14 55.5t36 38.5t50 22.5t57 7.5t57 -8t49.5 -24
t35 -39t13.5 -54v-140q0 -30 -13 -52.5t-35 -37t-49.5 -22t-56.5 -7.5q-32 0 -59.5 6t-48 19.5t-33 35.5t-13.5 53h96z" />
    <glyph glyph-name="Euro" unicode="&#x20ac;" horiz-adv-x="630" 
d="M45 320h59v25v15.5t1 15.5h-60v111h83q17 48 47 90t73 73t99.5 48.5t127.5 17.5q29 0 56.5 -4t54.5 -13l-43 -131q-14 4 -33.5 6.5t-34.5 2.5q-63 0 -108.5 -24t-73.5 -66h197l-24 -111h-212q-1 -8 -1.5 -17t-0.5 -17v-11.5t1 -10.5h195l-22 -109h-137q20 -28 46 -45.5
t52 -27.5t49.5 -13.5t38.5 -3.5q38 0 76 13l44 -135q-27 -8 -59 -11.5t-61 -3.5q-142 0 -230.5 60t-121.5 167h-78v109z" />
    <glyph glyph-name="afii61289" unicode="&#x2113;" horiz-adv-x="392" 
d="M199 147q0 -45 38 -62t92 -4v-69q-47 -15 -89 -16t-73.5 16t-50 54t-18.5 97l-49 -24l-14 46q34 14 62 30v333q0 45 7.5 76.5t25.5 51.5t48 29.5t75 9.5q42 0 66 -17.5t35.5 -45t12 -62t-3.5 -68.5q-5 -42 -20 -80.5t-37 -74t-49.5 -67t-57.5 -58.5v-95zM196 548v-50.5
t-0.5 -62t-0.5 -65v-59.5q18 21 38 47t37 55t29 59t16 59q2 19 3.5 42t-3.5 43t-18.5 33.5t-41.5 13.5q-15 0 -26 -10t-18.5 -26.5t-11 -37t-3.5 -41.5z" />
    <glyph glyph-name="uni2117" unicode="&#x2117;" horiz-adv-x="811" 
d="M405 717q87 0 154.5 -29t113.5 -79t70 -116.5t24 -140.5t-24 -140.5t-70 -116.5t-113.5 -79t-154.5 -29t-154 29t-113 79t-70 116.5t-24 140.5t24 140.5t70 116.5t113 79t154 29zM153 352q1 -57 18 -106t49 -85t78.5 -57t106.5 -21t106.5 21t79 57t49 85t16.5 106
q0 56 -16.5 105t-49 85.5t-79 57.5t-106.5 21t-106.5 -21t-78.5 -57.5t-49 -85.5t-18 -105zM379 267v-99h-103v356h170q48 0 79.5 -19t47.5 -47.5t15.5 -62t-16.5 -62t-48 -47.5t-79 -19h-66zM379 430v-75h68q21 0 30 11.5t8.5 26t-11 26t-28.5 11.5h-67z" />
    <glyph glyph-name="trademark" unicode="&#x2122;" horiz-adv-x="826" 
d="M263 403h-106v204h-94v92h295v-92h-95v-204zM574 607l75 92h105v-297h-105v90l6 71q-17 -24 -36 -49t-36 -48h-19l-71 97l5 -71v-90h-104v297h104z" />
    <glyph glyph-name="Omega" unicode="&#x2126;" horiz-adv-x="823" 
d="M412 574q-54 0 -94 -19.5t-66.5 -50t-39.5 -69t-14 -76.5q-1 -33 7.5 -66.5t26 -62.5t43 -52.5t59.5 -38.5v-139h-253v133h79q-32 23 -54 50t-35 57t-18.5 62t-5.5 64q0 75 28.5 139t78 110.5t116 73t142.5 26.5t143 -26.5t116 -73t77.5 -110.5t28.5 -139
q0 -64 -25.5 -126t-86.5 -107h78v-133h-253v139q34 15 59.5 38.5t43 52.5t26 62.5t7.5 66.5q0 38 -13.5 76.5t-40 69t-66.5 50t-94 19.5z" />
    <glyph glyph-name="estimated" unicode="&#x212e;" horiz-adv-x="624" 
d="M320 -7q-56 0 -104.5 19t-85 56.5t-57.5 92.5t-21 128t21 129t57 93t84.5 56t104.5 19q55 0 106 -16.5t88 -54t56 -99.5t12 -153h-402v-170q29 -26 65 -39.5t76 -13.5q59 0 106.5 20.5t83.5 72.5l37 -29q-45 -64 -101 -87.5t-126 -23.5zM319 539q-41 0 -76 -10.5
t-64 -35.5v-183h283v186q-55 43 -143 43z" />
    <glyph glyph-name="onethird" unicode="&#x2153;" horiz-adv-x="813" 
d="M44 407h62v179l-52 -11v84l152 40v-292h64v-80h-226v80zM559 153v75h53q29 0 41.5 5t13.5 28q0 17 -16 27.5t-36 10.5q-26 0 -41 -8.5t-21 -22.5h-89q0 30 14 51t35.5 34.5t48.5 20t53 6.5q27 0 54 -7t49.5 -21t36.5 -36.5t14 -53.5q0 -10 -3 -21.5t-9 -22t-15.5 -18
t-22.5 -10.5q29 -8 44.5 -30t15.5 -45q0 -34 -16 -57.5t-40.5 -38t-54 -21t-56.5 -6.5q-26 0 -53.5 6.5t-50 21t-37 36.5t-14.5 53h101q5 -18 21.5 -24t35.5 -6q20 0 38.5 10t18.5 27q0 14 -14 25.5t-42 11.5h-57zM639 708l-395 -713h-110l392 713h113z" />
    <glyph glyph-name="twothirds" unicode="&#x2154;" horiz-adv-x="891" 
d="M716 708l-394 -713h-110l392 713h112zM46 593q0 28 13 50t33.5 37t47 22.5t54.5 7.5q33 0 61.5 -7.5t49 -23t32.5 -38.5t12 -54q0 -37 -15.5 -58.5t-39 -34.5t-50.5 -19.5t-50.5 -13t-39 -15.5t-15.5 -26h207v-90h-302v96q0 36 15 57.5t37.5 33.5t49 18.5t49 12.5
t37.5 14.5t15 24.5q0 17 -15 25.5t-33.5 9t-35 -7t-19.5 -21.5h-98zM637 153v75h53q29 0 41.5 5t13.5 28q0 17 -16 27.5t-36 10.5q-26 0 -41 -8.5t-21 -22.5h-89q0 30 14 51t35.5 34.5t48.5 20t53 6.5q27 0 54 -7t49.5 -21t36.5 -36.5t14 -53.5q0 -10 -3 -21.5t-9 -22
t-15.5 -18t-22.5 -10.5q29 -8 44.5 -30t15.5 -45q0 -34 -16 -57.5t-40.5 -38t-54 -21t-56.5 -6.5q-26 0 -53.5 6.5t-50 21t-37 36.5t-14.5 53h101q5 -18 21.5 -24t35.5 -6q20 0 38.5 10t18.5 27q0 14 -14 25.5t-42 11.5h-57z" />
    <glyph glyph-name="oneeighth" unicode="&#x215b;" horiz-adv-x="819" 
d="M45 415h62v171l-52 -11v84l152 40v-284h64v-88h-226v88zM633 708l-395 -713h-108l392 713h111zM560 112q0 -6 2.5 -13t10 -13t20 -10.5t31.5 -4.5q36 0 49.5 14t12.5 27q0 16 -17.5 27.5t-43.5 11.5q-27 0 -46 -10t-19 -29zM458 113q0 17 14 40.5t41 36.5q-20 10 -32 31
t-12 39q0 29 11.5 51t32 37t48.5 22.5t60 7.5q31 0 59.5 -7.5t49.5 -22t33.5 -36.5t12.5 -51q0 -18 -10.5 -36.5t-34.5 -30.5q28 -13 41.5 -36.5t13.5 -45.5q0 -35 -13.5 -58.5t-36.5 -38t-53 -21t-62 -5.5q-32 0 -62 6.5t-52.5 21t-36 38t-12.5 58.5zM624 224
q26 0 38.5 10.5t12.5 24.5t-13.5 25.5t-38.5 11.5q-26 0 -39.5 -11t-13.5 -25t13.5 -25t40.5 -11z" />
    <glyph glyph-name="threeeighths" unicode="&#x215c;" horiz-adv-x="897" 
d="M704 708l-394 -713h-109l391 713h112zM636 116q-1 -12 12.5 -27t51.5 -15q36 0 49.5 14.5t11.5 27.5q0 15 -17 26.5t-43 11.5q-27 0 -46 -10t-19 -28zM536 116q0 17 11.5 40.5t38.5 36.5q-20 10 -29.5 31t-9.5 39q0 29 11.5 51t32 37t48 22.5t59.5 7.5t60.5 -7.5
t49.5 -22.5t33.5 -37t12.5 -51q0 -14 -7 -33.5t-33 -32.5q28 -13 38.5 -38t10.5 -43q1 -35 -12.5 -58.5t-36.5 -38.5t-53 -21t-63 -6q-32 0 -61.5 6.5t-52 21t-36 38t-12.5 58.5zM645 262q1 -16 13.5 -25t41.5 -9q26 0 38 9t13 25q2 17 -14 27t-39 10t-38.5 -10.5
t-14.5 -26.5zM138 481v75h53q29 0 41.5 5t13.5 28q0 17 -16 27.5t-36 10.5q-26 0 -41 -8.5t-21 -22.5h-89q0 30 14 51t35.5 34.5t48.5 20t53 6.5q27 0 54 -7t49.5 -21t36.5 -36.5t14 -53.5q0 -10 -3 -21.5t-9 -22t-15.5 -18t-22.5 -10.5q29 -8 44.5 -30t15.5 -45
q0 -34 -16 -57.5t-40.5 -38t-54 -21t-56.5 -6.5q-26 0 -53.5 6.5t-50 21t-37 36.5t-14.5 53h101q5 -18 21.5 -24t35.5 -6q20 0 38.5 10t18.5 27q0 14 -14 25.5t-42 11.5h-57z" />
    <glyph glyph-name="fiveeighths" unicode="&#x215d;" horiz-adv-x="891" 
d="M696 708l-394 -713h-109l391 713h112zM630 116q-1 -12 12.5 -27t51.5 -15q36 0 49.5 14.5t11.5 27.5q0 15 -17 26.5t-43 11.5q-27 0 -46 -10t-19 -28zM530 116q0 17 11.5 40.5t38.5 36.5q-20 10 -29.5 31t-9.5 39q0 29 11.5 51t32 37t48 22.5t59.5 7.5t60.5 -7.5
t49.5 -22.5t33.5 -37t12.5 -51q0 -14 -7 -33.5t-33 -32.5q28 -13 38.5 -38t10.5 -43q1 -35 -12.5 -58.5t-36.5 -38.5t-53 -21t-63 -6q-32 0 -61.5 6.5t-52 21t-36 38t-12.5 58.5zM639 262q1 -16 13.5 -25t41.5 -9q26 0 38 9t13 25q2 17 -14 27t-39 10t-38.5 -10.5
t-14.5 -26.5zM323 612h-184v-44h54q28 0 55.5 -5t49.5 -18.5t35.5 -37.5t13.5 -62q0 -36 -13.5 -61t-35 -40.5t-48 -22t-52.5 -6.5q-33 0 -61.5 7t-50 22t-34 38.5t-12.5 56.5h101q3 -21 19.5 -30t35 -7.5t34 12.5t15.5 31q0 21 -16 30.5t-36 9.5h-148v213h278v-86z" />
    <glyph glyph-name="seveneighths" unicode="&#x215e;" horiz-adv-x="806" 
d="M598 708l-394 -713h-109l392 713h111zM545 116q-1 -12 12.5 -27t51.5 -15q36 0 49.5 14.5t12.5 27.5q0 15 -17.5 26.5t-43.5 11.5q-27 0 -46 -10t-19 -28zM445 116q0 17 11.5 40.5t38.5 36.5q-20 10 -29.5 31t-9.5 39q0 29 11.5 51t32 37t48.5 22.5t60 7.5
q31 0 59.5 -7.5t49.5 -22.5t33.5 -37t12.5 -51q0 -14 -7 -33.5t-33 -32.5q28 -13 39 -38t11 -43q0 -35 -13.5 -58.5t-36.5 -38.5t-53 -21t-62 -6t-62 6.5t-52.5 21t-36 38t-12.5 58.5zM554 262q2 -16 14.5 -25t40.5 -9q27 0 38.5 9t13.5 25q1 17 -14.5 27t-38.5 10
t-39 -10.5t-15 -26.5zM61 329l134 284h-156v86h282l4 -41l-162 -329h-102z" />
    <glyph glyph-name="arrowleft" unicode="&#x2190;" horiz-adv-x="630" 
d="M30 350l245 242l75 -71l-110 -110h339v-125h-340l105 -114l-70 -65z" />
    <glyph glyph-name="arrowup" unicode="&#x2191;" horiz-adv-x="546" 
d="M274 636l242 -245l-71 -75l-110 110v-339h-125v340l-114 -105l-65 70z" />
    <glyph glyph-name="arrowright" unicode="&#x2192;" horiz-adv-x="632" 
d="M601 351l-244 -242l-75 71l109 109h-339v126h341l-106 114l71 64z" />
    <glyph glyph-name="arrowdown" unicode="&#x2193;" horiz-adv-x="544" 
d="M272 70l-242 245l70 75l110 -109v339h126v-341l114 106l64 -71z" />
    <glyph glyph-name="uni2196" unicode="&#x2196;" horiz-adv-x="523" 
d="M59 541l343 -2l4 -102l-155 -1l240 -240l-90 -88l-240 240l-6 -155l-96 4v344z" />
    <glyph glyph-name="uni2197" unicode="&#x2197;" horiz-adv-x="523" 
d="M120 539h343q0 -86 -0.5 -171.5t-0.5 -171.5l-102 -4q0 39 -0.5 78t-0.5 78l-241 -240l-88 90l240 240l-154 6z" />
    <glyph glyph-name="uni2198" unicode="&#x2198;" horiz-adv-x="554" 
d="M119 248l155 6l-240 240l88 90l240 -240q0 39 0.5 78t0.5 78l102 -4q0 -87 1 -172t1 -171h-344z" />
    <glyph glyph-name="uni2199" unicode="&#x2199;" horiz-adv-x="556" 
d="M432 153h-343q0 86 0.5 171t0.5 172l103 4q-1 -39 0 -78t0 -78l241 240l88 -90l-240 -240l154 -6z" />
    <glyph glyph-name="partialdiff" unicode="&#x2202;" horiz-adv-x="579" 
d="M289 119q27 0 47.5 10t35 27t22 38t7.5 44q0 54 -29 86.5t-83 32.5q-27 0 -47 -10t-33.5 -26.5t-20.5 -38t-7 -43.5q0 -23 7 -44.5t20.5 -38t33.5 -27t47 -10.5zM359 459q-11 25 -39 47t-63 39t-71 27.5t-61 13.5l24 116q87 -6 159 -43t124.5 -97.5t81.5 -140t29 -171.5
q0 -57 -17.5 -104.5t-50 -81.5t-79.5 -53t-107 -19q-64 0 -112 21t-80 55.5t-48 78.5t-16 91q0 64 28.5 117.5t74.5 86t104.5 39.5t118.5 -22z" />
    <glyph glyph-name="Delta" unicode="&#x2206;" horiz-adv-x="823" 
d="M796 0h-768v36l298 664h170l300 -669v-31zM233 135h355l-177 411z" />
    <glyph glyph-name="product" unicode="&#x220f;" horiz-adv-x="691" 
d="M468 -192v756h-241v-756h-149v892h535v-892h-145z" />
    <glyph glyph-name="summation" unicode="&#x2211;" horiz-adv-x="604" 
d="M236 144h316v-144h-511v92l189 272l-179 261v75h495v-136h-284l132 -202z" />
    <glyph glyph-name="minus" unicode="&#x2212;" horiz-adv-x="524" 
d="M64 344h396v-131h-396v131z" />
    <glyph glyph-name="uni2215" unicode="&#x2215;" horiz-adv-x="484" 
d="M0 0zM498 708l-392 -713h-121l392 713h121z" />
    <glyph glyph-name="uni2219" unicode="&#x2219;" horiz-adv-x="279" 
d="M53 316q0 43 27 64.5t59.5 21.5t59.5 -21.5t27 -64.5t-27 -64.5t-59.5 -21.5t-59.5 21.5t-27 64.5z" />
    <glyph glyph-name="radical" unicode="&#x221a;" horiz-adv-x="613" 
d="M378 0h-98l-164 307l-72 -29l-35 85l188 85l143 -297l188 569l79 -23z" />
    <glyph glyph-name="infinity" unicode="&#x221e;" horiz-adv-x="744" 
d="M213 158q-42 1 -73 15t-52 36.5t-31.5 50.5t-10.5 58q0 31 11 61t33 53t54.5 37.5t75.5 14.5q38 0 78 -26t72 -63q16 17 35 33t39.5 28.5t40.5 20t38 7.5q43 0 76 -14.5t55 -37.5t33 -53t11 -61q0 -30 -10.5 -58.5t-31.5 -50.5t-52 -36t-73 -15q-45 -2 -86 24.5t-75 64.5
q-33 -38 -74 -64.5t-83 -24.5zM215 266q29 2 51 19t40 35q-23 21 -44 39t-47 18q-32 0 -48.5 -16t-18.5 -37q-2 -22 15.5 -39.5t51.5 -18.5zM529 266q33 1 49 17.5t17 36.5q0 22 -16.5 39.5t-49.5 17.5q-26 0 -49 -17.5t-43 -40.5q7 -8 18 -17.5t24 -17.5t26 -13.5t24 -4.5z
" />
    <glyph glyph-name="integral" unicode="&#x222b;" horiz-adv-x="506" 
d="M173 514q0 54 17.5 92t46 62t64.5 35.5t72 11.5q34 0 69.5 -11t67.5 -31l-51 -108q-39 27 -75 27q-27 0 -47 -19t-20 -59v-516q0 -54 -18.5 -92t-47.5 -62t-65.5 -35t-72.5 -11q-33 0 -59.5 8t-58.5 28l51 108q20 -12 29.5 -16.5t26.5 -4.5q27 0 49 18.5t22 58.5v516z
" />
    <glyph glyph-name="approxequal" unicode="&#x2248;" horiz-adv-x="584" 
d="M61 368q10 25 26 45.5t36 35t44 21t50 3.5q22 -3 42.5 -10.5t40.5 -16t39.5 -16.5t39.5 -11q23 -4 36 6.5t19 33.5l89 -36q-7 -38 -21.5 -62t-35 -36.5t-44.5 -14.5t-49 4q-39 10 -76.5 25.5t-72.5 22.5q-23 5 -43 -2t-34 -40zM61 158q10 25 26 45.5t36 35t44 21t50 3.5
q22 -3 42.5 -10.5t40.5 -16t39.5 -16.5t39.5 -11q23 -4 36 6.5t19 33.5l89 -36q-7 -38 -21.5 -62t-35 -36.5t-44.5 -14.5t-49 4q-39 10 -76.5 25.5t-72.5 22.5q-23 5 -43 -2t-34 -40z" />
    <glyph glyph-name="notequal" unicode="&#x2260;" horiz-adv-x="589" 
d="M72 256h166l57 107h-223v129h297l52 92l58 -32l-35 -60h70v-129h-142l-58 -107h200v-128h-273l-53 -93l-57 33l34 60h-93v128z" />
    <glyph glyph-name="lessequal" unicode="&#x2264;" horiz-adv-x="456" 
d="M52 188h347v-116h-347v116zM61 443l239 220l85 -86l-145 -137l144 -133l-84 -86l-239 217v5z" />
    <glyph glyph-name="greaterequal" unicode="&#x2265;" horiz-adv-x="457" 
d="M405 72h-347v116h347v-116zM396 438l-239 -217l-85 86l144 133l-145 137l86 86l239 -220v-5z" />
    <glyph glyph-name="lozenge" unicode="&#x25ca;" horiz-adv-x="601" 
d="M361 8h-120l-212 343l212 345h120l210 -345zM302 139l117 212l-117 213l-122 -213z" />
    <glyph glyph-name="fi" unicode="&#xfb01;" horiz-adv-x="649" 
d="M408 692q-26 12 -48 17.5t-48 5.5q-36 0 -72 -11.5t-64.5 -35.5t-46 -62t-17.5 -92v-29h-89v-125h89v-360h144v360h122v125h-122v29q0 40 20 59t47 19q12 0 21 -2.5t22 -8.5zM445 495v-495h144v495h-144zM435 625q0 -41 25.5 -61t56.5 -20t56.5 20t25.5 61t-25.5 61
t-56.5 20t-56.5 -20t-25.5 -61z" />
    <glyph glyph-name="fl" unicode="&#xfb02;" horiz-adv-x="652" 
d="M408 693q-26 12 -48 17t-48 5q-36 0 -72 -11.5t-64.5 -35.5t-46 -62t-17.5 -92v-29h-89v-125h89v-360h144v360h115v125h-115v29q0 40 20 59t47 19q12 0 21 -2t22 -8zM445 700v-700h144v700h-144z" />
    <glyph glyph-name="_0004" horiz-adv-x="0" 
 />
    <glyph glyph-name="g.alt" horiz-adv-x="641" 
d="M306 379q-54 0 -91.5 -34t-37.5 -98t37.5 -96.5t91.5 -32.5q42 0 70 19.5t42 48.5t14 62.5t-14 62.5t-42 48.5t-70 19.5zM193 -60q3 -18 14 -30.5t27 -20t35.5 -10.5t40.5 -3q22 0 45 5.5t42 19t30.5 35.5t11.5 54v69q-14 -22 -32.5 -36t-39 -22.5t-41 -11.5t-38.5 -3
q-56 0 -102.5 18t-80.5 51.5t-53 82t-19 109.5t20 109.5t55 82t82 51t102 16.5q48 0 86.5 -19.5t56.5 -49.5l5 56h140v-506q0 -63 -22.5 -109t-60 -75.5t-86.5 -43.5t-103 -14q-52 0 -97.5 12t-80 36.5t-56 61t-24.5 85.5h143z" />
    <glyph glyph-name="gcircumflex.alt" horiz-adv-x="641" 
d="M509 570h-145l-44 43l-51 -43h-140v6l155 140h75l150 -140v-6zM306 379q-54 0 -91.5 -34t-37.5 -98t37.5 -96.5t91.5 -32.5q42 0 70 19.5t42 48.5t14 62.5t-14 62.5t-42 48.5t-70 19.5zM193 -60q3 -18 14 -30.5t27 -20t35.5 -10.5t40.5 -3q22 0 45 5.5t42 19t30.5 35.5
t11.5 54v69q-14 -22 -32.5 -36t-39 -22.5t-41 -11.5t-38.5 -3q-56 0 -102.5 18t-80.5 51.5t-53 82t-19 109.5t20 109.5t55 82t82 51t102 16.5q48 0 86.5 -19.5t56.5 -49.5l5 56h140v-506q0 -63 -22.5 -109t-60 -75.5t-86.5 -43.5t-103 -14q-52 0 -97.5 12t-80 36.5t-56 61
t-24.5 85.5h143z" />
    <glyph glyph-name="gbreve.alt" horiz-adv-x="641" 
d="M481 713q0 -37 -13 -64.5t-35 -45.5t-51.5 -27t-61.5 -9t-62.5 9t-54 27t-36 45.5t-9.5 64.5h117q0 -27 14 -37t31 -10t31 9t14 38h116zM306 379q-54 0 -91.5 -34t-37.5 -98t37.5 -96.5t91.5 -32.5q42 0 70 19.5t42 48.5t14 62.5t-14 62.5t-42 48.5t-70 19.5zM193 -60
q3 -18 14 -30.5t27 -20t35.5 -10.5t40.5 -3q22 0 45 5.5t42 19t30.5 35.5t11.5 54v69q-14 -22 -32.5 -36t-39 -22.5t-41 -11.5t-38.5 -3q-56 0 -102.5 18t-80.5 51.5t-53 82t-19 109.5t20 109.5t55 82t82 51t102 16.5q48 0 86.5 -19.5t56.5 -49.5l5 56h140v-506
q0 -63 -22.5 -109t-60 -75.5t-86.5 -43.5t-103 -14q-52 0 -97.5 12t-80 36.5t-56 61t-24.5 85.5h143z" />
    <glyph glyph-name="gdotaccent.alt" horiz-adv-x="641" 
d="M233 642q0 39 25.5 58.5t56.5 19.5t56.5 -19.5t25.5 -58.5q0 -38 -25.5 -57t-56.5 -19t-56.5 19t-25.5 57zM306 379q-54 0 -91.5 -34t-37.5 -98t37.5 -96.5t91.5 -32.5q42 0 70 19.5t42 48.5t14 62.5t-14 62.5t-42 48.5t-70 19.5zM193 -60q3 -18 14 -30.5t27 -20
t35.5 -10.5t40.5 -3q22 0 45 5.5t42 19t30.5 35.5t11.5 54v69q-14 -22 -32.5 -36t-39 -22.5t-41 -11.5t-38.5 -3q-56 0 -102.5 18t-80.5 51.5t-53 82t-19 109.5t20 109.5t55 82t82 51t102 16.5q48 0 86.5 -19.5t56.5 -49.5l5 56h140v-506q0 -63 -22.5 -109t-60 -75.5
t-86.5 -43.5t-103 -14q-52 0 -97.5 12t-80 36.5t-56 61t-24.5 85.5h143z" />
    <glyph glyph-name="gcommaaccent.alt" horiz-adv-x="641" 
d="M234 648q0 15 3.5 28t9.5 27.5t14.5 32.5t18.5 44h77l-16 -77q25 -4 39.5 -18.5t14.5 -40.5q0 -39 -25 -57.5t-55.5 -18t-55.5 20.5t-25 59zM306 379q-54 0 -91.5 -34t-37.5 -98t37.5 -96.5t91.5 -32.5q42 0 70 19.5t42 48.5t14 62.5t-14 62.5t-42 48.5t-70 19.5z
M193 -60q3 -18 14 -30.5t27 -20t35.5 -10.5t40.5 -3q22 0 45 5.5t42 19t30.5 35.5t11.5 54v69q-14 -22 -32.5 -36t-39 -22.5t-41 -11.5t-38.5 -3q-56 0 -102.5 18t-80.5 51.5t-53 82t-19 109.5t20 109.5t55 82t82 51t102 16.5q48 0 86.5 -19.5t56.5 -49.5l5 56h140v-506
q0 -63 -22.5 -109t-60 -75.5t-86.5 -43.5t-103 -14q-52 0 -97.5 12t-80 36.5t-56 61t-24.5 85.5h143z" />
    <glyph glyph-name="commaaccent" horiz-adv-x="382" 
d="M144 -286l15 104q-24 4 -39 19t-15 41t11.5 42.5t29.5 24.5t38.5 7.5t38.5 -9t30 -25.5t13 -41q0 -7 -1.5 -15.5t-6 -25.5t-13.5 -45.5t-25 -76.5h-76z" />
    <glyph glyph-name="commaaccent.alt" horiz-adv-x="406" 
d="M232 775l-15 -104q24 -4 39 -19t15 -41t-11.5 -42.5t-29.5 -24.5t-38.5 -7.5t-38.5 9t-30 25t-13 41.5q0 7 1.5 15.5t6 25.5t13.5 45.5t25 76.5h76z" />
    <glyph glyph-name="zero.tf" horiz-adv-x="711" 
d="M199 300q0 -46 11.5 -80.5t32.5 -57t49.5 -33.5t62.5 -11t62.5 11t49.5 33.5t33 57t12 80.5v101q0 89 -43.5 134t-110.5 45q-33 0 -62 -10.5t-50.5 -32.5t-34 -56t-12.5 -80v-101zM44 402q0 82 25 142.5t68 100t100 58.5t121 19t120 -20t98 -60t66 -100t24 -140v-101
q0 -80 -25 -140.5t-67 -100.5t-97.5 -60t-116.5 -20q-62 0 -119 19t-100.5 58.5t-70 99.5t-26.5 143v102z" />
    <glyph glyph-name="one.tf" horiz-adv-x="711" 
d="M111 131h180v371l-161 -53v139l314 112v-569h182v-131h-515v131z" />
    <glyph glyph-name="two.tf" horiz-adv-x="711" 
d="M77 492q3 61 28.5 102.5t64.5 67t88.5 36.5t100.5 11q56 0 107 -13t89.5 -40t61.5 -68.5t23 -98.5q0 -65 -21 -108t-58.5 -68.5t-89 -36t-111.5 -10.5q-22 0 -47.5 -2.5t-47 -12t-35.5 -28.5t-14 -52v-27h419v-144h-566v172q0 70 26 115t67.5 70.5t93.5 35t104 9.5
q19 0 41.5 3.5t41.5 12.5t31.5 25.5t12.5 42.5q0 44 -34 67t-94 23q-24 0 -47 -5t-41.5 -15.5t-30.5 -26.5t-13 -37h-150z" />
    <glyph glyph-name="three.tf" horiz-adv-x="711" 
d="M358 295h-107v127h97q19 0 42 1.5t42.5 8.5t33 21t13.5 38q0 11 -5 25t-19.5 26t-39 20t-63.5 8q-21 0 -42 -2.5t-38.5 -10t-30.5 -20.5t-17 -35h-155q5 59 31 99t66 65t88.5 35.5t98.5 10.5q43 0 89 -9.5t85 -30.5t66.5 -55.5t35.5 -84.5q10 -59 -14 -105.5t-75 -68.5
q63 -26 88 -77.5t16 -113.5q-9 -57 -40 -92.5t-73 -55t-90.5 -26.5t-93.5 -7q-51 0 -101 12.5t-90.5 39.5t-67 70t-30.5 105h157q3 -25 15 -41.5t30 -27t41 -15t47 -4.5q16 0 40 3t46 12t37.5 25.5t15.5 44.5q0 10 -3.5 24.5t-16 28t-38.5 23t-71 9.5z" />
    <glyph glyph-name="four.tf" horiz-adv-x="711" 
d="M576 699v-438h80v-135h-80v-127h-153v127h-373l-13 160l384 413h155zM423 261v249l-226 -249h226z" />
    <glyph glyph-name="five.tf" horiz-adv-x="711" 
d="M604 559h-368v-108h123q56 0 107.5 -10t91 -36t62.5 -70t23 -112q0 -65 -26 -109t-66.5 -71.5t-90 -39.5t-97.5 -12q-61 0 -113 12t-90.5 38.5t-60.5 69.5t-22 105h154q0 -24 12 -40.5t31 -27t42 -15t45 -4.5q14 0 36 3.5t42.5 13.5t35 28.5t14.5 48.5q0 29 -13.5 47.5
t-33.5 29t-42.5 14t-40.5 3.5h-268v382h513v-140z" />
    <glyph glyph-name="six.tf" horiz-adv-x="711" 
d="M219 396q33 36 71 50t93 14q56 0 106 -14.5t88 -44t60 -73.5t22 -103q0 -64 -25 -109t-66.5 -73.5t-94.5 -41.5t-109 -13q-55 0 -108 13.5t-95 42t-68 74t-26 109.5v247q0 61 25 106.5t65.5 75t93 44t108.5 14.5q58 0 109 -11t90 -36t62 -66t26 -100h-146q-5 22 -18.5 37
t-33 24.5t-43 14t-47.5 4.5q-27 0 -52 -7.5t-44.5 -21.5t-31 -33.5t-11.5 -44.5v-78zM364 126q29 0 54.5 6.5t44.5 19.5t30 31.5t11 41.5q0 49 -38 76t-101 27q-32 0 -58.5 -7t-46 -20t-30 -32t-9.5 -44q2 -48 41.5 -73.5t101.5 -25.5z" />
    <glyph glyph-name="seven.tf" horiz-adv-x="711" 
d="M159 0l261 558h-314v142h515l5 -77l-292 -623h-175z" />
    <glyph glyph-name="eight.tf" horiz-adv-x="711" 
d="M355 300q-63 0 -103 -23t-41 -64q0 -14 6 -30t22 -29.5t44 -23t72 -9.5q43 0 71 9t44.5 23t22.5 30t5 30q-1 39 -37.5 63t-105.5 24zM47 221q0 15 6.5 35.5t20 40.5t34 38t49.5 28q-50 27 -71.5 72t-14.5 98q6 45 30 79t61.5 57t86 35t104.5 12q60 0 110.5 -12
t88.5 -35.5t61.5 -59t29.5 -82.5q6 -51 -18 -93t-71 -63q32 -12 53 -31t33.5 -40t17.5 -42t5 -37q1 -63 -24 -108.5t-68 -74t-99.5 -42t-118.5 -12.5q-60 0 -116 13.5t-98.5 42t-68 73t-23.5 108.5zM228 504q2 -35 34 -61t93 -26t92.5 26t33.5 61q1 14 -6 29t-22.5 27.5
t-40.5 20.5t-59 8q-39 0 -63.5 -9.5t-38.5 -23t-19 -28t-4 -24.5z" />
    <glyph glyph-name="nine.tf" horiz-adv-x="711" 
d="M493 306q-33 -36 -71 -50t-93 -14q-56 0 -106 14.5t-88 43.5t-60 73.5t-22 103.5q0 64 25 109t66.5 73.5t94.5 41.5t109 13q55 0 108 -13.5t95 -42t68 -74t26 -109.5v-247q0 -66 -26 -112t-68.5 -74.5t-96.5 -41t-109 -12.5q-58 0 -110 11t-91 36t-63 66t-27 100h146
q4 -22 18.5 -36.5t34.5 -23.5t44.5 -13t48.5 -4q27 0 53.5 5.5t47 18t33.5 32.5t13 48v78zM348 576q-29 0 -54.5 -7t-44.5 -19.5t-30 -31t-11 -41.5q0 -49 38 -76t101 -27q64 0 104.5 26.5t39.5 76.5q-2 48 -41.5 73.5t-101.5 25.5z" />
    <glyph glyph-name="Euro.tf" horiz-adv-x="711" 
d="M87 320h59v25v15.5t1 15.5h-60v111h83q17 48 47 90t73 73t99.5 48.5t127.5 17.5q29 0 56.5 -4t54.5 -13l-43 -131q-14 4 -33.5 6.5t-34.5 2.5q-63 0 -108.5 -24t-73.5 -66h197l-24 -111h-212q-1 -8 -1.5 -17t-0.5 -17v-11.5t1 -10.5h195l-22 -109h-137q20 -28 46 -45.5
t52 -27.5t49.5 -13.5t38.5 -3.5q38 0 76 13l44 -135q-27 -8 -59 -11.5t-61 -3.5q-142 0 -230.5 60t-121.5 167h-78v109z" />
    <glyph glyph-name="cent.tf" horiz-adv-x="711" 
d="M594 47q-29 -30 -61.5 -45.5t-74.5 -24.5v-76h-132v78q-43 12 -79.5 33.5t-63.5 53t-42 73t-15 94.5q0 97 54 162.5t146 91.5v77h132v-76q72 -17 126 -69l-82 -89q-22 23 -48.5 29.5t-54.5 6.5q-25 0 -48.5 -10t-41.5 -27.5t-29 -42t-11 -53.5q0 -30 11 -54t29 -41
t41.5 -26.5t48.5 -9.5q26 0 56 11.5t50 35.5z" />
    <glyph glyph-name="sterling.tf" horiz-adv-x="711" 
d="M284 472q0 -22 3.5 -41t8.5 -41h198v-125h-170q0 -12 -2.5 -31.5t-9.5 -39t-19 -34.5t-31 -19h377v-141h-561v142q28 1 45.5 11t28 27t14.5 39t5 46h-93v125h69q-14 42 -15 81q-2 52 14 96t48 76t80.5 50.5t110.5 18.5q55 0 100 -14.5t76.5 -42t48 -68.5t15.5 -95h-135
q0 24 -9 40.5t-23.5 26.5t-33.5 14t-39 4q-40 0 -70.5 -26.5t-30.5 -78.5z" />
    <glyph glyph-name="florin.tf" horiz-adv-x="711" 
d="M423 356v-361q0 -73 -30 -118.5t-76 -64.5t-101.5 -12.5t-106.5 38.5l49 101q54 -29 87.5 -15t33.5 71v361h-135v121h135v37q0 54 17.5 91.5t46 61.5t64.5 35t72 11q42 0 73.5 -11t63.5 -31l-49 -101q-17 11 -35.5 15.5t-35.5 4.5q-32 0 -52.5 -18.5t-20.5 -57.5v-37h144
v-121h-144z" />
    <glyph glyph-name="yen.tf" horiz-adv-x="711" 
d="M124 209h150v58h-150v107h94l-213 318v8h176l88 -142l82 -145l86 144l93 143h179v-8l-223 -318h92v-107h-151v-58h151v-107h-151v-102h-153v102h-150v107z" />
    <glyph glyph-name="dollar.tf" horiz-adv-x="711" 
d="M520 524q-7 15 -22.5 29t-37 25.5t-48 18t-55.5 6.5q-27 0 -52 -5t-44.5 -15.5t-32 -27t-12.5 -38.5q0 -23 12.5 -37t33.5 -22.5t47.5 -13t54.5 -6.5q56 -6 111.5 -18.5t99.5 -38.5t71.5 -69t27.5 -110q0 -98 -61.5 -155.5t-179.5 -69.5v-95h-137v94q-44 4 -85.5 18.5
t-77 38t-62.5 55t-43 69.5l130 63q11 -24 32 -44t48 -34.5t57.5 -22.5t61.5 -8q34 0 63.5 3t51 13t33.5 28t12 47q0 24 -13.5 41t-36.5 28t-52.5 17.5t-62.5 9.5q-55 5 -107.5 15t-93 33.5t-65 64t-24.5 106.5q0 49 20 86t53 62.5t76 39.5t89 18v83h132v-83q33 -4 63.5 -13
t57.5 -26t50 -42t40 -61z" />
    <glyph glyph-name="zero.denom" horiz-adv-x="410" 
d="M134 151q0 -35 22 -52t48.5 -17t48.5 17t22 52v56q0 36 -22 54t-48.5 18t-48.5 -18t-22 -54v-56zM36 208q0 54 25 90.5t62.5 54.5t81.5 18t81.5 -18t62.5 -54.5t25 -90.5v-54q0 -56 -25 -92.5t-62.5 -55.5t-81.5 -18.5t-81.5 18.5t-62.5 55.5t-25 92.5v54z" />
    <glyph glyph-name="one.denom" horiz-adv-x="285" 
d="M35 83h62v176l-52 -11v84l152 40v-289h64v-83h-226v83z" />
    <glyph glyph-name="two.denom" horiz-adv-x="378" 
d="M38 263q0 28 13 50t33.5 37t47 22.5t54.5 7.5q33 0 61.5 -7.5t49 -23t32.5 -38.5t12 -54q0 -37 -15.5 -59t-39 -34.5t-50.5 -19t-50.5 -12t-39 -13.5t-15.5 -23h207v-96h-302v96q0 36 15 57.5t37.5 33.5t49 18.5t49 12.5t37.5 14t15 25t-15 25.5t-33.5 9t-35 -7
t-19.5 -21.5h-98z" />
    <glyph glyph-name="three.denom" horiz-adv-x="384" 
d="M190 149h-58v75h54q30 0 43 10t13 25q0 16 -15.5 25t-40.5 10q-21 1 -39 -6.5t-21 -23.5h-89q0 30 13.5 51.5t35.5 35t49 20t53 6.5q27 0 54 -7t49.5 -22t36.5 -37.5t14 -52.5q0 -23 -11 -42t-37 -30q26 -8 41 -31t15 -50q0 -36 -15 -58.5t-38.5 -35.5t-52 -18t-55.5 -5
t-55 6.5t-51 21t-38 36.5t-15 53h105q2 -17 18 -22.5t35 -5.5q21 0 39 9t18 28q0 16 -14.5 25.5t-40.5 9.5z" />
    <glyph glyph-name="four.denom" horiz-adv-x="401" 
d="M320 370v-224h45v-85h-45v-61h-100v61h-193l-4 86l167 223h130zM220 273l-95 -127h95v127z" />
    <glyph glyph-name="five.denom" horiz-adv-x="376" 
d="M322 284h-184v-44h54q28 0 55.5 -5t49.5 -18.5t35.5 -37.5t13.5 -62q0 -36 -13.5 -61t-35 -40.5t-48 -22t-52.5 -6.5q-33 0 -61.5 7t-50 22t-34 38.5t-12.5 56.5h101q3 -21 19.5 -30t35 -7.5t34 12.5t15.5 31q0 21 -16 30.5t-36 9.5h-148v213h278v-86z" />
    <glyph glyph-name="six.denom" horiz-adv-x="386" 
d="M251 118q0 20 -17 29.5t-38 9.5t-38.5 -9.5t-16.5 -29.5q0 -19 17 -28.5t37 -9.5q21 0 38.5 9.5t17.5 28.5zM250 264q-2 17 -19.5 24.5t-37.5 6.5t-36 -10.5t-16 -25.5v-40q26 16 62.5 19t69.5 -9t56.5 -39t23.5 -72q0 -32 -14 -55.5t-36 -38.5t-50.5 -22.5t-56.5 -7.5
q-29 0 -57 8t-49.5 23.5t-35 39t-13.5 54.5v140q0 30 13 52t35 36.5t49.5 21.5t56.5 7q30 0 57 -6.5t47 -20t32 -34.5t13 -51h-94z" />
    <glyph glyph-name="seven.denom" horiz-adv-x="329" 
d="M51 0l133 278h-156v92h283l4 -41l-152 -329h-112z" />
    <glyph glyph-name="eight.denom" horiz-adv-x="394" 
d="M135 114q0 -6 2.5 -13t10 -13t20 -10.5t31.5 -4.5q36 0 49.5 14t12.5 27q0 16 -17.5 27.5t-43.5 11.5q-27 0 -46 -10t-19 -29zM33 115q0 17 14 40.5t41 36.5q-20 10 -32 31t-12 39q0 29 11.5 51t32 37t48.5 22.5t60 7.5q31 0 59.5 -7.5t49.5 -22t33.5 -36.5t12.5 -51
q0 -18 -10.5 -36.5t-34.5 -30.5q28 -13 41.5 -36.5t13.5 -45.5q0 -35 -13.5 -58.5t-36.5 -38t-53 -21t-62 -5.5q-32 0 -62 6.5t-52.5 21t-36 38t-12.5 58.5zM199 226q26 0 38.5 10.5t12.5 24.5t-13.5 25.5t-38.5 11.5q-26 0 -39.5 -11t-13.5 -25t13.5 -25t40.5 -11z" />
    <glyph glyph-name="nine.denom" horiz-adv-x="387" 
d="M136 251q0 -20 17 -29.5t38 -9.5t38.5 9.5t16.5 29.5q0 19 -17 28.5t-37 9.5q-21 0 -38.5 -9.5t-17.5 -28.5zM134 105q2 -17 20 -24.5t38.5 -6.5t37 10t16.5 26v40q-26 -16 -62.5 -19t-69.5 9t-56.5 39t-23.5 72q0 32 14 55.5t36 38.5t50 22.5t57 7.5t57 -8t49.5 -24
t35 -39t13.5 -54v-140q0 -30 -13 -52.5t-35 -37t-49.5 -22t-56.5 -7.5q-32 0 -59.5 6t-48 19.5t-33 35.5t-13.5 53h96z" />
    <glyph glyph-name="zero.num" horiz-adv-x="410" 
d="M134 492q0 -35 22 -52t48.5 -17t48.5 17t22 52v56q0 36 -22 54t-48.5 18t-48.5 -18t-22 -54v-56zM36 549q0 54 25 90.5t62.5 55t81.5 18t81.5 -18.5t62.5 -54.5t25 -90.5v-54q0 -56 -25 -92.5t-62.5 -55.5t-81.5 -19t-81.5 18.5t-62.5 55.5t-25 93v54z" />
    <glyph glyph-name="one.num" horiz-adv-x="285" 
d="M35 423h62v176l-52 -11v84l152 40v-289h64v-83h-226v83z" />
    <glyph glyph-name="two.num" horiz-adv-x="376" 
d="M37 593q0 28 13 50t33.5 37t47 22.5t54.5 7.5q33 0 61.5 -7.5t49 -23t32.5 -38.5t12 -54q0 -37 -15.5 -59t-39 -34.5t-50.5 -19t-50.5 -12t-39 -13.5t-15.5 -23h207v-96h-302v96q0 36 15 57.5t37.5 33.5t49 18.5t49 12.5t37.5 14.5t15 24.5q0 17 -15 25.5t-33.5 9t-35 -7
t-19.5 -21.5h-98z" />
    <glyph glyph-name="three.num" horiz-adv-x="384" 
d="M190 484h-58v75h54q30 0 43 10t13 25q0 16 -15.5 25t-40.5 10q-21 1 -39 -6.5t-21 -23.5h-89q0 30 13.5 51.5t35.5 35t49 20t53 6.5q27 0 54 -7t49.5 -22t36.5 -37.5t14 -52.5q0 -23 -11 -42t-37 -30q26 -8 41 -31t15 -50q0 -36 -15 -58.5t-38.5 -35.5t-52 -18t-55.5 -5
t-55 6.5t-51 21t-38 36.5t-15 53h105q2 -17 18 -22.5t35 -5.5q21 0 39 9t18 28q0 16 -14.5 25.5t-40.5 9.5z" />
    <glyph glyph-name="four.num" horiz-adv-x="401" 
d="M320 704v-224h45v-85h-45v-61h-100v61h-193l-4 86l167 223h130zM220 607l-95 -127h95v127z" />
    <glyph glyph-name="five.num" horiz-adv-x="379" 
d="M325 615h-184v-44h54q28 0 55.5 -5t49.5 -18.5t35.5 -37.5t13.5 -62q0 -36 -13.5 -61t-35 -40.5t-48 -22t-52.5 -6.5q-33 0 -61.5 7t-50 22t-34 38.5t-12.5 56.5h101q3 -21 19.5 -30t35 -7.5t34 12.5t15.5 31q0 21 -16 30.5t-36 9.5h-148v213h278v-86z" />
    <glyph glyph-name="six.num" horiz-adv-x="386" 
d="M251 454q0 20 -17 29.5t-38 9.5t-38.5 -9.5t-16.5 -29.5q0 -19 17 -28.5t37 -9.5q21 0 38.5 9.5t17.5 28.5zM250 600q-2 17 -19.5 24.5t-37.5 6.5t-36 -10.5t-16 -25.5v-40q26 16 62.5 19t69.5 -9t56.5 -39t23.5 -72q0 -32 -14 -55.5t-36 -38.5t-50.5 -22.5t-56.5 -7.5
q-29 0 -57 8t-49.5 23.5t-35 39t-13.5 54.5v140q0 30 13 52t35 36.5t49.5 21.5t56.5 7q30 0 57 -6.5t47 -20t32 -34.5t13 -51h-94z" />
    <glyph glyph-name="seven.num" horiz-adv-x="329" 
d="M51 332l133 278h-156v92h283l4 -41l-152 -329h-112z" />
    <glyph glyph-name="eight.num" horiz-adv-x="394" 
d="M135 448q0 -6 2.5 -13t10 -13t20 -10.5t31.5 -4.5q36 0 49.5 14t12.5 27q0 16 -17.5 27.5t-43.5 11.5q-27 0 -46 -10t-19 -29zM33 449q0 17 14 40.5t41 36.5q-20 10 -32 31t-12 39q0 29 11.5 51t32 37t48.5 22.5t60 7.5q31 0 59.5 -7.5t49.5 -22t33.5 -36.5t12.5 -51
q0 -18 -10.5 -36.5t-34.5 -30.5q28 -13 41.5 -36.5t13.5 -45.5q0 -35 -13.5 -58.5t-36.5 -38t-53 -21t-62 -5.5q-32 0 -62 6.5t-52.5 21t-36 38t-12.5 58.5zM199 560q26 0 38.5 10.5t12.5 24.5t-13.5 25.5t-38.5 11.5q-26 0 -39.5 -11t-13.5 -25t13.5 -25t40.5 -11z" />
    <glyph glyph-name="nine.num" horiz-adv-x="387" 
d="M136 586q0 -20 17 -29.5t38 -9.5t38.5 9.5t16.5 29.5q0 19 -17 28.5t-37 9.5q-21 0 -38.5 -9.5t-17.5 -28.5zM134 440q2 -17 20 -24.5t38.5 -6.5t37 10t16.5 26v40q-26 -16 -62.5 -19t-69.5 9t-56.5 39t-23.5 72q0 32 14 55.5t36 38.5t50 22.5t57 7.5t57 -8t49.5 -24
t35 -39t13.5 -54v-140q0 -30 -13 -52.5t-35 -37t-49.5 -22t-56.5 -7.5q-32 0 -59.5 6t-48 19.5t-33 35.5t-13.5 53h96z" />
    <glyph glyph-name="parenleft.case" horiz-adv-x="373" 
d="M350 721q-41 -34 -71.5 -76.5t-51 -90.5t-30 -100t-9.5 -103q0 -114 38 -212t119 -164l-72 -97q-118 78 -176 197.5t-58 275.5q0 78 17.5 146.5t49 128t75.5 108t97 86.5z" />
    <glyph glyph-name="parenright.case" horiz-adv-x="373" 
d="M95 820q53 -38 97 -86.5t75.5 -108t49 -128t17.5 -146.5q0 -156 -58 -275.5t-176 -197.5l-72 97q81 66 119 164t38 212q0 51 -10 103t-30 100t-50.5 90.5t-71.5 76.5z" />
    <glyph glyph-name="hyphen.case" horiz-adv-x="503" 
d="M64 401h375v-127h-375v127z" />
    <glyph glyph-name="bracketleft.case" horiz-adv-x="377" 
d="M79 -92v882h256v-121h-114v-638h114v-123h-256z" />
    <glyph glyph-name="bracketright.case" horiz-adv-x="378" 
d="M43 -94v123h114v638h-114v121h256v-882h-256z" />
    <glyph glyph-name="braceleft.case" horiz-adv-x="370" 
d="M326 -99q-57 -11 -99 -4.5t-69.5 28.5t-41.5 57t-14 81v149q0 12 -2 25.5t-9 24t-20.5 17.5t-36.5 7v107q23 0 36.5 7t20.5 17.5t9 23.5t2 26v141q0 49 13 86.5t40 60.5t69.5 30t101.5 -4v-113q-22 5 -37.5 1.5t-25.5 -13.5t-15 -24.5t-5 -31.5v-133v-43t-6 -36
t-20.5 -28t-43.5 -21q29 -9 43.5 -21t20.5 -28t6 -35.5v-42.5v-130q0 -24 3 -39t12 -22.5t25.5 -9t42.5 0.5v-111z" />
    <glyph glyph-name="bar.case" horiz-adv-x="295" 
d="M216 -89h-137v839h137v-839z" />
    <glyph glyph-name="braceright.case" horiz-adv-x="370" 
d="M44 12q26 -2 42.5 -0.5t25.5 9t12 22.5t3 39v130v42.5t6 35.5t20.5 28t43.5 21q-29 9 -43.5 21t-20.5 28t-6 36v43v133q0 17 -5 31.5t-15 24.5t-25.5 13.5t-37.5 -1.5v113q59 11 101.5 4t69.5 -30t40 -60.5t13 -86.5v-141q0 -13 2 -26t9 -23.5t20.5 -17.5t36.5 -7v-107
q-23 0 -36.5 -7t-20.5 -17.5t-9 -24t-2 -25.5v-149q0 -46 -14 -81t-41.5 -57t-69.5 -28.5t-99 4.5v111z" />
    <glyph glyph-name="guilsinglleft.case" horiz-adv-x="401" 
d="M189 559h153v2l-139 -223q35 -57 68.5 -112.5t70.5 -110.5h-153l-139 223z" />
    <glyph glyph-name="guilsinglright.case" horiz-adv-x="401" 
d="M352 341l-139 -223h-153l138 223l-138 223v-1h153z" />
    <glyph glyph-name="guillemotleft.case" horiz-adv-x="598" 
d="M190 577h153v2l-139 -223q35 -57 68.5 -112.5t70.5 -110.5h-153l-139 223zM387 577h153v2l-139 -223l139 -223h-153l-139 223z" />
    <glyph glyph-name="guillemotright.case" horiz-adv-x="597" 
d="M547 355l-139 -222h-154l139 222l-139 224v-2h154zM350 355l-139 -222h-153l139 222l-139 224v-2h153z" />
    <glyph glyph-name="endash.case" horiz-adv-x="609" 
d="M64 390h481v-125h-481v125z" />
    <glyph glyph-name="emdash.case" horiz-adv-x="702" 
d="M64 391h574v-125h-574v125z" />
    <glyph glyph-name="bullet.case" horiz-adv-x="419" 
d="M211 183q-30 0 -55.5 9.5t-44.5 27t-29.5 42.5t-10.5 56q0 30 10.5 55t29.5 43t44.5 28t55.5 10q29 0 54 -10t43.5 -28t29 -43t10.5 -55q0 -31 -10.5 -56t-29 -42.5t-43.5 -27t-54 -9.5z" />
    <glyph glyph-name="periodcentered.case" horiz-adv-x="298" 
d="M62 329q0 28 13 47t32 29t42 9.5t42 -9.5t32 -28.5t13 -47.5q0 -29 -13 -48t-32 -28.5t-42 -9.5t-42 9.5t-32 28.5t-13 48z" />
    <glyph glyph-name="a.alt" horiz-adv-x="559" 
d="M243 508q54 0 101.5 -8t83 -30t55.5 -60t20 -98v-312h-122l-11 49q-35 -36 -76.5 -45.5t-76.5 -9.5q-37 0 -71 9.5t-60.5 29.5t-42.5 52t-16 76q0 40 17 71t45 51.5t64.5 31t74.5 10.5q13 0 30 -2t35.5 -6t36 -10t31.5 -14v19q0 22 -11 36.5t-28 22.5t-38 11t-41 3
q-21 0 -44 -3.5t-44 -8.5t-39 -10.5t-30 -10.5l-21 111q43 20 89.5 32.5t88.5 12.5zM171 161q0 -29 24.5 -40t56.5 -11q15 0 31.5 3.5t32 11.5t27.5 22.5t17 35.5q-19 16 -47.5 23t-51.5 6q-38 0 -64 -11t-26 -40z" />
    <glyph glyph-name="agrave.alt" horiz-adv-x="559" 
d="M125 712h169l64 -133v-7h-126l-107 133v7zM243 508q54 0 101.5 -8t83 -30t55.5 -60t20 -98v-312h-122l-11 49q-35 -36 -76.5 -45.5t-76.5 -9.5q-37 0 -71 9.5t-60.5 29.5t-42.5 52t-16 76q0 40 17 71t45 51.5t64.5 31t74.5 10.5q13 0 30 -2t35.5 -6t36 -10t31.5 -14v19
q0 22 -11 36.5t-28 22.5t-38 11t-41 3q-21 0 -44 -3.5t-44 -8.5t-39 -10.5t-30 -10.5l-21 111q43 20 89.5 32.5t88.5 12.5zM171 161q0 -29 24.5 -40t56.5 -11q15 0 31.5 3.5t32 11.5t27.5 22.5t17 35.5q-19 16 -47.5 23t-51.5 6q-38 0 -64 -11t-26 -40z" />
    <glyph glyph-name="aacute.alt" horiz-adv-x="559" 
d="M432 705l-107 -133h-127v7l65 133h169v-7zM243 508q54 0 101.5 -8t83 -30t55.5 -60t20 -98v-312h-122l-11 49q-35 -36 -76.5 -45.5t-76.5 -9.5q-37 0 -71 9.5t-60.5 29.5t-42.5 52t-16 76q0 40 17 71t45 51.5t64.5 31t74.5 10.5q13 0 30 -2t35.5 -6t36 -10t31.5 -14v19
q0 22 -11 36.5t-28 22.5t-38 11t-41 3q-21 0 -44 -3.5t-44 -8.5t-39 -10.5t-30 -10.5l-21 111q43 20 89.5 32.5t88.5 12.5zM171 161q0 -29 24.5 -40t56.5 -11q15 0 31.5 3.5t32 11.5t27.5 22.5t17 35.5q-19 16 -47.5 23t-51.5 6q-38 0 -64 -11t-26 -40z" />
    <glyph glyph-name="acircumflex.alt" horiz-adv-x="559" 
d="M316 716l151 -138v-6h-146l-44 45l-42 -45h-146v6l151 138h76zM243 508q54 0 101.5 -8t83 -30t55.5 -60t20 -98v-312h-122l-11 49q-35 -36 -76.5 -45.5t-76.5 -9.5q-37 0 -71 9.5t-60.5 29.5t-42.5 52t-16 76q0 40 17 71t45 51.5t64.5 31t74.5 10.5q13 0 30 -2t35.5 -6
t36 -10t31.5 -14v19q0 22 -11 36.5t-28 22.5t-38 11t-41 3q-21 0 -44 -3.5t-44 -8.5t-39 -10.5t-30 -10.5l-21 111q43 20 89.5 32.5t88.5 12.5zM171 161q0 -29 24.5 -40t56.5 -11q15 0 31.5 3.5t32 11.5t27.5 22.5t17 35.5q-19 16 -47.5 23t-51.5 6q-38 0 -64 -11t-26 -40z
" />
    <glyph glyph-name="atilde.alt" horiz-adv-x="559" 
d="M93 624q11 23 26 42.5t34.5 32.5t43.5 18t51 -1q17 -5 34 -14.5t32 -12.5q14 -5 27 -1t27 27l93 -46q-26 -62 -62 -82.5t-71 -9.5q-24 7 -48.5 20.5t-47.5 14.5q-14 -2 -25.5 -10t-25.5 -28zM243 508q54 0 101.5 -8t83 -30t55.5 -60t20 -98v-312h-122l-11 49
q-35 -36 -76.5 -45.5t-76.5 -9.5q-37 0 -71 9.5t-60.5 29.5t-42.5 52t-16 76q0 40 17 71t45 51.5t64.5 31t74.5 10.5q13 0 30 -2t35.5 -6t36 -10t31.5 -14v19q0 22 -11 36.5t-28 22.5t-38 11t-41 3q-21 0 -44 -3.5t-44 -8.5t-39 -10.5t-30 -10.5l-21 111q43 20 89.5 32.5
t88.5 12.5zM171 161q0 -29 24.5 -40t56.5 -11q15 0 31.5 3.5t32 11.5t27.5 22.5t17 35.5q-19 16 -47.5 23t-51.5 6q-38 0 -64 -11t-26 -40z" />
    <glyph glyph-name="adieresis.alt" horiz-adv-x="559" 
d="M90 644q0 39 24.5 59t54.5 20t54.5 -20t24.5 -59t-24.5 -58.5t-54.5 -19.5t-54.5 19.5t-24.5 58.5zM324 644q0 39 24.5 59t54.5 20t54.5 -20t24.5 -59t-24.5 -58.5t-54.5 -19.5t-54.5 19.5t-24.5 58.5zM243 508q54 0 101.5 -8t83 -30t55.5 -60t20 -98v-312h-122l-11 49
q-35 -36 -76.5 -45.5t-76.5 -9.5q-37 0 -71 9.5t-60.5 29.5t-42.5 52t-16 76q0 40 17 71t45 51.5t64.5 31t74.5 10.5q13 0 30 -2t35.5 -6t36 -10t31.5 -14v19q0 22 -11 36.5t-28 22.5t-38 11t-41 3q-21 0 -44 -3.5t-44 -8.5t-39 -10.5t-30 -10.5l-21 111q43 20 89.5 32.5
t88.5 12.5zM171 161q0 -29 24.5 -40t56.5 -11q15 0 31.5 3.5t32 11.5t27.5 22.5t17 35.5q-19 16 -47.5 23t-51.5 6q-38 0 -64 -11t-26 -40z" />
    <glyph glyph-name="amacron.alt" horiz-adv-x="559" 
d="M106 710h355v-114h-355v114zM243 508q54 0 101.5 -8t83 -30t55.5 -60t20 -98v-312h-122l-11 49q-35 -36 -76.5 -45.5t-76.5 -9.5q-37 0 -71 9.5t-60.5 29.5t-42.5 52t-16 76q0 40 17 71t45 51.5t64.5 31t74.5 10.5q13 0 30 -2t35.5 -6t36 -10t31.5 -14v19q0 22 -11 36.5
t-28 22.5t-38 11t-41 3q-21 0 -44 -3.5t-44 -8.5t-39 -10.5t-30 -10.5l-21 111q43 20 89.5 32.5t88.5 12.5zM171 161q0 -29 24.5 -40t56.5 -11q15 0 31.5 3.5t32 11.5t27.5 22.5t17 35.5q-19 16 -47.5 23t-51.5 6q-38 0 -64 -11t-26 -40z" />
    <glyph glyph-name="abreve.alt" horiz-adv-x="559" 
d="M436 711q2 -35 -10.5 -63t-34 -47.5t-51 -30t-61.5 -10.5q-31 0 -62 9.5t-55 28t-37 47t-9 66.5h117q0 -14 5 -22.5t11.5 -14t14 -7.5t12.5 -2t12.5 2t14.5 7t12 14t5 23h116zM243 508q54 0 101.5 -8t83 -30t55.5 -60t20 -98v-312h-122l-11 49q-35 -36 -76.5 -45.5
t-76.5 -9.5q-37 0 -71 9.5t-60.5 29.5t-42.5 52t-16 76q0 40 17 71t45 51.5t64.5 31t74.5 10.5q13 0 30 -2t35.5 -6t36 -10t31.5 -14v19q0 22 -11 36.5t-28 22.5t-38 11t-41 3q-21 0 -44 -3.5t-44 -8.5t-39 -10.5t-30 -10.5l-21 111q43 20 89.5 32.5t88.5 12.5zM171 161
q0 -29 24.5 -40t56.5 -11q15 0 31.5 3.5t32 11.5t27.5 22.5t17 35.5q-19 16 -47.5 23t-51.5 6q-38 0 -64 -11t-26 -40z" />
    <glyph glyph-name="aring.alt" horiz-adv-x="559" 
d="M144 673q0 30 11.5 52t30.5 36.5t43 22t49 7.5q24 0 47.5 -7.5t42 -22.5t30 -37t11.5 -51t-12 -50.5t-30.5 -35.5t-42 -21t-46.5 -7q-24 0 -48 7t-43 21t-31 35.5t-12 50.5zM275 719q-27 0 -40.5 -14t-13.5 -30.5t13.5 -30.5t40.5 -14t40 14t12.5 30.5t-14 30.5t-38.5 14
zM243 508q54 0 101.5 -8t83 -30t55.5 -60t20 -98v-312h-122l-11 49q-35 -36 -76.5 -45.5t-76.5 -9.5q-37 0 -71 9.5t-60.5 29.5t-42.5 52t-16 76q0 40 17 71t45 51.5t64.5 31t74.5 10.5q13 0 30 -2t35.5 -6t36 -10t31.5 -14v19q0 22 -11 36.5t-28 22.5t-38 11t-41 3
q-21 0 -44 -3.5t-44 -8.5t-39 -10.5t-30 -10.5l-21 111q43 20 89.5 32.5t88.5 12.5zM171 161q0 -29 24.5 -40t56.5 -11q15 0 31.5 3.5t32 11.5t27.5 22.5t17 35.5q-19 16 -47.5 23t-51.5 6q-38 0 -64 -11t-26 -40z" />
    <glyph glyph-name="aringacute.alt" horiz-adv-x="559" 
d="M159 638q0 26 11 45.5t28.5 33t40 20t45.5 6.5q22 0 44.5 -6.5t39.5 -20t28 -33t11 -45.5q0 -27 -11 -46t-28.5 -32t-39 -19t-43.5 -6q-23 0 -45.5 6t-40.5 19t-29 32t-11 46zM282 678q-25 0 -37.5 -12.5t-12.5 -27t12.5 -27t37.5 -12.5q26 0 38 12.5t11.5 27t-13 27
t-36.5 12.5zM466 866l-115 -100h-125v5l73 99h167v-4zM243 508q54 0 101.5 -8t83 -30t55.5 -60t20 -98v-312h-122l-11 49q-35 -36 -76.5 -45.5t-76.5 -9.5q-37 0 -71 9.5t-60.5 29.5t-42.5 52t-16 76q0 40 17 71t45 51.5t64.5 31t74.5 10.5q13 0 30 -2t35.5 -6t36 -10
t31.5 -14v19q0 22 -11 36.5t-28 22.5t-38 11t-41 3q-21 0 -44 -3.5t-44 -8.5t-39 -10.5t-30 -10.5l-21 111q43 20 89.5 32.5t88.5 12.5zM171 161q0 -29 24.5 -40t56.5 -11q15 0 31.5 3.5t32 11.5t27.5 22.5t17 35.5q-19 16 -47.5 23t-51.5 6q-38 0 -64 -11t-26 -40z" />
    <glyph glyph-name="aogonek.alt" horiz-adv-x="559" 
d="M243 508q54 0 101.5 -8t83 -30t55.5 -60t20 -98v-364q-12 3 -33 1t-39.5 -8.5t-30 -19t-5.5 -30.5q5 -10 21.5 -15.5t35.5 -0.5q16 3 35 13l71 -56q-12 -18 -29 -30t-37.5 -19.5t-42.5 -10t-44 0.5q-18 3 -37 9t-35 17t-28 26t-16 36q-3 10 -2.5 28t10 38.5t30.5 39.5
t55 31l-12 51q-35 -36 -76.5 -45.5t-76.5 -9.5q-37 0 -71 9.5t-60.5 29.5t-42.5 52t-16 76q0 40 17 71t45 51.5t64.5 31t74.5 10.5q13 0 30 -2t35.5 -6t36 -10t31.5 -14v19q0 22 -11 36.5t-28 22.5t-38 11t-41 3q-21 0 -44 -3.5t-44 -8.5t-39 -10.5t-30 -10.5l-21 111
q43 20 89.5 32.5t88.5 12.5zM171 161q0 -29 24.5 -40t56.5 -11q15 0 31.5 3.5t32 11.5t27.5 22.5t17 35.5q-19 16 -47.5 23t-51.5 6q-38 0 -64 -11t-26 -40z" />
    <glyph glyph-name="y.alt" horiz-adv-x="614" 
d="M197 494v-252q0 -24 6 -46t18.5 -38.5t31.5 -26t45 -9.5q25 0 45.5 10t35.5 27.5t23 40t8 47.5v247h143v-508q0 -64 -21 -110t-55.5 -76t-77.5 -44t-86 -14q-48 0 -90.5 11.5t-75.5 35.5t-55 61.5t-29 89.5h139q5 -21 15.5 -33.5t25 -20t31.5 -10t35 -2.5q19 0 38 7
t34.5 21t25 35t9.5 48v74q-18 -24 -36.5 -37.5t-38.5 -20t-42.5 -8t-47.5 -1.5q-43 0 -79 16.5t-62.5 48.5t-41.5 78.5t-15 105.5v253h144z" />
    <glyph glyph-name="yacute.alt" horiz-adv-x="614" 
d="M467 695l-117 -144h-126v7l75 143h168v-6zM197 494v-252q0 -24 6 -46t18.5 -38.5t31.5 -26t45 -9.5q25 0 45.5 10t35.5 27.5t23 40t8 47.5v247h143v-508q0 -64 -21 -110t-55.5 -76t-77.5 -44t-86 -14q-48 0 -90.5 11.5t-75.5 35.5t-55 61.5t-29 89.5h139
q5 -21 15.5 -33.5t25 -20t31.5 -10t35 -2.5q19 0 38 7t34.5 21t25 35t9.5 48v74q-18 -24 -36.5 -37.5t-38.5 -20t-42.5 -8t-47.5 -1.5q-43 0 -79 16.5t-62.5 48.5t-41.5 78.5t-15 105.5v253h144z" />
    <glyph glyph-name="ycircumflex.alt" horiz-adv-x="614" 
d="M347 723l166 -146v-5h-160l-48 45l-49 -45h-159v5l167 146h83zM197 494v-252q0 -24 6 -46t18.5 -38.5t31.5 -26t45 -9.5q25 0 45.5 10t35.5 27.5t23 40t8 47.5v247h143v-508q0 -64 -21 -110t-55.5 -76t-77.5 -44t-86 -14q-48 0 -90.5 11.5t-75.5 35.5t-55 61.5t-29 89.5
h139q5 -21 15.5 -33.5t25 -20t31.5 -10t35 -2.5q19 0 38 7t34.5 21t25 35t9.5 48v74q-18 -24 -36.5 -37.5t-38.5 -20t-42.5 -8t-47.5 -1.5q-43 0 -79 16.5t-62.5 48.5t-41.5 78.5t-15 105.5v253h144z" />
    <glyph glyph-name="ydieresis.alt" horiz-adv-x="614" 
d="M96 628q0 26 12 44t29.5 26.5t38 8.5t38 -8.5t29.5 -26.5t12 -44t-12 -43.5t-29.5 -26.5t-38 -9t-38 9t-29.5 26.5t-12 43.5zM358 628q0 40 25 59.5t55 19.5t55 -19.5t25 -59.5q0 -39 -25 -59t-55 -20t-55 20t-25 59zM197 494v-252q0 -24 6 -46t18.5 -38.5t31.5 -26
t45 -9.5q25 0 45.5 10t35.5 27.5t23 40t8 47.5v247h143v-508q0 -64 -21 -110t-55.5 -76t-77.5 -44t-86 -14q-48 0 -90.5 11.5t-75.5 35.5t-55 61.5t-29 89.5h139q5 -21 15.5 -33.5t25 -20t31.5 -10t35 -2.5q19 0 38 7t34.5 21t25 35t9.5 48v74q-18 -24 -36.5 -37.5
t-38.5 -20t-42.5 -8t-47.5 -1.5q-43 0 -79 16.5t-62.5 48.5t-41.5 78.5t-15 105.5v253h144z" />
    <glyph glyph-name="ygrave.alt" horiz-adv-x="614" 
d="M137 701h169l75 -143v-7h-127l-117 144v6zM197 494v-252q0 -24 6 -46t18.5 -38.5t31.5 -26t45 -9.5q25 0 45.5 10t35.5 27.5t23 40t8 47.5v247h143v-508q0 -64 -21 -110t-55.5 -76t-77.5 -44t-86 -14q-48 0 -90.5 11.5t-75.5 35.5t-55 61.5t-29 89.5h139
q5 -21 15.5 -33.5t25 -20t31.5 -10t35 -2.5q19 0 38 7t34.5 21t25 35t9.5 48v74q-18 -24 -36.5 -37.5t-38.5 -20t-42.5 -8t-47.5 -1.5q-43 0 -79 16.5t-62.5 48.5t-41.5 78.5t-15 105.5v253h144z" />
    <glyph glyph-name=".ttfautohint" 
d="M0 0z" />
  </font>
</defs>
</svg>
